<svg width="24" height="24" viewBox="0 0 24 24" fill="none" xmlns="http://www.w3.org/2000/svg">
    <path fill-rule="evenodd" clip-rule="evenodd"
        d="M3.51704 17L10.575 5.217C10.7237 4.97217 10.9329 4.76976 11.1825 4.62929C11.4321 4.48882 11.7136 4.41502 12 4.41502C12.2865 4.41502 12.568 4.48882 12.8176 4.62929C13.0672 4.76976 13.2764 4.97217 13.425 5.217L20.483 17C20.6285 17.252 20.7054 17.5377 20.7061 17.8287C20.7069 18.1197 20.6315 18.4058 20.4874 18.6586C20.3433 18.9114 20.1356 19.1221 19.8848 19.2697C19.634 19.4173 19.349 19.4967 19.058 19.5H4.94204C4.65096 19.497 4.36575 19.4178 4.11481 19.2702C3.86388 19.1227 3.65598 18.912 3.51183 18.6591C3.36768 18.4062 3.29231 18.1199 3.29322 17.8289C3.29414 17.5378 3.37131 17.252 3.51704 17ZM12 9C12.2653 9 12.5196 9.10536 12.7072 9.29289C12.8947 9.48043 13 9.73479 13 10V13C13 13.2652 12.8947 13.5196 12.7072 13.7071C12.5196 13.8946 12.2653 14 12 14C11.7348 14 11.4805 13.8946 11.2929 13.7071C11.1054 13.5196 11 13.2652 11 13V10C11 9.73479 11.1054 9.48043 11.2929 9.29289C11.4805 9.10536 11.7348 9 12 9ZM11 16C11 15.7348 11.1054 15.4804 11.2929 15.2929C11.4805 15.1054 11.7348 15 12 15H12.008C12.2733 15 12.5276 15.1054 12.7152 15.2929C12.9027 15.4804 13.008 15.7348 13.008 16C13.008 16.2652 12.9027 16.5196 12.7152 16.7071C12.5276 16.8946 12.2733 17 12.008 17H12C11.7348 17 11.4805 16.8946 11.2929 16.7071C11.1054 16.5196 11 16.2652 11 16Z"
        fill="#AF0000" />
</svg>
