<svg width="93" height="29" viewBox="0 0 93 29" fill="none" xmlns="http://www.w3.org/2000/svg">
    <rect width="93" height="29" rx="8" fill="#FF6F00" fill-opacity="0.2" />
    <rect width="93" height="29" rx="8" stroke="#979797" />
    <path
        d="M13.8182 17.2003L10 19.3337V10.8003L13.8182 8.66699M13.8182 17.2003L18.1818 19.3337M13.8182 17.2003V8.66699M18.1818 19.3337L22 17.2003V8.66699L18.1818 10.8003M18.1818 19.3337V10.8003M18.1818 10.8003L13.8182 8.66699"
        stroke="#FF6F00" stroke-width="1.5" stroke-linecap="round" stroke-linejoin="round" />
    <path
        d="M29.4588 10.2727H31.0568L33.8352 17.0568H33.9375L36.7159 10.2727H38.3139V19H37.0611V12.6847H36.9801L34.4062 18.9872H33.3665L30.7926 12.6804H30.7116V19H29.4588V10.2727ZM42.0309 19.1449C41.6161 19.1449 41.2411 19.0682 40.9059 18.9148C40.5707 18.7585 40.305 18.5327 40.109 18.2372C39.9158 17.9418 39.8192 17.5795 39.8192 17.1506C39.8192 16.7812 39.8903 16.4773 40.0323 16.2386C40.1744 16 40.3661 15.8111 40.6076 15.6719C40.8491 15.5327 41.119 15.4276 41.4173 15.3565C41.7156 15.2855 42.0195 15.2315 42.3292 15.1946C42.7212 15.1491 43.0394 15.1122 43.2837 15.0838C43.5281 15.0526 43.7056 15.0028 43.8164 14.9347C43.9272 14.8665 43.9826 14.7557 43.9826 14.6023V14.5724C43.9826 14.2003 43.8775 13.9119 43.6673 13.7074C43.4599 13.5028 43.1502 13.4006 42.7383 13.4006C42.3093 13.4006 41.9712 13.4957 41.7241 13.6861C41.4798 13.8736 41.3107 14.0824 41.217 14.3125L40.0195 14.0398C40.1616 13.642 40.369 13.321 40.6417 13.0767C40.9173 12.8295 41.234 12.6506 41.592 12.5398C41.9499 12.4261 42.3263 12.3693 42.7212 12.3693C42.9826 12.3693 43.2596 12.4006 43.5522 12.4631C43.8477 12.5227 44.1232 12.6335 44.3789 12.7955C44.6374 12.9574 44.8491 13.1889 45.0138 13.4901C45.1786 13.7884 45.261 14.1761 45.261 14.6534V19H44.0167V18.1051H43.9656C43.8832 18.2699 43.7596 18.4318 43.5948 18.5909C43.43 18.75 43.2184 18.8821 42.9599 18.9872C42.7013 19.0923 42.3917 19.1449 42.0309 19.1449ZM42.3079 18.1222C42.6602 18.1222 42.9613 18.0526 43.2113 17.9134C43.4641 17.7741 43.6559 17.5923 43.7866 17.3679C43.9201 17.1406 43.9869 16.8977 43.9869 16.6392V15.7955C43.9414 15.8409 43.8533 15.8835 43.7227 15.9233C43.5948 15.9602 43.4485 15.9929 43.2837 16.0213C43.119 16.0469 42.9585 16.071 42.8022 16.0938C42.646 16.1136 42.5153 16.1307 42.4102 16.1449C42.163 16.1761 41.9371 16.2287 41.7326 16.3026C41.5309 16.3764 41.369 16.483 41.2468 16.6222C41.1275 16.7585 41.0678 16.9403 41.0678 17.1676C41.0678 17.483 41.1843 17.7216 41.4173 17.8835C41.6502 18.0426 41.9471 18.1222 42.3079 18.1222ZM46.9581 21.4545V12.4545H48.2024V13.5156H48.3089C48.3828 13.3793 48.4893 13.2216 48.6286 13.0426C48.7678 12.8636 48.9609 12.7074 49.2081 12.5739C49.4553 12.4375 49.782 12.3693 50.1882 12.3693C50.7166 12.3693 51.1882 12.5028 51.603 12.7699C52.0178 13.0369 52.343 13.4219 52.5788 13.9247C52.8175 14.4276 52.9368 15.0327 52.9368 15.7401C52.9368 16.4474 52.8189 17.054 52.5831 17.5597C52.3473 18.0625 52.0234 18.4503 51.6115 18.723C51.1996 18.9929 50.7294 19.1278 50.201 19.1278C49.8033 19.1278 49.478 19.0611 49.2251 18.9276C48.9751 18.794 48.7791 18.6378 48.6371 18.4588C48.495 18.2798 48.3857 18.1207 48.3089 17.9815H48.2322V21.4545H46.9581ZM48.2067 15.7273C48.2067 16.1875 48.2734 16.5909 48.407 16.9375C48.5405 17.2841 48.7337 17.5554 48.9865 17.7514C49.2393 17.9446 49.549 18.0412 49.9155 18.0412C50.2962 18.0412 50.6143 17.9403 50.87 17.7386C51.1257 17.5341 51.3189 17.2571 51.4496 16.9077C51.5831 16.5582 51.6499 16.1648 51.6499 15.7273C51.6499 15.2955 51.5845 14.9077 51.4538 14.5639C51.326 14.2202 51.1328 13.9489 50.8743 13.75C50.6186 13.5511 50.299 13.4517 49.9155 13.4517C49.5462 13.4517 49.2337 13.5469 48.978 13.7372C48.7251 13.9276 48.5334 14.1932 48.4027 14.5341C48.272 14.875 48.2067 15.2727 48.2067 15.7273ZM58.4052 10.2727L60.8342 17.3807H60.9322L63.3612 10.2727H64.7844L61.6438 19H60.1225L56.9819 10.2727H58.4052ZM65.9425 19V12.4545H67.2166V19H65.9425ZM66.5859 11.4446C66.3643 11.4446 66.174 11.3707 66.0149 11.223C65.8587 11.0724 65.7805 10.8935 65.7805 10.6861C65.7805 10.4759 65.8587 10.2969 66.0149 10.1491C66.174 9.99858 66.3643 9.9233 66.5859 9.9233C66.8075 9.9233 66.9964 9.99858 67.1527 10.1491C67.3118 10.2969 67.3913 10.4759 67.3913 10.6861C67.3913 10.8935 67.3118 11.0724 67.1527 11.223C66.9964 11.3707 66.8075 11.4446 66.5859 11.4446ZM71.7518 19.1321C71.1069 19.1321 70.5515 18.9943 70.0856 18.7188C69.6225 18.4403 69.2646 18.0497 69.0117 17.5469C68.7617 17.0412 68.6367 16.4489 68.6367 15.7699C68.6367 15.0994 68.7617 14.5085 69.0117 13.9972C69.2646 13.4858 69.6168 13.0866 70.0685 12.7997C70.5231 12.5128 71.0543 12.3693 71.6623 12.3693C72.0316 12.3693 72.3896 12.4304 72.7362 12.5526C73.0827 12.6747 73.3938 12.8665 73.6694 13.1278C73.945 13.3892 74.1623 13.7287 74.3214 14.1463C74.4805 14.5611 74.56 15.0653 74.56 15.6591V16.1108H69.3569V15.1562H73.3114C73.3114 14.821 73.2433 14.5241 73.1069 14.2656C72.9705 14.0043 72.7788 13.7983 72.5316 13.6477C72.2873 13.4972 72.0004 13.4219 71.6708 13.4219C71.3129 13.4219 71.0004 13.5099 70.7333 13.6861C70.4691 13.8594 70.2646 14.0866 70.1197 14.3679C69.9776 14.6463 69.9066 14.9489 69.9066 15.2756V16.0213C69.9066 16.4588 69.9833 16.831 70.1367 17.1378C70.293 17.4446 70.5103 17.679 70.7887 17.8409C71.0671 18 71.3924 18.0795 71.7646 18.0795C72.006 18.0795 72.2262 18.0455 72.4251 17.9773C72.6239 17.9062 72.7958 17.8011 72.9407 17.6619C73.0856 17.5227 73.1964 17.3509 73.2731 17.1463L74.479 17.3636C74.3825 17.7187 74.2092 18.0298 73.9592 18.2969C73.712 18.5611 73.4009 18.767 73.0259 18.9148C72.6538 19.0597 72.229 19.1321 71.7518 19.1321ZM77.381 19L75.4549 12.4545H76.7717L78.0543 17.2614H78.1183L79.4052 12.4545H80.7219L82.0004 17.2401H82.0643L83.3384 12.4545H84.6552L82.7333 19H81.4336L80.104 14.2741H80.006L78.6765 19H77.381Z"
        fill="#FF6F00" />
</svg>
