<svg width="311" height="46" viewBox="0 0 311 46" fill="none" xmlns="http://www.w3.org/2000/svg">
<g clip-path="url(#clip0_2376_2887)">
<circle cx="18.5" cy="12" r="11" fill="#FF6F00" stroke="#FF6F00" stroke-width="2"/>
<path d="M23.715 7.0103C24.0619 7.12304 24.3182 7.29479 24.4841 7.617C24.5181 7.96792 24.5154 8.26406 24.2919 8.55039C24.1525 8.7049 24.0091 8.85476 23.8632 9.00341C23.7345 9.1351 23.6154 9.2719 23.4987 9.41378C23.3151 9.63597 23.1194 9.84373 22.919 10.0515C22.7692 10.2077 22.6269 10.3672 22.4892 10.5338C22.3056 10.756 22.11 10.9638 21.9095 11.1715C21.7597 11.3277 21.6174 11.4873 21.4797 11.6539C21.2961 11.8761 21.1005 12.0839 20.9001 12.2916C20.7502 12.4478 20.6079 12.6074 20.4702 12.774C20.2866 12.9962 20.091 13.2039 19.8906 13.4117C19.7407 13.5679 19.5984 13.7274 19.4608 13.894C19.3001 14.0885 19.1314 14.2723 18.956 14.4541C18.7787 14.6379 18.6082 14.8238 18.4453 15.0199C17.701 15.9123 17.701 15.9123 17.2044 16C16.6871 15.9119 16.2898 15.4112 15.9341 15.0657C15.8706 15.0043 15.807 14.9429 15.7434 14.8816C15.6107 14.7534 15.4784 14.625 15.3462 14.4964C15.1774 14.3323 15.0078 14.169 14.8379 14.0059C14.7065 13.8796 14.5757 13.7528 14.4451 13.6257C14.3828 13.5653 14.3203 13.5051 14.2576 13.4451C13.5695 12.7852 13.5695 12.7852 13.5 12.3044C13.55 11.9709 13.7008 11.7583 13.9672 11.5478C14.2285 11.3731 14.4614 11.3535 14.7739 11.3972C15.1685 11.54 15.4712 11.9258 15.7589 12.2118C15.9045 12.356 16.0557 12.4895 16.2147 12.6196C16.3763 12.7596 16.5269 12.9106 16.6781 13.061C16.8366 13.2176 17.0017 13.3592 17.1774 13.4974C17.3867 13.4237 17.5033 13.2652 17.6401 13.1036C17.6915 13.044 17.743 12.9844 17.7946 12.9249C17.8202 12.8954 17.8458 12.8658 17.8722 12.8353C17.9771 12.7158 18.0861 12.6006 18.1959 12.4852C18.3502 12.3221 18.4975 12.1559 18.6406 11.9835C18.8164 11.7718 19.0016 11.5718 19.1923 11.3729C19.3352 11.223 19.4704 11.0693 19.602 10.9101C19.7867 10.6871 19.9832 10.4783 20.1845 10.2696C20.3731 10.073 20.5481 9.86814 20.7213 9.65861C20.8625 9.49326 21.0126 9.33657 21.1633 9.1794C21.3061 9.02954 21.4413 8.87585 21.5729 8.71665C21.7574 8.49387 21.9536 8.28506 22.155 8.07677C22.3111 7.91427 22.4577 7.74721 22.6004 7.57325C22.9235 7.18259 23.1816 6.94674 23.715 7.0103Z" fill="#FDFEFE"/>
</g>
<g clip-path="url(#clip1_2376_2887)">
<circle cx="35.5" cy="12" r="1.5" fill="#FF6F00"/>
<circle cx="41.5" cy="12" r="1.5" fill="#FF6F00"/>
<circle cx="47.5" cy="12" r="1.5" fill="#FF6F00"/>
<circle cx="53.5" cy="12" r="1.5" fill="#FF6F00"/>
<circle cx="59.5" cy="12" r="1.5" fill="#FF6F00"/>
<circle cx="65.5" cy="12" r="1.5" fill="#FF6F00"/>
<circle cx="71.5" cy="12" r="1.5" fill="#FF6F00"/>
<circle cx="77.5" cy="12" r="1.5" fill="#FF6F00"/>
<circle cx="83.5" cy="12" r="1.5" fill="#FF6F00"/>
<circle cx="89.5" cy="12" r="1.5" fill="#FF6F00"/>
<circle cx="95.5" cy="12" r="1.5" fill="#FF6F00"/>
<circle cx="101.5" cy="12" r="1.5" fill="#FF6F00"/>
<circle cx="107.5" cy="12" r="1.5" fill="#FF6F00"/>
<circle cx="113.5" cy="12" r="1.5" fill="#FF6F00"/>
</g>
<g clip-path="url(#clip2_2376_2887)">
<circle cx="107.5" cy="12" r="11" fill="#FF6F00" stroke="#FF6F00" stroke-width="2"/>
<path d="M112.715 7.0103C113.062 7.12304 113.318 7.29479 113.484 7.617C113.518 7.96792 113.515 8.26406 113.292 8.55039C113.152 8.7049 113.009 8.85476 112.863 9.00341C112.735 9.1351 112.615 9.2719 112.499 9.41378C112.315 9.63597 112.119 9.84373 111.919 10.0515C111.769 10.2077 111.627 10.3672 111.489 10.5338C111.306 10.756 111.11 10.9638 110.91 11.1715C110.76 11.3277 110.617 11.4873 110.48 11.6539C110.296 11.8761 110.1 12.0839 109.9 12.2916C109.75 12.4478 109.608 12.6074 109.47 12.774C109.287 12.9962 109.091 13.2039 108.891 13.4117C108.741 13.5679 108.598 13.7274 108.461 13.894C108.3 14.0885 108.131 14.2723 107.956 14.4541C107.779 14.6379 107.608 14.8238 107.445 15.0199C106.701 15.9123 106.701 15.9123 106.204 16C105.687 15.9119 105.29 15.4112 104.934 15.0657C104.871 15.0043 104.807 14.9429 104.743 14.8816C104.611 14.7534 104.478 14.625 104.346 14.4964C104.177 14.3323 104.008 14.169 103.838 14.0059C103.707 13.8796 103.576 13.7528 103.445 13.6257C103.383 13.5653 103.32 13.5051 103.258 13.4451C102.57 12.7852 102.57 12.7852 102.5 12.3044C102.55 11.9709 102.701 11.7583 102.967 11.5478C103.228 11.3731 103.461 11.3535 103.774 11.3972C104.169 11.54 104.471 11.9258 104.759 12.2118C104.904 12.356 105.056 12.4895 105.215 12.6196C105.376 12.7596 105.527 12.9106 105.678 13.061C105.837 13.2176 106.002 13.3592 106.177 13.4974C106.387 13.4237 106.503 13.2652 106.64 13.1036C106.692 13.044 106.743 12.9844 106.795 12.9249C106.82 12.8954 106.846 12.8658 106.872 12.8353C106.977 12.7158 107.086 12.6006 107.196 12.4852C107.35 12.3221 107.497 12.1559 107.641 11.9835C107.816 11.7718 108.002 11.5718 108.192 11.3729C108.335 11.223 108.47 11.0693 108.602 10.9101C108.787 10.6871 108.983 10.4783 109.185 10.2696C109.373 10.073 109.548 9.86814 109.721 9.65861C109.863 9.49326 110.013 9.33657 110.163 9.1794C110.306 9.02954 110.441 8.87585 110.573 8.71665C110.757 8.49387 110.954 8.28506 111.155 8.07677C111.311 7.91427 111.458 7.74721 111.6 7.57325C111.923 7.18259 112.182 6.94674 112.715 7.0103Z" fill="#FDFEFE"/>
</g>
<g clip-path="url(#clip3_2376_2887)">
<circle cx="124.5" cy="12" r="1.5" fill="#FF6F00"/>
<circle cx="130.5" cy="12" r="1.5" fill="#FF6F00"/>
<circle cx="136.5" cy="12" r="1.5" fill="#FF6F00"/>
<circle cx="142.5" cy="12" r="1.5" fill="#FF6F00"/>
<circle cx="148.5" cy="12" r="1.5" fill="#FF6F00"/>
<circle cx="154.5" cy="12" r="1.5" fill="#FF6F00"/>
<circle cx="160.5" cy="12" r="1.5" fill="#FF6F00"/>
<circle cx="166.5" cy="12" r="1.5" fill="#FF6F00"/>
<circle cx="172.5" cy="12" r="1.5" fill="#FF6F00"/>
<circle cx="178.5" cy="12" r="1.5" fill="#FF6F00"/>
<circle cx="184.5" cy="12" r="1.5" fill="#FF6F00"/>
<circle cx="190.5" cy="12" r="1.5" fill="#FF6F00"/>
<circle cx="196.5" cy="12" r="1.5" fill="#FF6F00"/>
<circle cx="202.5" cy="12" r="1.5" fill="#FF6F00"/>
</g>
<g clip-path="url(#clip4_2376_2887)">
<circle cx="196.5" cy="12" r="11" fill="#FF6F00" stroke="#FF6F00" stroke-width="2"/>
<path d="M201.715 7.0103C202.062 7.12304 202.318 7.29479 202.484 7.617C202.518 7.96792 202.515 8.26406 202.292 8.55039C202.152 8.7049 202.009 8.85476 201.863 9.00341C201.735 9.1351 201.615 9.2719 201.499 9.41378C201.315 9.63597 201.119 9.84373 200.919 10.0515C200.769 10.2077 200.627 10.3672 200.489 10.5338C200.306 10.756 200.11 10.9638 199.91 11.1715C199.76 11.3277 199.617 11.4873 199.48 11.6539C199.296 11.8761 199.1 12.0839 198.9 12.2916C198.75 12.4478 198.608 12.6074 198.47 12.774C198.287 12.9962 198.091 13.2039 197.891 13.4117C197.741 13.5679 197.598 13.7274 197.461 13.894C197.3 14.0885 197.131 14.2723 196.956 14.4541C196.779 14.6379 196.608 14.8238 196.445 15.0199C195.701 15.9123 195.701 15.9123 195.204 16C194.687 15.9119 194.29 15.4112 193.934 15.0657C193.871 15.0043 193.807 14.9429 193.743 14.8816C193.611 14.7534 193.478 14.625 193.346 14.4964C193.177 14.3323 193.008 14.169 192.838 14.0059C192.707 13.8796 192.576 13.7528 192.445 13.6257C192.383 13.5653 192.32 13.5051 192.258 13.4451C191.57 12.7852 191.57 12.7852 191.5 12.3044C191.55 11.9709 191.701 11.7583 191.967 11.5478C192.228 11.3731 192.461 11.3535 192.774 11.3972C193.169 11.54 193.471 11.9258 193.759 12.2118C193.904 12.356 194.056 12.4895 194.215 12.6196C194.376 12.7596 194.527 12.9106 194.678 13.061C194.837 13.2176 195.002 13.3592 195.177 13.4974C195.387 13.4237 195.503 13.2652 195.64 13.1036C195.692 13.044 195.743 12.9844 195.795 12.9249C195.82 12.8954 195.846 12.8658 195.872 12.8353C195.977 12.7158 196.086 12.6006 196.196 12.4852C196.35 12.3221 196.497 12.1559 196.641 11.9835C196.816 11.7718 197.002 11.5718 197.192 11.3729C197.335 11.223 197.47 11.0693 197.602 10.9101C197.787 10.6871 197.983 10.4783 198.185 10.2696C198.373 10.073 198.548 9.86814 198.721 9.65861C198.863 9.49326 199.013 9.33657 199.163 9.1794C199.306 9.02954 199.441 8.87585 199.573 8.71665C199.757 8.49387 199.954 8.28506 200.155 8.07677C200.311 7.91427 200.458 7.74721 200.6 7.57325C200.923 7.18259 201.182 6.94674 201.715 7.0103Z" fill="#FDFEFE"/>
</g>
<g clip-path="url(#clip5_2376_2887)">
<circle cx="213.5" cy="12" r="1.5" fill="#FF6F00"/>
<circle cx="219.5" cy="12" r="1.5" fill="#FF6F00"/>
<circle cx="225.5" cy="12" r="1.5" fill="#FF6F00"/>
<circle cx="231.5" cy="12" r="1.5" fill="#FF6F00"/>
<circle cx="237.5" cy="12" r="1.5" fill="#FF6F00"/>
<circle cx="243.5" cy="12" r="1.5" fill="#FF6F00"/>
<circle cx="249.5" cy="12" r="1.5" fill="#FF6F00"/>
<circle cx="255.5" cy="12" r="1.5" fill="#FF6F00"/>
<circle cx="261.5" cy="12" r="1.5" fill="#FF6F00"/>
<circle cx="267.5" cy="12" r="1.5" fill="#FF6F00"/>
<circle cx="273.5" cy="12" r="1.5" fill="#FF6F00"/>
<circle cx="279.5" cy="12" r="1.5" fill="#FF6F00"/>
<circle cx="285.5" cy="12" r="1.5" fill="#FF6F00"/>
<circle cx="291.5" cy="12" r="1.5" fill="#FF6F00"/>
</g>
<g clip-path="url(#clip6_2376_2887)">
<circle cx="286.5" cy="12" r="11" fill="white" stroke="#FF6F00" stroke-width="2"/>
<path d="M283.167 5.33331H289.833C290.364 5.33331 290.873 5.54403 291.248 5.9191C291.623 6.29417 291.833 6.80288 291.833 7.33331V16.6666C291.833 17.1971 291.623 17.7058 291.248 18.0809C290.873 18.4559 290.364 18.6666 289.833 18.6666H283.167C282.636 18.6666 282.128 18.4559 281.753 18.0809C281.377 17.7058 281.167 17.1971 281.167 16.6666V7.33331C281.167 6.80288 281.377 6.29417 281.753 5.9191C282.128 5.54403 282.636 5.33331 283.167 5.33331ZM283.167 6.66665C282.99 6.66665 282.82 6.73688 282.695 6.86191C282.57 6.98693 282.5 7.1565 282.5 7.33331V16.6666C282.5 16.8435 282.57 17.013 282.695 17.1381C282.82 17.2631 282.99 17.3333 283.167 17.3333H289.833C290.01 17.3333 290.18 17.2631 290.305 17.1381C290.43 17.013 290.5 16.8435 290.5 16.6666V7.33331C290.5 7.1565 290.43 6.98693 290.305 6.86191C290.18 6.73688 290.01 6.66665 289.833 6.66665H283.167ZM284.5 7.33331H288.5C288.677 7.33331 288.846 7.40355 288.971 7.52857C289.097 7.6536 289.167 7.82317 289.167 7.99998C289.167 8.17679 289.097 8.34636 288.971 8.47138C288.846 8.59641 288.677 8.66665 288.5 8.66665H284.5C284.323 8.66665 284.154 8.59641 284.029 8.47138C283.904 8.34636 283.833 8.17679 283.833 7.99998C283.833 7.82317 283.904 7.6536 284.029 7.52857C284.154 7.40355 284.323 7.33331 284.5 7.33331ZM284.5 15.3333H285.833C286.01 15.3333 286.18 15.4036 286.305 15.5286C286.43 15.6536 286.5 15.8232 286.5 16C286.5 16.1768 286.43 16.3464 286.305 16.4714C286.18 16.5964 286.01 16.6666 285.833 16.6666H284.5C284.323 16.6666 284.154 16.5964 284.029 16.4714C283.904 16.3464 283.833 16.1768 283.833 16C283.833 15.8232 283.904 15.6536 284.029 15.5286C284.154 15.4036 284.323 15.3333 284.5 15.3333ZM284.5 12.6666H288.5C288.677 12.6666 288.846 12.7369 288.971 12.8619C289.097 12.9869 289.167 13.1565 289.167 13.3333C289.167 13.5101 289.097 13.6797 288.971 13.8047C288.846 13.9297 288.677 14 288.5 14H284.5C284.323 14 284.154 13.9297 284.029 13.8047C283.904 13.6797 283.833 13.5101 283.833 13.3333C283.833 13.1565 283.904 12.9869 284.029 12.8619C284.154 12.7369 284.323 12.6666 284.5 12.6666ZM284.5 9.99998H288.5C288.677 9.99998 288.846 10.0702 288.971 10.1952C289.097 10.3203 289.167 10.4898 289.167 10.6666C289.167 10.8435 289.097 11.013 288.971 11.1381C288.846 11.2631 288.677 11.3333 288.5 11.3333H284.5C284.323 11.3333 284.154 11.2631 284.029 11.1381C283.904 11.013 283.833 10.8435 283.833 10.6666C283.833 10.4898 283.904 10.3203 284.029 10.1952C284.154 10.0702 284.323 9.99998 284.5 9.99998Z" fill="#FF6F00"/>
</g>
<path d="M6.51172 36.5653C6.46626 36.1619 6.27876 35.8494 5.94922 35.6278C5.61967 35.4034 5.2049 35.2912 4.7049 35.2912C4.34695 35.2912 4.03729 35.348 3.77592 35.4616C3.51456 35.5724 3.31143 35.7259 3.16655 35.9219C3.0245 36.1151 2.95348 36.3352 2.95348 36.5824C2.95348 36.7898 3.00178 36.9687 3.09837 37.1193C3.1978 37.2699 3.32706 37.3963 3.48615 37.4986C3.64808 37.598 3.82138 37.6818 4.00604 37.75C4.1907 37.8153 4.36825 37.8693 4.53871 37.9119L5.39098 38.1335C5.66939 38.2017 5.9549 38.294 6.24751 38.4105C6.54013 38.527 6.81143 38.6804 7.06143 38.8707C7.31143 39.0611 7.51314 39.2969 7.66655 39.5781C7.8228 39.8594 7.90092 40.196 7.90092 40.5881C7.90092 41.0824 7.77308 41.5213 7.5174 41.9048C7.26456 42.2884 6.89666 42.5909 6.41371 42.8125C5.93359 43.0341 5.35263 43.1449 4.67081 43.1449C4.0174 43.1449 3.45206 43.0412 2.97479 42.8338C2.49751 42.6264 2.12393 42.3324 1.85405 41.9517C1.58416 41.5682 1.43501 41.1136 1.40661 40.5881H2.72763C2.7532 40.9034 2.85547 41.1662 3.03445 41.3764C3.21626 41.5838 3.4478 41.7386 3.72905 41.8409C4.01314 41.9403 4.32422 41.9901 4.66229 41.9901C5.03445 41.9901 5.36541 41.9318 5.65518 41.8153C5.9478 41.696 6.17791 41.5312 6.34553 41.321C6.51314 41.108 6.59695 40.8594 6.59695 40.5753C6.59695 40.3168 6.52308 40.1051 6.37536 39.9403C6.23047 39.7756 6.03303 39.6392 5.78303 39.5312C5.53587 39.4233 5.25604 39.3281 4.94354 39.2457L3.91229 38.9645C3.21342 38.7741 2.65945 38.4943 2.25036 38.125C1.84411 37.7557 1.64098 37.267 1.64098 36.6591C1.64098 36.1562 1.77734 35.7173 2.05007 35.3423C2.3228 34.9673 2.69212 34.6761 3.15803 34.4688C3.62393 34.2585 4.1495 34.1534 4.73473 34.1534C5.32564 34.1534 5.84695 34.2571 6.29865 34.4645C6.7532 34.6719 7.11115 34.9574 7.37251 35.321C7.63388 35.6818 7.77024 36.0966 7.78161 36.5653H6.51172ZM12.4276 36.4545V37.4773H8.85227V36.4545H12.4276ZM9.81108 34.8864H11.0852V41.0781C11.0852 41.3253 11.1222 41.5114 11.196 41.6364C11.2699 41.7585 11.3651 41.8423 11.4815 41.8878C11.6009 41.9304 11.7301 41.9517 11.8693 41.9517C11.9716 41.9517 12.0611 41.9446 12.1378 41.9304C12.2145 41.9162 12.2741 41.9048 12.3168 41.8963L12.5469 42.9489C12.473 42.9773 12.3679 43.0057 12.2315 43.0341C12.0952 43.0653 11.9247 43.0824 11.7202 43.0852C11.3849 43.0909 11.0724 43.0312 10.7827 42.9062C10.4929 42.7812 10.2585 42.5881 10.0795 42.3267C9.90057 42.0653 9.81108 41.7372 9.81108 41.3423V34.8864ZM16.5877 43.1321C15.9428 43.1321 15.3874 42.9943 14.9215 42.7188C14.4585 42.4403 14.1005 42.0497 13.8477 41.5469C13.5977 41.0412 13.4727 40.4489 13.4727 39.7699C13.4727 39.0994 13.5977 38.5085 13.8477 37.9972C14.1005 37.4858 14.4528 37.0866 14.9045 36.7997C15.359 36.5128 15.8903 36.3693 16.4982 36.3693C16.8675 36.3693 17.2255 36.4304 17.5721 36.5526C17.9187 36.6747 18.2298 36.8665 18.5053 37.1278C18.7809 37.3892 18.9982 37.7287 19.1573 38.1463C19.3164 38.5611 19.396 39.0653 19.396 39.6591V40.1108H14.1928V39.1562H18.1474C18.1474 38.821 18.0792 38.5241 17.9428 38.2656C17.8065 38.0043 17.6147 37.7983 17.3675 37.6477C17.1232 37.4972 16.8363 37.4219 16.5067 37.4219C16.1488 37.4219 15.8363 37.5099 15.5692 37.6861C15.305 37.8594 15.1005 38.0866 14.9556 38.3679C14.8136 38.6463 14.7425 38.9489 14.7425 39.2756V40.0213C14.7425 40.4588 14.8192 40.831 14.9727 41.1378C15.1289 41.4446 15.3462 41.679 15.6246 41.8409C15.9031 42 16.2283 42.0795 16.6005 42.0795C16.842 42.0795 17.0621 42.0455 17.261 41.9773C17.4599 41.9062 17.6317 41.8011 17.7766 41.6619C17.9215 41.5227 18.0323 41.3509 18.109 41.1463L19.315 41.3636C19.2184 41.7187 19.0451 42.0298 18.7951 42.2969C18.5479 42.5611 18.2369 42.767 17.8619 42.9148C17.4897 43.0597 17.065 43.1321 16.5877 43.1321ZM20.8097 45.4545V36.4545H22.054V37.5156H22.1605C22.2344 37.3793 22.3409 37.2216 22.4801 37.0426C22.6193 36.8636 22.8125 36.7074 23.0597 36.5739C23.3068 36.4375 23.6335 36.3693 24.0398 36.3693C24.5682 36.3693 25.0398 36.5028 25.4545 36.7699C25.8693 37.0369 26.1946 37.4219 26.4304 37.9247C26.669 38.4276 26.7884 39.0327 26.7884 39.7401C26.7884 40.4474 26.6705 41.054 26.4347 41.5597C26.1989 42.0625 25.875 42.4503 25.4631 42.723C25.0511 42.9929 24.581 43.1278 24.0526 43.1278C23.6548 43.1278 23.3295 43.0611 23.0767 42.9276C22.8267 42.794 22.6307 42.6378 22.4886 42.4588C22.3466 42.2798 22.2372 42.1207 22.1605 41.9815H22.0838V45.4545H20.8097ZM22.0582 39.7273C22.0582 40.1875 22.125 40.5909 22.2585 40.9375C22.392 41.2841 22.5852 41.5554 22.8381 41.7514C23.0909 41.9446 23.4006 42.0412 23.767 42.0412C24.1477 42.0412 24.4659 41.9403 24.7216 41.7386C24.9773 41.5341 25.1705 41.2571 25.3011 40.9077C25.4347 40.5582 25.5014 40.1648 25.5014 39.7273C25.5014 39.2955 25.4361 38.9077 25.3054 38.5639C25.1776 38.2202 24.9844 37.9489 24.7259 37.75C24.4702 37.5511 24.1506 37.4517 23.767 37.4517C23.3977 37.4517 23.0852 37.5469 22.8295 37.7372C22.5767 37.9276 22.3849 38.1932 22.2543 38.5341C22.1236 38.875 22.0582 39.2727 22.0582 39.7273ZM34.6857 34.2727V43H33.3647V35.5938H33.3136L31.2255 36.9574V35.696L33.4031 34.2727H34.6857Z" fill="#FF6F00"/>
<path d="M94.668 36.5653C94.6225 36.1619 94.435 35.8494 94.1055 35.6278C93.7759 35.4034 93.3612 35.2912 92.8612 35.2912C92.5032 35.2912 92.1935 35.348 91.9322 35.4616C91.6708 35.5724 91.4677 35.7259 91.3228 35.9219C91.1808 36.1151 91.1097 36.3352 91.1097 36.5824C91.1097 36.7898 91.158 36.9687 91.2546 37.1193C91.354 37.2699 91.4833 37.3963 91.6424 37.4986C91.8043 37.598 91.9776 37.6818 92.1623 37.75C92.3469 37.8153 92.5245 37.8693 92.695 37.9119L93.5472 38.1335C93.8256 38.2017 94.1112 38.294 94.4038 38.4105C94.6964 38.527 94.9677 38.6804 95.2177 38.8707C95.4677 39.0611 95.6694 39.2969 95.8228 39.5781C95.979 39.8594 96.0572 40.196 96.0572 40.5881C96.0572 41.0824 95.9293 41.5213 95.6737 41.9048C95.4208 42.2884 95.0529 42.5909 94.57 42.8125C94.0898 43.0341 93.5089 43.1449 92.8271 43.1449C92.1737 43.1449 91.6083 43.0412 91.131 42.8338C90.6538 42.6264 90.2802 42.3324 90.0103 41.9517C89.7404 41.5682 89.5913 41.1136 89.5629 40.5881H90.8839C90.9094 40.9034 91.0117 41.1662 91.1907 41.3764C91.3725 41.5838 91.604 41.7386 91.8853 41.8409C92.1694 41.9403 92.4805 41.9901 92.8185 41.9901C93.1907 41.9901 93.5217 41.9318 93.8114 41.8153C94.104 41.696 94.3342 41.5312 94.5018 41.321C94.6694 41.108 94.7532 40.8594 94.7532 40.5753C94.7532 40.3168 94.6793 40.1051 94.5316 39.9403C94.3867 39.7756 94.1893 39.6392 93.9393 39.5312C93.6921 39.4233 93.4123 39.3281 93.0998 39.2457L92.0685 38.9645C91.3697 38.7741 90.8157 38.4943 90.4066 38.125C90.0004 37.7557 89.7972 37.267 89.7972 36.6591C89.7972 36.1562 89.9336 35.7173 90.2063 35.3423C90.479 34.9673 90.8484 34.6761 91.3143 34.4688C91.7802 34.2585 92.3058 34.1534 92.891 34.1534C93.4819 34.1534 94.0032 34.2571 94.4549 34.4645C94.9094 34.6719 95.2674 34.9574 95.5288 35.321C95.7901 35.6818 95.9265 36.0966 95.9379 36.5653H94.668ZM100.584 36.4545V37.4773H97.0085V36.4545H100.584ZM97.9673 34.8864H99.2415V41.0781C99.2415 41.3253 99.2784 41.5114 99.3523 41.6364C99.4261 41.7585 99.5213 41.8423 99.6378 41.8878C99.7571 41.9304 99.8864 41.9517 100.026 41.9517C100.128 41.9517 100.217 41.9446 100.294 41.9304C100.371 41.9162 100.43 41.9048 100.473 41.8963L100.703 42.9489C100.629 42.9773 100.524 43.0057 100.388 43.0341C100.251 43.0653 100.081 43.0824 99.8764 43.0852C99.5412 43.0909 99.2287 43.0312 98.9389 42.9062C98.6491 42.7812 98.4148 42.5881 98.2358 42.3267C98.0568 42.0653 97.9673 41.7372 97.9673 41.3423V34.8864ZM104.744 43.1321C104.099 43.1321 103.544 42.9943 103.078 42.7188C102.615 42.4403 102.257 42.0497 102.004 41.5469C101.754 41.0412 101.629 40.4489 101.629 39.7699C101.629 39.0994 101.754 38.5085 102.004 37.9972C102.257 37.4858 102.609 37.0866 103.061 36.7997C103.515 36.5128 104.047 36.3693 104.654 36.3693C105.024 36.3693 105.382 36.4304 105.728 36.5526C106.075 36.6747 106.386 36.8665 106.662 37.1278C106.937 37.3892 107.154 37.7287 107.314 38.1463C107.473 38.5611 107.552 39.0653 107.552 39.6591V40.1108H102.349V39.1562H106.304C106.304 38.821 106.235 38.5241 106.099 38.2656C105.963 38.0043 105.771 37.7983 105.524 37.6477C105.279 37.4972 104.993 37.4219 104.663 37.4219C104.305 37.4219 103.993 37.5099 103.725 37.6861C103.461 37.8594 103.257 38.0866 103.112 38.3679C102.97 38.6463 102.899 38.9489 102.899 39.2756V40.0213C102.899 40.4588 102.975 40.831 103.129 41.1378C103.285 41.4446 103.502 41.679 103.781 41.8409C104.059 42 104.385 42.0795 104.757 42.0795C104.998 42.0795 105.218 42.0455 105.417 41.9773C105.616 41.9062 105.788 41.8011 105.933 41.6619C106.078 41.5227 106.189 41.3509 106.265 41.1463L107.471 41.3636C107.375 41.7187 107.201 42.0298 106.951 42.2969C106.704 42.5611 106.393 42.767 106.018 42.9148C105.646 43.0597 105.221 43.1321 104.744 43.1321ZM108.966 45.4545V36.4545H110.21V37.5156H110.317C110.391 37.3793 110.497 37.2216 110.636 37.0426C110.776 36.8636 110.969 36.7074 111.216 36.5739C111.463 36.4375 111.79 36.3693 112.196 36.3693C112.724 36.3693 113.196 36.5028 113.611 36.7699C114.026 37.0369 114.351 37.4219 114.587 37.9247C114.825 38.4276 114.945 39.0327 114.945 39.7401C114.945 40.4474 114.827 41.054 114.591 41.5597C114.355 42.0625 114.031 42.4503 113.619 42.723C113.207 42.9929 112.737 43.1278 112.209 43.1278C111.811 43.1278 111.486 43.0611 111.233 42.9276C110.983 42.794 110.787 42.6378 110.645 42.4588C110.503 42.2798 110.393 42.1207 110.317 41.9815H110.24V45.4545H108.966ZM110.214 39.7273C110.214 40.1875 110.281 40.5909 110.415 40.9375C110.548 41.2841 110.741 41.5554 110.994 41.7514C111.247 41.9446 111.557 42.0412 111.923 42.0412C112.304 42.0412 112.622 41.9403 112.878 41.7386C113.134 41.5341 113.327 41.2571 113.457 40.9077C113.591 40.5582 113.658 40.1648 113.658 39.7273C113.658 39.2955 113.592 38.9077 113.462 38.5639C113.334 38.2202 113.141 37.9489 112.882 37.75C112.626 37.5511 112.307 37.4517 111.923 37.4517C111.554 37.4517 111.241 37.5469 110.986 37.7372C110.733 37.9276 110.541 38.1932 110.411 38.5341C110.28 38.875 110.214 39.2727 110.214 39.7273ZM119.531 43V42.0455L122.484 38.9858C122.799 38.6534 123.059 38.3622 123.264 38.1122C123.471 37.8594 123.626 37.6193 123.728 37.392C123.831 37.1648 123.882 36.9233 123.882 36.6676C123.882 36.3778 123.814 36.1278 123.677 35.9176C123.541 35.7045 123.355 35.5412 123.119 35.4276C122.883 35.3111 122.618 35.2528 122.322 35.2528C122.01 35.2528 121.737 35.3168 121.504 35.4446C121.271 35.5724 121.092 35.7528 120.967 35.9858C120.842 36.2187 120.779 36.4915 120.779 36.804H119.522C119.522 36.2727 119.645 35.8082 119.889 35.4105C120.133 35.0128 120.468 34.7045 120.895 34.4858C121.321 34.2642 121.805 34.1534 122.348 34.1534C122.896 34.1534 123.379 34.2628 123.797 34.4815C124.217 34.6974 124.545 34.9929 124.781 35.3679C125.017 35.7401 125.135 36.1605 125.135 36.6293C125.135 36.9531 125.074 37.2699 124.951 37.5795C124.832 37.8892 124.623 38.2344 124.325 38.6151C124.027 38.9929 123.612 39.4517 123.081 39.9915L121.346 41.8068V41.8707H125.275V43H119.531Z" fill="#FF6F00"/>
<path d="M184.48 36.5653C184.435 36.1619 184.248 35.8494 183.918 35.6278C183.588 35.4034 183.174 35.2912 182.674 35.2912C182.316 35.2912 182.006 35.348 181.745 35.4616C181.483 35.5724 181.28 35.7259 181.135 35.9219C180.993 36.1151 180.922 36.3352 180.922 36.5824C180.922 36.7898 180.971 36.9687 181.067 37.1193C181.167 37.2699 181.296 37.3963 181.455 37.4986C181.617 37.598 181.79 37.6818 181.975 37.75C182.159 37.8153 182.337 37.8693 182.507 37.9119L183.36 38.1335C183.638 38.2017 183.924 38.294 184.216 38.4105C184.509 38.527 184.78 38.6804 185.03 38.8707C185.28 39.0611 185.482 39.2969 185.635 39.5781C185.792 39.8594 185.87 40.196 185.87 40.5881C185.87 41.0824 185.742 41.5213 185.486 41.9048C185.233 42.2884 184.865 42.5909 184.382 42.8125C183.902 43.0341 183.321 43.1449 182.64 43.1449C181.986 43.1449 181.421 43.0412 180.944 42.8338C180.466 42.6264 180.093 42.3324 179.823 41.9517C179.553 41.5682 179.404 41.1136 179.375 40.5881H180.696C180.722 40.9034 180.824 41.1662 181.003 41.3764C181.185 41.5838 181.417 41.7386 181.698 41.8409C181.982 41.9403 182.293 41.9901 182.631 41.9901C183.003 41.9901 183.334 41.9318 183.624 41.8153C183.917 41.696 184.147 41.5312 184.314 41.321C184.482 41.108 184.566 40.8594 184.566 40.5753C184.566 40.3168 184.492 40.1051 184.344 39.9403C184.199 39.7756 184.002 39.6392 183.752 39.5312C183.505 39.4233 183.225 39.3281 182.912 39.2457L181.881 38.9645C181.182 38.7741 180.628 38.4943 180.219 38.125C179.813 37.7557 179.61 37.267 179.61 36.6591C179.61 36.1562 179.746 35.7173 180.019 35.3423C180.292 34.9673 180.661 34.6761 181.127 34.4688C181.593 34.2585 182.118 34.1534 182.703 34.1534C183.294 34.1534 183.816 34.2571 184.267 34.4645C184.722 34.6719 185.08 34.9574 185.341 35.321C185.603 35.6818 185.739 36.0966 185.75 36.5653H184.48ZM190.396 36.4545V37.4773H186.821V36.4545H190.396ZM187.78 34.8864H189.054V41.0781C189.054 41.3253 189.091 41.5114 189.165 41.6364C189.239 41.7585 189.334 41.8423 189.45 41.8878C189.57 41.9304 189.699 41.9517 189.838 41.9517C189.94 41.9517 190.03 41.9446 190.107 41.9304C190.183 41.9162 190.243 41.9048 190.286 41.8963L190.516 42.9489C190.442 42.9773 190.337 43.0057 190.2 43.0341C190.064 43.0653 189.893 43.0824 189.689 43.0852C189.354 43.0909 189.041 43.0312 188.751 42.9062C188.462 42.7812 188.227 42.5881 188.048 42.3267C187.869 42.0653 187.78 41.7372 187.78 41.3423V34.8864ZM194.556 43.1321C193.912 43.1321 193.356 42.9943 192.89 42.7188C192.427 42.4403 192.069 42.0497 191.816 41.5469C191.566 41.0412 191.441 40.4489 191.441 39.7699C191.441 39.0994 191.566 38.5085 191.816 37.9972C192.069 37.4858 192.422 37.0866 192.873 36.7997C193.328 36.5128 193.859 36.3693 194.467 36.3693C194.836 36.3693 195.194 36.4304 195.541 36.5526C195.887 36.6747 196.199 36.8665 196.474 37.1278C196.75 37.3892 196.967 37.7287 197.126 38.1463C197.285 38.5611 197.365 39.0653 197.365 39.6591V40.1108H192.162V39.1562H196.116C196.116 38.821 196.048 38.5241 195.912 38.2656C195.775 38.0043 195.583 37.7983 195.336 37.6477C195.092 37.4972 194.805 37.4219 194.475 37.4219C194.118 37.4219 193.805 37.5099 193.538 37.6861C193.274 37.8594 193.069 38.0866 192.924 38.3679C192.782 38.6463 192.711 38.9489 192.711 39.2756V40.0213C192.711 40.4588 192.788 40.831 192.941 41.1378C193.098 41.4446 193.315 41.679 193.593 41.8409C193.872 42 194.197 42.0795 194.569 42.0795C194.811 42.0795 195.031 42.0455 195.23 41.9773C195.429 41.9062 195.6 41.8011 195.745 41.6619C195.89 41.5227 196.001 41.3509 196.078 41.1463L197.284 41.3636C197.187 41.7187 197.014 42.0298 196.764 42.2969C196.517 42.5611 196.206 42.767 195.831 42.9148C195.458 43.0597 195.034 43.1321 194.556 43.1321ZM198.778 45.4545V36.4545H200.023V37.5156H200.129C200.203 37.3793 200.31 37.2216 200.449 37.0426C200.588 36.8636 200.781 36.7074 201.028 36.5739C201.276 36.4375 201.602 36.3693 202.009 36.3693C202.537 36.3693 203.009 36.5028 203.423 36.7699C203.838 37.0369 204.163 37.4219 204.399 37.9247C204.638 38.4276 204.757 39.0327 204.757 39.7401C204.757 40.4474 204.639 41.054 204.403 41.5597C204.168 42.0625 203.844 42.4503 203.432 42.723C203.02 42.9929 202.55 43.1278 202.021 43.1278C201.624 43.1278 201.298 43.0611 201.045 42.9276C200.795 42.794 200.599 42.6378 200.457 42.4588C200.315 42.2798 200.206 42.1207 200.129 41.9815H200.053V45.4545H198.778ZM200.027 39.7273C200.027 40.1875 200.094 40.5909 200.227 40.9375C200.361 41.2841 200.554 41.5554 200.807 41.7514C201.06 41.9446 201.369 42.0412 201.736 42.0412C202.116 42.0412 202.435 41.9403 202.69 41.7386C202.946 41.5341 203.139 41.2571 203.27 40.9077C203.403 40.5582 203.47 40.1648 203.47 39.7273C203.47 39.2955 203.405 38.9077 203.274 38.5639C203.146 38.2202 202.953 37.9489 202.695 37.75C202.439 37.5511 202.119 37.4517 201.736 37.4517C201.366 37.4517 201.054 37.5469 200.798 37.7372C200.545 37.9276 200.354 38.1932 200.223 38.5341C200.092 38.875 200.027 39.2727 200.027 39.7273ZM212.382 43.1193C211.797 43.1193 211.274 43.0185 210.814 42.8168C210.356 42.6151 209.994 42.3352 209.727 41.9773C209.463 41.6165 209.321 41.1989 209.301 40.7244H210.639C210.656 40.983 210.743 41.2074 210.899 41.3977C211.058 41.5852 211.265 41.7301 211.521 41.8324C211.777 41.9347 212.061 41.9858 212.373 41.9858C212.717 41.9858 213.021 41.9261 213.285 41.8068C213.552 41.6875 213.761 41.5213 213.912 41.3082C214.062 41.0923 214.137 40.8438 214.137 40.5625C214.137 40.2699 214.062 40.0128 213.912 39.7912C213.764 39.5668 213.547 39.3906 213.26 39.2628C212.975 39.1349 212.632 39.071 212.228 39.071H211.491V37.9972H212.228C212.552 37.9972 212.836 37.9389 213.081 37.8224C213.328 37.706 213.521 37.544 213.66 37.3366C213.799 37.1264 213.869 36.8807 213.869 36.5994C213.869 36.3295 213.808 36.0952 213.686 35.8963C213.566 35.6946 213.396 35.5369 213.174 35.4233C212.956 35.3097 212.697 35.2528 212.399 35.2528C212.115 35.2528 211.849 35.3054 211.602 35.4105C211.358 35.5128 211.159 35.6605 211.005 35.8537C210.852 36.044 210.77 36.2727 210.758 36.5398H209.484C209.498 36.0682 209.637 35.6534 209.902 35.2955C210.169 34.9375 210.521 34.6577 210.958 34.456C211.396 34.2543 211.882 34.1534 212.416 34.1534C212.975 34.1534 213.458 34.2628 213.865 34.4815C214.274 34.6974 214.589 34.9858 214.811 35.3466C215.035 35.7074 215.146 36.1023 215.143 36.5312C215.146 37.0199 215.01 37.4347 214.734 37.7756C214.461 38.1165 214.098 38.3452 213.643 38.4616V38.5298C214.223 38.6179 214.672 38.848 214.99 39.2202C215.311 39.5923 215.47 40.054 215.467 40.6051C215.47 41.0852 215.336 41.5156 215.066 41.8963C214.799 42.277 214.434 42.5767 213.971 42.7955C213.508 43.0114 212.978 43.1193 212.382 43.1193Z" fill="#FF6F00"/>
<path d="M274.422 36.5653C274.376 36.1619 274.189 35.8494 273.859 35.6278C273.53 35.4034 273.115 35.2912 272.615 35.2912C272.257 35.2912 271.947 35.348 271.686 35.4616C271.425 35.5724 271.222 35.7259 271.077 35.9219C270.935 36.1151 270.864 36.3352 270.864 36.5824C270.864 36.7898 270.912 36.9687 271.009 37.1193C271.108 37.2699 271.237 37.3963 271.396 37.4986C271.558 37.598 271.732 37.6818 271.916 37.75C272.101 37.8153 272.278 37.8693 272.449 37.9119L273.301 38.1335C273.58 38.2017 273.865 38.294 274.158 38.4105C274.45 38.527 274.722 38.6804 274.972 38.8707C275.222 39.0611 275.423 39.2969 275.577 39.5781C275.733 39.8594 275.811 40.196 275.811 40.5881C275.811 41.0824 275.683 41.5213 275.428 41.9048C275.175 42.2884 274.807 42.5909 274.324 42.8125C273.844 43.0341 273.263 43.1449 272.581 43.1449C271.928 43.1449 271.362 43.0412 270.885 42.8338C270.408 42.6264 270.034 42.3324 269.764 41.9517C269.494 41.5682 269.345 41.1136 269.317 40.5881H270.638C270.663 40.9034 270.766 41.1662 270.945 41.3764C271.126 41.5838 271.358 41.7386 271.639 41.8409C271.923 41.9403 272.234 41.9901 272.572 41.9901C272.945 41.9901 273.276 41.9318 273.565 41.8153C273.858 41.696 274.088 41.5312 274.256 41.321C274.423 41.108 274.507 40.8594 274.507 40.5753C274.507 40.3168 274.433 40.1051 274.286 39.9403C274.141 39.7756 273.943 39.6392 273.693 39.5312C273.446 39.4233 273.166 39.3281 272.854 39.2457L271.822 38.9645C271.124 38.7741 270.57 38.4943 270.161 38.125C269.754 37.7557 269.551 37.267 269.551 36.6591C269.551 36.1562 269.688 35.7173 269.96 35.3423C270.233 34.9673 270.602 34.6761 271.068 34.4688C271.534 34.2585 272.06 34.1534 272.645 34.1534C273.236 34.1534 273.757 34.2571 274.209 34.4645C274.663 34.6719 275.021 34.9574 275.283 35.321C275.544 35.6818 275.68 36.0966 275.692 36.5653H274.422ZM280.338 36.4545V37.4773H276.762V36.4545H280.338ZM277.721 34.8864H278.995V41.0781C278.995 41.3253 279.032 41.5114 279.106 41.6364C279.18 41.7585 279.275 41.8423 279.392 41.8878C279.511 41.9304 279.64 41.9517 279.779 41.9517C279.882 41.9517 279.971 41.9446 280.048 41.9304C280.125 41.9162 280.184 41.9048 280.227 41.8963L280.457 42.9489C280.383 42.9773 280.278 43.0057 280.142 43.0341C280.005 43.0653 279.835 43.0824 279.63 43.0852C279.295 43.0909 278.983 43.0312 278.693 42.9062C278.403 42.7812 278.169 42.5881 277.99 42.3267C277.811 42.0653 277.721 41.7372 277.721 41.3423V34.8864ZM284.498 43.1321C283.853 43.1321 283.298 42.9943 282.832 42.7188C282.369 42.4403 282.011 42.0497 281.758 41.5469C281.508 41.0412 281.383 40.4489 281.383 39.7699C281.383 39.0994 281.508 38.5085 281.758 37.9972C282.011 37.4858 282.363 37.0866 282.815 36.7997C283.269 36.5128 283.8 36.3693 284.408 36.3693C284.778 36.3693 285.136 36.4304 285.482 36.5526C285.829 36.6747 286.14 36.8665 286.415 37.1278C286.691 37.3892 286.908 37.7287 287.067 38.1463C287.227 38.5611 287.306 39.0653 287.306 39.6591V40.1108H282.103V39.1562H286.058C286.058 38.821 285.989 38.5241 285.853 38.2656C285.717 38.0043 285.525 37.7983 285.278 37.6477C285.033 37.4972 284.746 37.4219 284.417 37.4219C284.059 37.4219 283.746 37.5099 283.479 37.6861C283.215 37.8594 283.011 38.0866 282.866 38.3679C282.724 38.6463 282.653 38.9489 282.653 39.2756V40.0213C282.653 40.4588 282.729 40.831 282.883 41.1378C283.039 41.4446 283.256 41.679 283.535 41.8409C283.813 42 284.138 42.0795 284.511 42.0795C284.752 42.0795 284.972 42.0455 285.171 41.9773C285.37 41.9062 285.542 41.8011 285.687 41.6619C285.832 41.5227 285.942 41.3509 286.019 41.1463L287.225 41.3636C287.129 41.7187 286.955 42.0298 286.705 42.2969C286.458 42.5611 286.147 42.767 285.772 42.9148C285.4 43.0597 284.975 43.1321 284.498 43.1321ZM288.72 45.4545V36.4545H289.964V37.5156H290.071C290.145 37.3793 290.251 37.2216 290.39 37.0426C290.529 36.8636 290.723 36.7074 290.97 36.5739C291.217 36.4375 291.544 36.3693 291.95 36.3693C292.478 36.3693 292.95 36.5028 293.365 36.7699C293.779 37.0369 294.105 37.4219 294.341 37.9247C294.579 38.4276 294.699 39.0327 294.699 39.7401C294.699 40.4474 294.581 41.054 294.345 41.5597C294.109 42.0625 293.785 42.4503 293.373 42.723C292.961 42.9929 292.491 43.1278 291.963 43.1278C291.565 43.1278 291.24 43.0611 290.987 42.9276C290.737 42.794 290.541 42.6378 290.399 42.4588C290.257 42.2798 290.147 42.1207 290.071 41.9815H289.994V45.4545H288.72ZM289.968 39.7273C289.968 40.1875 290.035 40.5909 290.169 40.9375C290.302 41.2841 290.495 41.5554 290.748 41.7514C291.001 41.9446 291.311 42.0412 291.677 42.0412C292.058 42.0412 292.376 41.9403 292.632 41.7386C292.887 41.5341 293.081 41.2571 293.211 40.9077C293.345 40.5582 293.412 40.1648 293.412 39.7273C293.412 39.2955 293.346 38.9077 293.216 38.5639C293.088 38.2202 292.895 37.9489 292.636 37.75C292.38 37.5511 292.061 37.4517 291.677 37.4517C291.308 37.4517 290.995 37.5469 290.74 37.7372C290.487 37.9276 290.295 38.1932 290.164 38.5341C290.034 38.875 289.968 39.2727 289.968 39.7273ZM299.102 41.2955V40.2301L302.873 34.2727H303.712V35.8409H303.18L300.482 40.1108V40.179H305.651V41.2955H299.102ZM303.239 43V40.9716L303.248 40.4858V34.2727H304.496V43H303.239Z" fill="#FF6F00"/>
<defs>
<clipPath id="clip0_2376_2887">
<rect width="24" height="24" fill="white" transform="translate(6.5)"/>
</clipPath>
<clipPath id="clip1_2376_2887">
<rect width="81" height="22" fill="white" transform="translate(34 1)"/>
</clipPath>
<clipPath id="clip2_2376_2887">
<rect width="24" height="24" fill="white" transform="translate(95.5)"/>
</clipPath>
<clipPath id="clip3_2376_2887">
<rect width="81" height="22" fill="white" transform="translate(123 1)"/>
</clipPath>
<clipPath id="clip4_2376_2887">
<rect width="24" height="24" fill="white" transform="translate(184.5)"/>
</clipPath>
<clipPath id="clip5_2376_2887">
<rect width="81" height="22" fill="white" transform="translate(212 1)"/>
</clipPath>
<clipPath id="clip6_2376_2887">
<rect width="24" height="24" fill="white" transform="translate(274.5)"/>
</clipPath>
</defs>
</svg>
