<svg width="391" height="76" viewBox="0 0 391 76" fill="none" xmlns="http://www.w3.org/2000/svg">
    <rect x="0.5" y="0.5" width="390" height="75" rx="13.5" stroke="#FF6F00" />
    <path
        d="M25.0455 21.3636H26.4545V29.0682C26.4545 29.8636 26.267 30.5739 25.892 31.1989C25.5208 31.8201 24.9962 32.3106 24.3182 32.6705C23.6402 33.0265 22.8447 33.2045 21.9318 33.2045C21.0189 33.2045 20.2235 33.0265 19.5455 32.6705C18.8674 32.3106 18.3409 31.8201 17.9659 31.1989C17.5947 30.5739 17.4091 29.8636 17.4091 29.0682V21.3636H18.8182V28.9545C18.8182 29.5227 18.9432 30.0284 19.1932 30.4716C19.4432 30.911 19.7992 31.2576 20.2614 31.5114C20.7273 31.7614 21.2841 31.8864 21.9318 31.8864C22.5795 31.8864 23.1364 31.7614 23.6023 31.5114C24.0682 31.2576 24.4242 30.911 24.6705 30.4716C24.9205 30.0284 25.0455 29.5227 25.0455 28.9545V21.3636ZM29.0866 36.2727V24.2727H30.3821V25.6591H30.5412C30.6397 25.5076 30.776 25.3144 30.9503 25.0795C31.1283 24.8409 31.3821 24.6288 31.7116 24.4432C32.045 24.2538 32.4957 24.1591 33.0639 24.1591C33.7988 24.1591 34.4465 24.3428 35.0071 24.7102C35.5677 25.0777 36.0052 25.5985 36.3196 26.2727C36.634 26.947 36.7912 27.7424 36.7912 28.6591C36.7912 29.5833 36.634 30.3845 36.3196 31.0625C36.0052 31.7367 35.5696 32.2595 35.0128 32.6307C34.456 32.9981 33.8139 33.1818 33.0866 33.1818C32.526 33.1818 32.0772 33.089 31.7401 32.9034C31.4029 32.714 31.1435 32.5 30.9616 32.2614C30.7798 32.0189 30.6397 31.8182 30.5412 31.6591H30.4276V36.2727H29.0866ZM30.4048 28.6364C30.4048 29.2955 30.5014 29.8769 30.6946 30.3807C30.8878 30.8807 31.17 31.2727 31.5412 31.5568C31.9124 31.8371 32.367 31.9773 32.9048 31.9773C33.4654 31.9773 33.9332 31.8295 34.3082 31.5341C34.687 31.2348 34.9711 30.8333 35.1605 30.3295C35.3537 29.822 35.4503 29.2576 35.4503 28.6364C35.4503 28.0227 35.3556 27.4697 35.1662 26.9773C34.9806 26.4811 34.6984 26.089 34.3196 25.8011C33.9446 25.5095 33.473 25.3636 32.9048 25.3636C32.3594 25.3636 31.901 25.5019 31.5298 25.7784C31.1586 26.0511 30.8783 26.4337 30.6889 26.9261C30.4995 27.4148 30.4048 27.9848 30.4048 28.6364ZM40.1776 21.3636V33H38.8366V21.3636H40.1776ZM46.179 33.1818C45.3911 33.1818 44.6998 32.9943 44.1051 32.6193C43.5142 32.2443 43.0521 31.7197 42.7188 31.0455C42.3892 30.3712 42.2244 29.5833 42.2244 28.6818C42.2244 27.7727 42.3892 26.9792 42.7188 26.3011C43.0521 25.6231 43.5142 25.0966 44.1051 24.7216C44.6998 24.3466 45.3911 24.1591 46.179 24.1591C46.9669 24.1591 47.6563 24.3466 48.2472 24.7216C48.8419 25.0966 49.304 25.6231 49.6335 26.3011C49.9669 26.9792 50.1335 27.7727 50.1335 28.6818C50.1335 29.5833 49.9669 30.3712 49.6335 31.0455C49.304 31.7197 48.8419 32.2443 48.2472 32.6193C47.6563 32.9943 46.9669 33.1818 46.179 33.1818ZM46.179 31.9773C46.7775 31.9773 47.2699 31.8239 47.6562 31.517C48.0426 31.2102 48.3286 30.8068 48.5142 30.3068C48.6998 29.8068 48.7926 29.2652 48.7926 28.6818C48.7926 28.0985 48.6998 27.5549 48.5142 27.0511C48.3286 26.5473 48.0426 26.1402 47.6562 25.8295C47.2699 25.5189 46.7775 25.3636 46.179 25.3636C45.5805 25.3636 45.0881 25.5189 44.7017 25.8295C44.3153 26.1402 44.0294 26.5473 43.8438 27.0511C43.6581 27.5549 43.5653 28.0985 43.5653 28.6818C43.5653 29.2652 43.6581 29.8068 43.8438 30.3068C44.0294 30.8068 44.3153 31.2102 44.7017 31.517C45.0881 31.8239 45.5805 31.9773 46.179 31.9773ZM54.7486 33.2045C54.1955 33.2045 53.6937 33.1004 53.2429 32.892C52.7921 32.6799 52.4342 32.375 52.169 31.9773C51.9039 31.5758 51.7713 31.0909 51.7713 30.5227C51.7713 30.0227 51.8698 29.6174 52.0668 29.3068C52.2637 28.9924 52.527 28.7462 52.8565 28.5682C53.1861 28.3902 53.5497 28.2576 53.9474 28.1705C54.349 28.0795 54.7524 28.0076 55.1577 27.9545C55.688 27.8864 56.1179 27.8352 56.4474 27.8011C56.7808 27.7633 57.0232 27.7008 57.1747 27.6136C57.33 27.5265 57.4077 27.375 57.4077 27.1591V27.1136C57.4077 26.553 57.2543 26.1174 56.9474 25.8068C56.6444 25.4962 56.1842 25.3409 55.5668 25.3409C54.9266 25.3409 54.4247 25.4811 54.0611 25.7614C53.6974 26.0417 53.4418 26.3409 53.294 26.6591L52.0213 26.2045C52.2486 25.6742 52.5516 25.2614 52.9304 24.9659C53.313 24.6667 53.7296 24.4583 54.1804 24.3409C54.6349 24.2197 55.0819 24.1591 55.5213 24.1591C55.8016 24.1591 56.1236 24.1932 56.4872 24.2614C56.8546 24.3258 57.2088 24.4602 57.5497 24.6648C57.8944 24.8693 58.1804 25.178 58.4077 25.5909C58.6349 26.0038 58.7486 26.5568 58.7486 27.25V33H57.4077V31.8182H57.3395C57.2486 32.0076 57.0971 32.2102 56.8849 32.4261C56.6728 32.642 56.3906 32.8258 56.0384 32.9773C55.6861 33.1288 55.2562 33.2045 54.7486 33.2045ZM54.9531 32C55.4834 32 55.9304 31.8958 56.294 31.6875C56.6615 31.4792 56.938 31.2102 57.1236 30.8807C57.313 30.5511 57.4077 30.2045 57.4077 29.8409V28.6136C57.3509 28.6818 57.2259 28.7443 57.0327 28.8011C56.8433 28.8542 56.6236 28.9015 56.3736 28.9432C56.1274 28.9811 55.8868 29.0152 55.652 29.0455C55.4209 29.072 55.2334 29.0947 55.0895 29.1136C54.741 29.1591 54.4152 29.233 54.1122 29.3352C53.813 29.4337 53.5705 29.5833 53.3849 29.7841C53.2031 29.9811 53.1122 30.25 53.1122 30.5909C53.1122 31.0568 53.2846 31.4091 53.6293 31.6477C53.9777 31.8826 54.419 32 54.9531 32ZM64.4915 33.1818C63.7642 33.1818 63.1222 32.9981 62.5653 32.6307C62.0085 32.2595 61.5729 31.7367 61.2585 31.0625C60.9441 30.3845 60.7869 29.5833 60.7869 28.6591C60.7869 27.7424 60.9441 26.947 61.2585 26.2727C61.5729 25.5985 62.0104 25.0777 62.571 24.7102C63.1316 24.3428 63.7794 24.1591 64.5142 24.1591C65.0824 24.1591 65.5313 24.2538 65.8608 24.4432C66.1941 24.6288 66.4479 24.8409 66.6222 25.0795C66.8002 25.3144 66.9384 25.5076 67.0369 25.6591H67.1506V21.3636H68.4915V33H67.196V31.6591H67.0369C66.9384 31.8182 66.7983 32.0189 66.6165 32.2614C66.4347 32.5 66.1752 32.714 65.8381 32.9034C65.5009 33.089 65.0521 33.1818 64.4915 33.1818ZM64.6733 31.9773C65.2112 31.9773 65.6657 31.8371 66.0369 31.5568C66.4081 31.2727 66.6903 30.8807 66.8835 30.3807C67.0767 29.8769 67.1733 29.2955 67.1733 28.6364C67.1733 27.9848 67.0786 27.4148 66.8892 26.9261C66.6998 26.4337 66.4195 26.0511 66.0483 25.7784C65.6771 25.5019 65.2188 25.3636 64.6733 25.3636C64.1051 25.3636 63.6316 25.5095 63.2528 25.8011C62.8778 26.089 62.5956 26.4811 62.4062 26.9773C62.2206 27.4697 62.1278 28.0227 62.1278 28.6364C62.1278 29.2576 62.2225 29.822 62.4119 30.3295C62.6051 30.8333 62.8892 31.2348 63.2642 31.5341C63.643 31.8295 64.1127 31.9773 64.6733 31.9773ZM75.8153 33V21.3636H77.1562V25.6591H77.2699C77.3684 25.5076 77.5047 25.3144 77.679 25.0795C77.857 24.8409 78.1108 24.6288 78.4403 24.4432C78.7737 24.2538 79.2244 24.1591 79.7926 24.1591C80.5275 24.1591 81.1752 24.3428 81.7358 24.7102C82.2964 25.0777 82.7339 25.5985 83.0483 26.2727C83.3627 26.947 83.5199 27.7424 83.5199 28.6591C83.5199 29.5833 83.3627 30.3845 83.0483 31.0625C82.7339 31.7367 82.2983 32.2595 81.7415 32.6307C81.1847 32.9981 80.5426 33.1818 79.8153 33.1818C79.2547 33.1818 78.8059 33.089 78.4688 32.9034C78.1316 32.714 77.8722 32.5 77.6903 32.2614C77.5085 32.0189 77.3684 31.8182 77.2699 31.6591H77.1108V33H75.8153ZM77.1335 28.6364C77.1335 29.2955 77.2301 29.8769 77.4233 30.3807C77.6165 30.8807 77.8987 31.2727 78.2699 31.5568C78.6411 31.8371 79.0956 31.9773 79.6335 31.9773C80.1941 31.9773 80.6619 31.8295 81.0369 31.5341C81.4157 31.2348 81.6998 30.8333 81.8892 30.3295C82.0824 29.822 82.179 29.2576 82.179 28.6364C82.179 28.0227 82.0843 27.4697 81.8949 26.9773C81.7093 26.4811 81.4271 26.089 81.0483 25.8011C80.6733 25.5095 80.2017 25.3636 79.6335 25.3636C79.0881 25.3636 78.6297 25.5019 78.2585 25.7784C77.8873 26.0511 77.607 26.4337 77.4176 26.9261C77.2282 27.4148 77.1335 27.9848 77.1335 28.6364ZM88.1392 33.2045C87.5862 33.2045 87.0843 33.1004 86.6335 32.892C86.1828 32.6799 85.8248 32.375 85.5597 31.9773C85.2945 31.5758 85.1619 31.0909 85.1619 30.5227C85.1619 30.0227 85.2604 29.6174 85.4574 29.3068C85.6544 28.9924 85.9176 28.7462 86.2472 28.5682C86.5767 28.3902 86.9403 28.2576 87.3381 28.1705C87.7396 28.0795 88.143 28.0076 88.5483 27.9545C89.0786 27.8864 89.5085 27.8352 89.8381 27.8011C90.1714 27.7633 90.4138 27.7008 90.5653 27.6136C90.7206 27.5265 90.7983 27.375 90.7983 27.1591V27.1136C90.7983 26.553 90.6449 26.1174 90.3381 25.8068C90.035 25.4962 89.5748 25.3409 88.9574 25.3409C88.3172 25.3409 87.8153 25.4811 87.4517 25.7614C87.0881 26.0417 86.8324 26.3409 86.6847 26.6591L85.4119 26.2045C85.6392 25.6742 85.9422 25.2614 86.321 24.9659C86.7036 24.6667 87.1203 24.4583 87.571 24.3409C88.0256 24.2197 88.4725 24.1591 88.9119 24.1591C89.1922 24.1591 89.5142 24.1932 89.8778 24.2614C90.2453 24.3258 90.5994 24.4602 90.9403 24.6648C91.285 24.8693 91.571 25.178 91.7983 25.5909C92.0256 26.0038 92.1392 26.5568 92.1392 27.25V33H90.7983V31.8182H90.7301C90.6392 32.0076 90.4877 32.2102 90.2756 32.4261C90.0634 32.642 89.7813 32.8258 89.429 32.9773C89.0767 33.1288 88.6468 33.2045 88.1392 33.2045ZM88.3438 32C88.8741 32 89.321 31.8958 89.6847 31.6875C90.0521 31.4792 90.3286 31.2102 90.5142 30.8807C90.7036 30.5511 90.7983 30.2045 90.7983 29.8409V28.6136C90.7415 28.6818 90.6165 28.7443 90.4233 28.8011C90.2339 28.8542 90.0142 28.9015 89.7642 28.9432C89.518 28.9811 89.2775 29.0152 89.0426 29.0455C88.8116 29.072 88.6241 29.0947 88.4801 29.1136C88.1316 29.1591 87.8059 29.233 87.5028 29.3352C87.2036 29.4337 86.9612 29.5833 86.7756 29.7841C86.5938 29.9811 86.5028 30.25 86.5028 30.5909C86.5028 31.0568 86.6752 31.4091 87.0199 31.6477C87.3684 31.8826 87.8097 32 88.3438 32ZM98.1321 33.1818C97.3139 33.1818 96.6094 32.9886 96.0185 32.6023C95.4276 32.2159 94.973 31.6837 94.6548 31.0057C94.3366 30.3277 94.1776 29.553 94.1776 28.6818C94.1776 27.7955 94.3404 27.0133 94.6662 26.3352C94.9957 25.6534 95.4541 25.1212 96.0412 24.7386C96.6321 24.3523 97.3215 24.1591 98.1094 24.1591C98.723 24.1591 99.276 24.2727 99.7685 24.5C100.261 24.7273 100.664 25.0455 100.979 25.4545C101.293 25.8636 101.488 26.3409 101.564 26.8864H100.223C100.121 26.4886 99.8935 26.1364 99.5412 25.8295C99.1927 25.5189 98.723 25.3636 98.1321 25.3636C97.6094 25.3636 97.151 25.5 96.7571 25.7727C96.367 26.0417 96.062 26.4223 95.8423 26.9148C95.6264 27.4034 95.5185 27.9773 95.5185 28.6364C95.5185 29.3106 95.6245 29.8977 95.8366 30.3977C96.0526 30.8977 96.3556 31.286 96.7457 31.5625C97.1397 31.839 97.6018 31.9773 98.1321 31.9773C98.4806 31.9773 98.7969 31.9167 99.081 31.7955C99.3651 31.6742 99.6056 31.5 99.8026 31.2727C99.9995 31.0455 100.14 30.7727 100.223 30.4545H101.564C101.488 30.9697 101.301 31.4337 101.001 31.8466C100.706 32.2557 100.314 32.5814 99.8253 32.8239C99.3404 33.0625 98.776 33.1818 98.1321 33.1818ZM104.774 29.8182L104.751 28.1591H105.024L108.842 24.2727H110.501L106.433 28.3864H106.32L104.774 29.8182ZM103.524 33V21.3636H104.865V33H103.524ZM109.07 33L105.661 28.6818L106.615 27.75L110.774 33H109.07ZM119.295 33.2045C118.742 33.2045 118.241 33.1004 117.79 32.892C117.339 32.6799 116.981 32.375 116.716 31.9773C116.451 31.5758 116.318 31.0909 116.318 30.5227C116.318 30.0227 116.417 29.6174 116.614 29.3068C116.811 28.9924 117.074 28.7462 117.403 28.5682C117.733 28.3902 118.097 28.2576 118.494 28.1705C118.896 28.0795 119.299 28.0076 119.705 27.9545C120.235 27.8864 120.665 27.8352 120.994 27.8011C121.328 27.7633 121.57 27.7008 121.722 27.6136C121.877 27.5265 121.955 27.375 121.955 27.1591V27.1136C121.955 26.553 121.801 26.1174 121.494 25.8068C121.191 25.4962 120.731 25.3409 120.114 25.3409C119.473 25.3409 118.972 25.4811 118.608 25.7614C118.244 26.0417 117.989 26.3409 117.841 26.6591L116.568 26.2045C116.795 25.6742 117.098 25.2614 117.477 24.9659C117.86 24.6667 118.277 24.4583 118.727 24.3409C119.182 24.2197 119.629 24.1591 120.068 24.1591C120.348 24.1591 120.67 24.1932 121.034 24.2614C121.402 24.3258 121.756 24.4602 122.097 24.6648C122.441 24.8693 122.727 25.178 122.955 25.5909C123.182 26.0038 123.295 26.5568 123.295 27.25V33H121.955V31.8182H121.886C121.795 32.0076 121.644 32.2102 121.432 32.4261C121.22 32.642 120.938 32.8258 120.585 32.9773C120.233 33.1288 119.803 33.2045 119.295 33.2045ZM119.5 32C120.03 32 120.477 31.8958 120.841 31.6875C121.208 31.4792 121.485 31.2102 121.67 30.8807C121.86 30.5511 121.955 30.2045 121.955 29.8409V28.6136C121.898 28.6818 121.773 28.7443 121.58 28.8011C121.39 28.8542 121.17 28.9015 120.92 28.9432C120.674 28.9811 120.434 29.0152 120.199 29.0455C119.968 29.072 119.78 29.0947 119.636 29.1136C119.288 29.1591 118.962 29.233 118.659 29.3352C118.36 29.4337 118.117 29.5833 117.932 29.7841C117.75 29.9811 117.659 30.25 117.659 30.5909C117.659 31.0568 117.831 31.4091 118.176 31.6477C118.525 31.8826 118.966 32 119.5 32ZM127.084 27.75V33H125.743V24.2727H127.038V25.6364H127.152C127.357 25.1932 127.667 24.8371 128.084 24.5682C128.5 24.2955 129.038 24.1591 129.697 24.1591C130.288 24.1591 130.805 24.2803 131.249 24.5227C131.692 24.7614 132.036 25.125 132.283 25.6136C132.529 26.0985 132.652 26.7121 132.652 27.4545V33H131.311V27.5455C131.311 26.8598 131.133 26.3258 130.777 25.9432C130.421 25.5568 129.932 25.3636 129.311 25.3636C128.883 25.3636 128.5 25.4564 128.163 25.642C127.83 25.8277 127.567 26.0985 127.374 26.4545C127.18 26.8106 127.084 27.2424 127.084 27.75ZM138.398 33.1818C137.67 33.1818 137.028 32.9981 136.472 32.6307C135.915 32.2595 135.479 31.7367 135.165 31.0625C134.85 30.3845 134.693 29.5833 134.693 28.6591C134.693 27.7424 134.85 26.947 135.165 26.2727C135.479 25.5985 135.917 25.0777 136.477 24.7102C137.038 24.3428 137.686 24.1591 138.42 24.1591C138.989 24.1591 139.438 24.2538 139.767 24.4432C140.1 24.6288 140.354 24.8409 140.528 25.0795C140.706 25.3144 140.845 25.5076 140.943 25.6591H141.057V21.3636H142.398V33H141.102V31.6591H140.943C140.845 31.8182 140.705 32.0189 140.523 32.2614C140.341 32.5 140.081 32.714 139.744 32.9034C139.407 33.089 138.958 33.1818 138.398 33.1818ZM138.58 31.9773C139.117 31.9773 139.572 31.8371 139.943 31.5568C140.314 31.2727 140.597 30.8807 140.79 30.3807C140.983 29.8769 141.08 29.2955 141.08 28.6364C141.08 27.9848 140.985 27.4148 140.795 26.9261C140.606 26.4337 140.326 26.0511 139.955 25.7784C139.583 25.5019 139.125 25.3636 138.58 25.3636C138.011 25.3636 137.538 25.5095 137.159 25.8011C136.784 26.089 136.502 26.4811 136.312 26.9773C136.127 27.4697 136.034 28.0227 136.034 28.6364C136.034 29.2576 136.129 29.822 136.318 30.3295C136.511 30.8333 136.795 31.2348 137.17 31.5341C137.549 31.8295 138.019 31.9773 138.58 31.9773ZM153.426 24.2727V25.4091H148.722V24.2727H153.426ZM150.131 33V23.0682C150.131 22.5682 150.248 22.1515 150.483 21.8182C150.718 21.4848 151.023 21.2348 151.398 21.0682C151.773 20.9015 152.169 20.8182 152.585 20.8182C152.915 20.8182 153.184 20.8447 153.392 20.8977C153.6 20.9508 153.756 21 153.858 21.0455L153.472 22.2045C153.403 22.1818 153.309 22.1534 153.188 22.1193C153.07 22.0852 152.915 22.0682 152.722 22.0682C152.278 22.0682 151.958 22.1799 151.761 22.4034C151.568 22.6269 151.472 22.9545 151.472 23.3864V33H150.131ZM155.305 33V24.2727H156.601V25.5909H156.692C156.851 25.1591 157.139 24.8087 157.555 24.5398C157.972 24.2708 158.442 24.1364 158.964 24.1364C159.063 24.1364 159.186 24.1383 159.334 24.142C159.482 24.1458 159.593 24.1515 159.669 24.1591V25.5227C159.624 25.5114 159.519 25.4943 159.357 25.4716C159.197 25.4451 159.029 25.4318 158.851 25.4318C158.427 25.4318 158.048 25.5208 157.714 25.6989C157.385 25.8731 157.124 26.1155 156.93 26.4261C156.741 26.733 156.646 27.0833 156.646 27.4773V33H155.305ZM164.538 33.1818C163.75 33.1818 163.059 32.9943 162.464 32.6193C161.874 32.2443 161.411 31.7197 161.078 31.0455C160.749 30.3712 160.584 29.5833 160.584 28.6818C160.584 27.7727 160.749 26.9792 161.078 26.3011C161.411 25.6231 161.874 25.0966 162.464 24.7216C163.059 24.3466 163.75 24.1591 164.538 24.1591C165.326 24.1591 166.016 24.3466 166.607 24.7216C167.201 25.0966 167.663 25.6231 167.993 26.3011C168.326 26.9792 168.493 27.7727 168.493 28.6818C168.493 29.5833 168.326 30.3712 167.993 31.0455C167.663 31.7197 167.201 32.2443 166.607 32.6193C166.016 32.9943 165.326 33.1818 164.538 33.1818ZM164.538 31.9773C165.137 31.9773 165.629 31.8239 166.016 31.517C166.402 31.2102 166.688 30.8068 166.874 30.3068C167.059 29.8068 167.152 29.2652 167.152 28.6818C167.152 28.0985 167.059 27.5549 166.874 27.0511C166.688 26.5473 166.402 26.1402 166.016 25.8295C165.629 25.5189 165.137 25.3636 164.538 25.3636C163.94 25.3636 163.447 25.5189 163.061 25.8295C162.675 26.1402 162.389 26.5473 162.203 27.0511C162.018 27.5549 161.925 28.0985 161.925 28.6818C161.925 29.2652 162.018 29.8068 162.203 30.3068C162.389 30.8068 162.675 31.2102 163.061 31.517C163.447 31.8239 163.94 31.9773 164.538 31.9773ZM171.881 27.75V33H170.54V24.2727H171.835V25.6364H171.949C172.153 25.1932 172.464 24.8371 172.881 24.5682C173.297 24.2955 173.835 24.1591 174.494 24.1591C175.085 24.1591 175.602 24.2803 176.045 24.5227C176.489 24.7614 176.833 25.125 177.08 25.6136C177.326 26.0985 177.449 26.7121 177.449 27.4545V33H176.108V27.5455C176.108 26.8598 175.93 26.3258 175.574 25.9432C175.218 25.5568 174.729 25.3636 174.108 25.3636C173.68 25.3636 173.297 25.4564 172.96 25.642C172.627 25.8277 172.364 26.0985 172.17 26.4545C171.977 26.8106 171.881 27.2424 171.881 27.75ZM183.695 24.2727V25.4091H179.172V24.2727H183.695ZM180.49 22.1818H181.831V30.5C181.831 30.8788 181.886 31.1629 181.996 31.3523C182.109 31.5379 182.253 31.6629 182.428 31.7273C182.606 31.7879 182.793 31.8182 182.99 31.8182C183.138 31.8182 183.259 31.8106 183.354 31.7955C183.448 31.7765 183.524 31.7614 183.581 31.75L183.854 32.9545C183.763 32.9886 183.636 33.0227 183.473 33.0568C183.31 33.0947 183.104 33.1136 182.854 33.1136C182.475 33.1136 182.104 33.0322 181.74 32.8693C181.38 32.7064 181.081 32.4583 180.842 32.125C180.607 31.7917 180.49 31.3712 180.49 30.8636V22.1818ZM190.212 33V24.2727H191.553V33H190.212ZM190.893 22.8182C190.632 22.8182 190.407 22.7292 190.217 22.5511C190.032 22.3731 189.939 22.1591 189.939 21.9091C189.939 21.6591 190.032 21.4451 190.217 21.267C190.407 21.089 190.632 21 190.893 21C191.155 21 191.378 21.089 191.564 21.267C191.753 21.4451 191.848 21.6591 191.848 21.9091C191.848 22.1591 191.753 22.3731 191.564 22.5511C191.378 22.7292 191.155 22.8182 190.893 22.8182ZM194.009 33V24.2727H195.304V25.6364H195.418C195.599 25.1705 195.893 24.8087 196.298 24.5511C196.704 24.2898 197.19 24.1591 197.759 24.1591C198.334 24.1591 198.813 24.2898 199.196 24.5511C199.582 24.8087 199.884 25.1705 200.099 25.6364H200.19C200.414 25.1856 200.749 24.8277 201.196 24.5625C201.643 24.2936 202.179 24.1591 202.804 24.1591C203.584 24.1591 204.223 24.4034 204.719 24.892C205.215 25.3769 205.463 26.1326 205.463 27.1591V33H204.122V27.1591C204.122 26.5152 203.946 26.0549 203.594 25.7784C203.241 25.5019 202.827 25.3636 202.349 25.3636C201.736 25.3636 201.26 25.5492 200.923 25.9205C200.586 26.2879 200.418 26.7538 200.418 27.3182V33H199.054V27.0227C199.054 26.5265 198.893 26.1269 198.571 25.8239C198.249 25.517 197.834 25.3636 197.327 25.3636C196.978 25.3636 196.652 25.4564 196.349 25.642C196.05 25.8277 195.808 26.0852 195.622 26.4148C195.44 26.7405 195.349 27.1174 195.349 27.5455V33H194.009ZM210.483 33.2045C209.93 33.2045 209.428 33.1004 208.977 32.892C208.527 32.6799 208.169 32.375 207.903 31.9773C207.638 31.5758 207.506 31.0909 207.506 30.5227C207.506 30.0227 207.604 29.6174 207.801 29.3068C207.998 28.9924 208.261 28.7462 208.591 28.5682C208.92 28.3902 209.284 28.2576 209.682 28.1705C210.083 28.0795 210.487 28.0076 210.892 27.9545C211.422 27.8864 211.852 27.8352 212.182 27.8011C212.515 27.7633 212.758 27.7008 212.909 27.6136C213.064 27.5265 213.142 27.375 213.142 27.1591V27.1136C213.142 26.553 212.989 26.1174 212.682 25.8068C212.379 25.4962 211.919 25.3409 211.301 25.3409C210.661 25.3409 210.159 25.4811 209.795 25.7614C209.432 26.0417 209.176 26.3409 209.028 26.6591L207.756 26.2045C207.983 25.6742 208.286 25.2614 208.665 24.9659C209.047 24.6667 209.464 24.4583 209.915 24.3409C210.369 24.2197 210.816 24.1591 211.256 24.1591C211.536 24.1591 211.858 24.1932 212.222 24.2614C212.589 24.3258 212.943 24.4602 213.284 24.6648C213.629 24.8693 213.915 25.178 214.142 25.5909C214.369 26.0038 214.483 26.5568 214.483 27.25V33H213.142V31.8182H213.074C212.983 32.0076 212.831 32.2102 212.619 32.4261C212.407 32.642 212.125 32.8258 211.773 32.9773C211.42 33.1288 210.991 33.2045 210.483 33.2045ZM210.688 32C211.218 32 211.665 31.8958 212.028 31.6875C212.396 31.4792 212.672 31.2102 212.858 30.8807C213.047 30.5511 213.142 30.2045 213.142 29.8409V28.6136C213.085 28.6818 212.96 28.7443 212.767 28.8011C212.578 28.8542 212.358 28.9015 212.108 28.9432C211.862 28.9811 211.621 29.0152 211.386 29.0455C211.155 29.072 210.968 29.0947 210.824 29.1136C210.475 29.1591 210.15 29.233 209.847 29.3352C209.547 29.4337 209.305 29.5833 209.119 29.7841C208.938 29.9811 208.847 30.25 208.847 30.5909C208.847 31.0568 209.019 31.4091 209.364 31.6477C209.712 31.8826 210.153 32 210.688 32ZM220.453 36.4545C219.805 36.4545 219.249 36.3712 218.783 36.2045C218.317 36.0417 217.929 35.8258 217.618 35.5568C217.311 35.2917 217.067 35.0076 216.885 34.7045L217.953 33.9545C218.074 34.1136 218.228 34.2955 218.413 34.5C218.599 34.7083 218.853 34.8883 219.175 35.0398C219.5 35.1951 219.927 35.2727 220.453 35.2727C221.158 35.2727 221.739 35.1023 222.197 34.7614C222.656 34.4205 222.885 33.8864 222.885 33.1591V31.3864H222.771C222.673 31.5455 222.533 31.7424 222.351 31.9773C222.173 32.2083 221.915 32.4148 221.578 32.5966C221.245 32.7746 220.794 32.8636 220.226 32.8636C219.521 32.8636 218.889 32.697 218.328 32.3636C217.771 32.0303 217.33 31.5455 217.004 30.9091C216.682 30.2727 216.521 29.5 216.521 28.5909C216.521 27.697 216.679 26.9186 216.993 26.2557C217.307 25.589 217.745 25.0739 218.305 24.7102C218.866 24.3428 219.514 24.1591 220.249 24.1591C220.817 24.1591 221.268 24.2538 221.601 24.4432C221.938 24.6288 222.196 24.8409 222.374 25.0795C222.555 25.3144 222.696 25.5076 222.794 25.6591H222.93V24.2727H224.226V33.25C224.226 34 224.055 34.6098 223.714 35.0795C223.377 35.553 222.923 35.8996 222.351 36.1193C221.783 36.3428 221.15 36.4545 220.453 36.4545ZM220.408 31.6591C220.946 31.6591 221.4 31.536 221.771 31.2898C222.143 31.0436 222.425 30.6894 222.618 30.2273C222.811 29.7652 222.908 29.2121 222.908 28.5682C222.908 27.9394 222.813 27.3845 222.624 26.9034C222.434 26.4223 222.154 26.0455 221.783 25.7727C221.411 25.5 220.953 25.3636 220.408 25.3636C219.839 25.3636 219.366 25.5076 218.987 25.7955C218.612 26.0833 218.33 26.4697 218.141 26.9545C217.955 27.4394 217.862 27.9773 217.862 28.5682C217.862 29.1742 217.957 29.7102 218.146 30.1761C218.339 30.6383 218.624 31.0019 218.999 31.267C219.377 31.5284 219.847 31.6591 220.408 31.6591ZM230.339 33.1818C229.499 33.1818 228.773 32.9962 228.163 32.625C227.557 32.25 227.089 31.7273 226.76 31.0568C226.434 30.3826 226.271 29.5985 226.271 28.7045C226.271 27.8106 226.434 27.0227 226.76 26.3409C227.089 25.6553 227.548 25.1212 228.135 24.7386C228.726 24.3523 229.415 24.1591 230.203 24.1591C230.658 24.1591 231.107 24.2348 231.55 24.3864C231.993 24.5379 232.396 24.7841 232.76 25.125C233.124 25.4621 233.413 25.9091 233.629 26.4659C233.845 27.0227 233.953 27.7083 233.953 28.5227V29.0909H227.226V27.9318H232.589C232.589 27.4394 232.491 27 232.294 26.6136C232.101 26.2273 231.824 25.9223 231.464 25.6989C231.108 25.4754 230.688 25.3636 230.203 25.3636C229.669 25.3636 229.207 25.4962 228.817 25.7614C228.43 26.0227 228.133 26.3636 227.925 26.7841C227.716 27.2045 227.612 27.6553 227.612 28.1364V28.9091C227.612 29.5682 227.726 30.1269 227.953 30.5852C228.184 31.0398 228.504 31.3864 228.913 31.625C229.322 31.8598 229.798 31.9773 230.339 31.9773C230.692 31.9773 231.01 31.928 231.294 31.8295C231.582 31.7273 231.83 31.5758 232.038 31.375C232.247 31.1705 232.408 30.9167 232.521 30.6136L233.817 30.9773C233.68 31.4167 233.451 31.803 233.129 32.1364C232.807 32.4659 232.41 32.7235 231.936 32.9091C231.463 33.0909 230.93 33.1818 230.339 33.1818ZM242.175 26.2273L240.97 26.5682C240.894 26.3674 240.783 26.1723 240.635 25.983C240.491 25.7898 240.294 25.6307 240.044 25.5057C239.794 25.3807 239.474 25.3182 239.084 25.3182C238.55 25.3182 238.105 25.4413 237.749 25.6875C237.396 25.9299 237.22 26.2386 237.22 26.6136C237.22 26.947 237.341 27.2102 237.584 27.4034C237.826 27.5966 238.205 27.7576 238.72 27.8864L240.016 28.2045C240.796 28.3939 241.377 28.6837 241.76 29.0739C242.143 29.4602 242.334 29.9583 242.334 30.5682C242.334 31.0682 242.19 31.5152 241.902 31.9091C241.618 32.303 241.22 32.6136 240.709 32.8409C240.197 33.0682 239.603 33.1818 238.925 33.1818C238.035 33.1818 237.298 32.9886 236.714 32.6023C236.131 32.2159 235.762 31.6515 235.607 30.9091L236.879 30.5909C237 31.0606 237.23 31.4129 237.567 31.6477C237.908 31.8826 238.353 32 238.902 32C239.527 32 240.023 31.8674 240.391 31.6023C240.762 31.3333 240.947 31.0114 240.947 30.6364C240.947 30.3333 240.841 30.0795 240.629 29.875C240.417 29.6667 240.091 29.5114 239.652 29.4091L238.197 29.0682C237.398 28.8788 236.811 28.5852 236.436 28.1875C236.065 27.786 235.879 27.2841 235.879 26.6818C235.879 26.1894 236.018 25.7538 236.294 25.375C236.574 24.9962 236.955 24.6989 237.436 24.483C237.921 24.267 238.47 24.1591 239.084 24.1591C239.947 24.1591 240.625 24.3485 241.118 24.7273C241.614 25.1061 241.966 25.6061 242.175 26.2273ZM252.398 33.1818C251.61 33.1818 250.919 32.9943 250.324 32.6193C249.733 32.2443 249.271 31.7197 248.938 31.0455C248.608 30.3712 248.443 29.5833 248.443 28.6818C248.443 27.7727 248.608 26.9792 248.938 26.3011C249.271 25.6231 249.733 25.0966 250.324 24.7216C250.919 24.3466 251.61 24.1591 252.398 24.1591C253.186 24.1591 253.875 24.3466 254.466 24.7216C255.061 25.0966 255.523 25.6231 255.852 26.3011C256.186 26.9792 256.352 27.7727 256.352 28.6818C256.352 29.5833 256.186 30.3712 255.852 31.0455C255.523 31.7197 255.061 32.2443 254.466 32.6193C253.875 32.9943 253.186 33.1818 252.398 33.1818ZM252.398 31.9773C252.996 31.9773 253.489 31.8239 253.875 31.517C254.261 31.2102 254.547 30.8068 254.733 30.3068C254.919 29.8068 255.011 29.2652 255.011 28.6818C255.011 28.0985 254.919 27.5549 254.733 27.0511C254.547 26.5473 254.261 26.1402 253.875 25.8295C253.489 25.5189 252.996 25.3636 252.398 25.3636C251.799 25.3636 251.307 25.5189 250.92 25.8295C250.534 26.1402 250.248 26.5473 250.062 27.0511C249.877 27.5549 249.784 28.0985 249.784 28.6818C249.784 29.2652 249.877 29.8068 250.062 30.3068C250.248 30.8068 250.534 31.2102 250.92 31.517C251.307 31.8239 251.799 31.9773 252.398 31.9773ZM262.286 24.2727V25.4091H257.581V24.2727H262.286ZM258.99 33V23.0682C258.99 22.5682 259.107 22.1515 259.342 21.8182C259.577 21.4848 259.882 21.2348 260.257 21.0682C260.632 20.9015 261.028 20.8182 261.445 20.8182C261.774 20.8182 262.043 20.8447 262.251 20.8977C262.46 20.9508 262.615 21 262.717 21.0455L262.331 22.2045C262.263 22.1818 262.168 22.1534 262.047 22.1193C261.929 22.0852 261.774 22.0682 261.581 22.0682C261.138 22.0682 260.818 22.1799 260.621 22.4034C260.428 22.6269 260.331 22.9545 260.331 23.3864V33H258.99ZM18.0909 58.2727C17.8636 58.2727 17.661 58.2538 17.483 58.2159C17.3049 58.1818 17.1818 58.1477 17.1136 58.1136L17.4545 56.9318C17.7803 57.0152 18.0682 57.0455 18.3182 57.0227C18.5682 57 18.7898 56.8883 18.983 56.6875C19.1799 56.4905 19.3598 56.1705 19.5227 55.7273L19.7727 55.0455L16.5455 46.2727H18L20.4091 53.2273H20.5L22.9091 46.2727H24.3636L20.6591 56.2727C20.4924 56.7235 20.286 57.0966 20.0398 57.392C19.7936 57.6913 19.5076 57.9129 19.1818 58.0568C18.8598 58.2008 18.4962 58.2727 18.0909 58.2727ZM29.3665 55.1818C28.5786 55.1818 27.8873 54.9943 27.2926 54.6193C26.7017 54.2443 26.2396 53.7197 25.9062 53.0455C25.5767 52.3712 25.4119 51.5833 25.4119 50.6818C25.4119 49.7727 25.5767 48.9792 25.9062 48.3011C26.2396 47.6231 26.7017 47.0966 27.2926 46.7216C27.8873 46.3466 28.5786 46.1591 29.3665 46.1591C30.1544 46.1591 30.8438 46.3466 31.4347 46.7216C32.0294 47.0966 32.4915 47.6231 32.821 48.3011C33.1544 48.9792 33.321 49.7727 33.321 50.6818C33.321 51.5833 33.1544 52.3712 32.821 53.0455C32.4915 53.7197 32.0294 54.2443 31.4347 54.6193C30.8438 54.9943 30.1544 55.1818 29.3665 55.1818ZM29.3665 53.9773C29.965 53.9773 30.4574 53.8239 30.8438 53.517C31.2301 53.2102 31.5161 52.8068 31.7017 52.3068C31.8873 51.8068 31.9801 51.2652 31.9801 50.6818C31.9801 50.0985 31.8873 49.5549 31.7017 49.0511C31.5161 48.5473 31.2301 48.1402 30.8438 47.8295C30.4574 47.5189 29.965 47.3636 29.3665 47.3636C28.768 47.3636 28.2756 47.5189 27.8892 47.8295C27.5028 48.1402 27.2169 48.5473 27.0312 49.0511C26.8456 49.5549 26.7528 50.0985 26.7528 50.6818C26.7528 51.2652 26.8456 51.8068 27.0312 52.3068C27.2169 52.8068 27.5028 53.2102 27.8892 53.517C28.2756 53.8239 28.768 53.9773 29.3665 53.9773ZM40.8679 51.4318V46.2727H42.2088V55H40.8679V53.5227H40.777C40.5724 53.9659 40.2543 54.3428 39.8224 54.6534C39.3906 54.9602 38.8452 55.1136 38.1861 55.1136C37.6406 55.1136 37.1558 54.9943 36.7315 54.7557C36.3073 54.5133 35.974 54.1496 35.7315 53.6648C35.4891 53.1761 35.3679 52.5606 35.3679 51.8182V46.2727H36.7088V51.7273C36.7088 52.3636 36.8868 52.8712 37.2429 53.25C37.6027 53.6288 38.0611 53.8182 38.6179 53.8182C38.9512 53.8182 39.2902 53.733 39.6349 53.5625C39.9834 53.392 40.2751 53.1307 40.5099 52.7784C40.7486 52.4261 40.8679 51.9773 40.8679 51.4318ZM44.6648 55V46.2727H45.9602V47.5909H46.0511C46.2102 47.1591 46.4981 46.8087 46.9148 46.5398C47.3314 46.2708 47.8011 46.1364 48.3239 46.1364C48.4223 46.1364 48.5455 46.1383 48.6932 46.142C48.8409 46.1458 48.9527 46.1515 49.0284 46.1591V47.5227C48.983 47.5114 48.8788 47.4943 48.7159 47.4716C48.5568 47.4451 48.3883 47.4318 48.2102 47.4318C47.786 47.4318 47.4072 47.5208 47.0739 47.6989C46.7443 47.8731 46.483 48.1155 46.2898 48.4261C46.1004 48.733 46.0057 49.0833 46.0057 49.4773V55H44.6648ZM57.6861 55.2045C57.133 55.2045 56.6312 55.1004 56.1804 54.892C55.7296 54.6799 55.3717 54.375 55.1065 53.9773C54.8414 53.5758 54.7088 53.0909 54.7088 52.5227C54.7088 52.0227 54.8073 51.6174 55.0043 51.3068C55.2012 50.9924 55.4645 50.7462 55.794 50.5682C56.1236 50.3902 56.4872 50.2576 56.8849 50.1705C57.2865 50.0795 57.6899 50.0076 58.0952 49.9545C58.6255 49.8864 59.0554 49.8352 59.3849 49.8011C59.7183 49.7633 59.9607 49.7008 60.1122 49.6136C60.2675 49.5265 60.3452 49.375 60.3452 49.1591V49.1136C60.3452 48.553 60.1918 48.1174 59.8849 47.8068C59.5819 47.4962 59.1217 47.3409 58.5043 47.3409C57.8641 47.3409 57.3622 47.4811 56.9986 47.7614C56.6349 48.0417 56.3793 48.3409 56.2315 48.6591L54.9588 48.2045C55.1861 47.6742 55.4891 47.2614 55.8679 46.9659C56.2505 46.6667 56.6671 46.4583 57.1179 46.3409C57.5724 46.2197 58.0194 46.1591 58.4588 46.1591C58.7391 46.1591 59.0611 46.1932 59.4247 46.2614C59.7921 46.3258 60.1463 46.4602 60.4872 46.6648C60.8319 46.8693 61.1179 47.178 61.3452 47.5909C61.5724 48.0038 61.6861 48.5568 61.6861 49.25V55H60.3452V53.8182H60.277C60.1861 54.0076 60.0346 54.2102 59.8224 54.4261C59.6103 54.642 59.3281 54.8258 58.9759 54.9773C58.6236 55.1288 58.1937 55.2045 57.6861 55.2045ZM57.8906 54C58.4209 54 58.8679 53.8958 59.2315 53.6875C59.599 53.4792 59.8755 53.2102 60.0611 52.8807C60.2505 52.5511 60.3452 52.2045 60.3452 51.8409V50.6136C60.2884 50.6818 60.1634 50.7443 59.9702 50.8011C59.7808 50.8542 59.5611 50.9015 59.3111 50.9432C59.0649 50.9811 58.8243 51.0152 58.5895 51.0455C58.3584 51.072 58.1709 51.0947 58.027 51.1136C57.6785 51.1591 57.3527 51.233 57.0497 51.3352C56.7505 51.4337 56.508 51.5833 56.3224 51.7841C56.1406 51.9811 56.0497 52.25 56.0497 52.5909C56.0497 53.0568 56.2221 53.4091 56.5668 53.6477C56.9152 53.8826 57.3565 54 57.8906 54ZM67.679 55.1818C66.8608 55.1818 66.1563 54.9886 65.5653 54.6023C64.9744 54.2159 64.5199 53.6837 64.2017 53.0057C63.8835 52.3277 63.7244 51.553 63.7244 50.6818C63.7244 49.7955 63.8873 49.0133 64.2131 48.3352C64.5426 47.6534 65.0009 47.1212 65.5881 46.7386C66.179 46.3523 66.8684 46.1591 67.6562 46.1591C68.2699 46.1591 68.8229 46.2727 69.3153 46.5C69.8078 46.7273 70.2112 47.0455 70.5256 47.4545C70.84 47.8636 71.035 48.3409 71.1108 48.8864H69.7699C69.6676 48.4886 69.4403 48.1364 69.0881 47.8295C68.7396 47.5189 68.2699 47.3636 67.679 47.3636C67.1563 47.3636 66.6979 47.5 66.304 47.7727C65.9138 48.0417 65.6089 48.4223 65.3892 48.9148C65.1733 49.4034 65.0653 49.9773 65.0653 50.6364C65.0653 51.3106 65.1714 51.8977 65.3835 52.3977C65.5994 52.8977 65.9025 53.286 66.2926 53.5625C66.6866 53.839 67.1487 53.9773 67.679 53.9773C68.0275 53.9773 68.3438 53.9167 68.6278 53.7955C68.9119 53.6742 69.1525 53.5 69.3494 53.2727C69.5464 53.0455 69.6866 52.7727 69.7699 52.4545H71.1108C71.035 52.9697 70.8475 53.4337 70.5483 53.8466C70.2528 54.2557 69.8608 54.5814 69.3722 54.8239C68.8873 55.0625 68.3229 55.1818 67.679 55.1818ZM76.6165 55.1818C75.7983 55.1818 75.0938 54.9886 74.5028 54.6023C73.9119 54.2159 73.4574 53.6837 73.1392 53.0057C72.821 52.3277 72.6619 51.553 72.6619 50.6818C72.6619 49.7955 72.8248 49.0133 73.1506 48.3352C73.4801 47.6534 73.9384 47.1212 74.5256 46.7386C75.1165 46.3523 75.8059 46.1591 76.5938 46.1591C77.2074 46.1591 77.7604 46.2727 78.2528 46.5C78.7453 46.7273 79.1487 47.0455 79.4631 47.4545C79.7775 47.8636 79.9725 48.3409 80.0483 48.8864H78.7074C78.6051 48.4886 78.3778 48.1364 78.0256 47.8295C77.6771 47.5189 77.2074 47.3636 76.6165 47.3636C76.0938 47.3636 75.6354 47.5 75.2415 47.7727C74.8513 48.0417 74.5464 48.4223 74.3267 48.9148C74.1108 49.4034 74.0028 49.9773 74.0028 50.6364C74.0028 51.3106 74.1089 51.8977 74.321 52.3977C74.5369 52.8977 74.84 53.286 75.2301 53.5625C75.6241 53.839 76.0862 53.9773 76.6165 53.9773C76.965 53.9773 77.2812 53.9167 77.5653 53.7955C77.8494 53.6742 78.09 53.5 78.2869 53.2727C78.4839 53.0455 78.6241 52.7727 78.7074 52.4545H80.0483C79.9725 52.9697 79.785 53.4337 79.4858 53.8466C79.1903 54.2557 78.7983 54.5814 78.3097 54.8239C77.8248 55.0625 77.2604 55.1818 76.6165 55.1818ZM82.0085 55V46.2727H83.304V47.5909H83.3949C83.554 47.1591 83.8419 46.8087 84.2585 46.5398C84.6752 46.2708 85.1449 46.1364 85.6676 46.1364C85.7661 46.1364 85.8892 46.1383 86.0369 46.142C86.1847 46.1458 86.2964 46.1515 86.3722 46.1591V47.5227C86.3267 47.5114 86.2225 47.4943 86.0597 47.4716C85.9006 47.4451 85.732 47.4318 85.554 47.4318C85.1297 47.4318 84.7509 47.5208 84.4176 47.6989C84.0881 47.8731 83.8267 48.1155 83.6335 48.4261C83.4441 48.733 83.3494 49.0833 83.3494 49.4773V55H82.0085ZM91.3551 55.1818C90.5142 55.1818 89.7888 54.9962 89.179 54.625C88.5729 54.25 88.1051 53.7273 87.7756 53.0568C87.4498 52.3826 87.2869 51.5985 87.2869 50.7045C87.2869 49.8106 87.4498 49.0227 87.7756 48.3409C88.1051 47.6553 88.5634 47.1212 89.1506 46.7386C89.7415 46.3523 90.4309 46.1591 91.2188 46.1591C91.6733 46.1591 92.1222 46.2348 92.5653 46.3864C93.0085 46.5379 93.4119 46.7841 93.7756 47.125C94.1392 47.4621 94.429 47.9091 94.6449 48.4659C94.8608 49.0227 94.9688 49.7083 94.9688 50.5227V51.0909H88.2415V49.9318H93.6051C93.6051 49.4394 93.5066 49 93.3097 48.6136C93.1165 48.2273 92.84 47.9223 92.4801 47.6989C92.1241 47.4754 91.7036 47.3636 91.2188 47.3636C90.6847 47.3636 90.2225 47.4962 89.8324 47.7614C89.446 48.0227 89.1487 48.3636 88.9403 48.7841C88.732 49.2045 88.6278 49.6553 88.6278 50.1364V50.9091C88.6278 51.5682 88.7415 52.1269 88.9688 52.5852C89.1998 53.0398 89.5199 53.3864 89.929 53.625C90.3381 53.8598 90.8134 53.9773 91.3551 53.9773C91.7074 53.9773 92.0256 53.928 92.3097 53.8295C92.5975 53.7273 92.8456 53.5758 93.054 53.375C93.2623 53.1705 93.4233 52.9167 93.5369 52.6136L94.8324 52.9773C94.696 53.4167 94.4669 53.803 94.1449 54.1364C93.8229 54.4659 93.4252 54.7235 92.9517 54.9091C92.4782 55.0909 91.946 55.1818 91.3551 55.1818ZM100.304 55.1818C99.5767 55.1818 98.9347 54.9981 98.3778 54.6307C97.821 54.2595 97.3854 53.7367 97.071 53.0625C96.7566 52.3845 96.5994 51.5833 96.5994 50.6591C96.5994 49.7424 96.7566 48.947 97.071 48.2727C97.3854 47.5985 97.8229 47.0777 98.3835 46.7102C98.9441 46.3428 99.5919 46.1591 100.327 46.1591C100.895 46.1591 101.344 46.2538 101.673 46.4432C102.007 46.6288 102.26 46.8409 102.435 47.0795C102.613 47.3144 102.751 47.5076 102.849 47.6591H102.963V43.3636H104.304V55H103.009V53.6591H102.849C102.751 53.8182 102.611 54.0189 102.429 54.2614C102.247 54.5 101.988 54.714 101.651 54.9034C101.313 55.089 100.865 55.1818 100.304 55.1818ZM100.486 53.9773C101.024 53.9773 101.478 53.8371 101.849 53.5568C102.221 53.2727 102.503 52.8807 102.696 52.3807C102.889 51.8769 102.986 51.2955 102.986 50.6364C102.986 49.9848 102.891 49.4148 102.702 48.9261C102.512 48.4337 102.232 48.0511 101.861 47.7784C101.49 47.5019 101.031 47.3636 100.486 47.3636C99.9176 47.3636 99.4441 47.5095 99.0653 47.8011C98.6903 48.089 98.4081 48.4811 98.2188 48.9773C98.0331 49.4697 97.9403 50.0227 97.9403 50.6364C97.9403 51.2576 98.035 51.822 98.2244 52.3295C98.4176 52.8333 98.7017 53.2348 99.0767 53.5341C99.4555 53.8295 99.9252 53.9773 100.486 53.9773ZM106.946 55V46.2727H108.287V55H106.946ZM107.628 44.8182C107.366 44.8182 107.141 44.7292 106.952 44.5511C106.766 44.3731 106.673 44.1591 106.673 43.9091C106.673 43.6591 106.766 43.4451 106.952 43.267C107.141 43.089 107.366 43 107.628 43C107.889 43 108.113 43.089 108.298 43.267C108.488 43.4451 108.582 43.6591 108.582 43.9091C108.582 44.1591 108.488 44.3731 108.298 44.5511C108.113 44.7292 107.889 44.8182 107.628 44.8182ZM114.538 46.2727V47.4091H110.016V46.2727H114.538ZM111.334 44.1818H112.675V52.5C112.675 52.8788 112.73 53.1629 112.839 53.3523C112.953 53.5379 113.097 53.6629 113.271 53.7273C113.449 53.7879 113.637 53.8182 113.834 53.8182C113.982 53.8182 114.103 53.8106 114.197 53.7955C114.292 53.7765 114.368 53.7614 114.425 53.75L114.697 54.9545C114.607 54.9886 114.48 55.0227 114.317 55.0568C114.154 55.0947 113.947 55.1136 113.697 55.1136C113.319 55.1136 112.947 55.0322 112.584 54.8693C112.224 54.7064 111.925 54.4583 111.686 54.125C111.451 53.7917 111.334 53.3712 111.334 52.8636V44.1818ZM119.124 55.2045C118.571 55.2045 118.069 55.1004 117.618 54.892C117.167 54.6799 116.809 54.375 116.544 53.9773C116.279 53.5758 116.146 53.0909 116.146 52.5227C116.146 52.0227 116.245 51.6174 116.442 51.3068C116.639 50.9924 116.902 50.7462 117.232 50.5682C117.561 50.3902 117.925 50.2576 118.322 50.1705C118.724 50.0795 119.127 50.0076 119.533 49.9545C120.063 49.8864 120.493 49.8352 120.822 49.8011C121.156 49.7633 121.398 49.7008 121.55 49.6136C121.705 49.5265 121.783 49.375 121.783 49.1591V49.1136C121.783 48.553 121.629 48.1174 121.322 47.8068C121.019 47.4962 120.559 47.3409 119.942 47.3409C119.302 47.3409 118.8 47.4811 118.436 47.7614C118.072 48.0417 117.817 48.3409 117.669 48.6591L116.396 48.2045C116.624 47.6742 116.927 47.2614 117.305 46.9659C117.688 46.6667 118.105 46.4583 118.555 46.3409C119.01 46.2197 119.457 46.1591 119.896 46.1591C120.177 46.1591 120.499 46.1932 120.862 46.2614C121.23 46.3258 121.584 46.4602 121.925 46.6648C122.269 46.8693 122.555 47.178 122.783 47.5909C123.01 48.0038 123.124 48.5568 123.124 49.25V55H121.783V53.8182H121.714C121.624 54.0076 121.472 54.2102 121.26 54.4261C121.048 54.642 120.766 54.8258 120.413 54.9773C120.061 55.1288 119.631 55.2045 119.124 55.2045ZM119.328 54C119.858 54 120.305 53.8958 120.669 53.6875C121.036 53.4792 121.313 53.2102 121.499 52.8807C121.688 52.5511 121.783 52.2045 121.783 51.8409V50.6136C121.726 50.6818 121.601 50.7443 121.408 50.8011C121.218 50.8542 120.999 50.9015 120.749 50.9432C120.502 50.9811 120.262 51.0152 120.027 51.0455C119.796 51.072 119.608 51.0947 119.464 51.1136C119.116 51.1591 118.79 51.233 118.487 51.3352C118.188 51.4337 117.946 51.5833 117.76 51.7841C117.578 51.9811 117.487 52.25 117.487 52.5909C117.487 53.0568 117.66 53.4091 118.004 53.6477C118.353 53.8826 118.794 54 119.328 54ZM129.366 46.2727V47.4091H124.844V46.2727H129.366ZM126.162 44.1818H127.503V52.5C127.503 52.8788 127.558 53.1629 127.668 53.3523C127.781 53.5379 127.925 53.6629 128.099 53.7273C128.277 53.7879 128.465 53.8182 128.662 53.8182C128.81 53.8182 128.931 53.8106 129.026 53.7955C129.12 53.7765 129.196 53.7614 129.253 53.75L129.526 54.9545C129.435 54.9886 129.308 55.0227 129.145 55.0568C128.982 55.0947 128.776 55.1136 128.526 55.1136C128.147 55.1136 127.776 55.0322 127.412 54.8693C127.052 54.7064 126.753 54.4583 126.514 54.125C126.279 53.7917 126.162 53.3712 126.162 52.8636V44.1818ZM131.384 55V46.2727H132.724V55H131.384ZM132.065 44.8182C131.804 44.8182 131.579 44.7292 131.389 44.5511C131.204 44.3731 131.111 44.1591 131.111 43.9091C131.111 43.6591 131.204 43.4451 131.389 43.267C131.579 43.089 131.804 43 132.065 43C132.327 43 132.55 43.089 132.736 43.267C132.925 43.4451 133.02 43.6591 133.02 43.9091C133.02 44.1591 132.925 44.3731 132.736 44.5511C132.55 44.7292 132.327 44.8182 132.065 44.8182ZM138.726 55.1818C137.938 55.1818 137.247 54.9943 136.652 54.6193C136.061 54.2443 135.599 53.7197 135.266 53.0455C134.936 52.3712 134.771 51.5833 134.771 50.6818C134.771 49.7727 134.936 48.9792 135.266 48.3011C135.599 47.6231 136.061 47.0966 136.652 46.7216C137.247 46.3466 137.938 46.1591 138.726 46.1591C139.514 46.1591 140.203 46.3466 140.794 46.7216C141.389 47.0966 141.851 47.6231 142.18 48.3011C142.514 48.9792 142.68 49.7727 142.68 50.6818C142.68 51.5833 142.514 52.3712 142.18 53.0455C141.851 53.7197 141.389 54.2443 140.794 54.6193C140.203 54.9943 139.514 55.1818 138.726 55.1818ZM138.726 53.9773C139.324 53.9773 139.817 53.8239 140.203 53.517C140.589 53.2102 140.875 52.8068 141.061 52.3068C141.247 51.8068 141.339 51.2652 141.339 50.6818C141.339 50.0985 141.247 49.5549 141.061 49.0511C140.875 48.5473 140.589 48.1402 140.203 47.8295C139.817 47.5189 139.324 47.3636 138.726 47.3636C138.127 47.3636 137.635 47.5189 137.249 47.8295C136.862 48.1402 136.576 48.5473 136.391 49.0511C136.205 49.5549 136.112 50.0985 136.112 50.6818C136.112 51.2652 136.205 51.8068 136.391 52.3068C136.576 52.8068 136.862 53.2102 137.249 53.517C137.635 53.8239 138.127 53.9773 138.726 53.9773ZM146.068 49.75V55H144.727V46.2727H146.023V47.6364H146.136C146.341 47.1932 146.652 46.8371 147.068 46.5682C147.485 46.2955 148.023 46.1591 148.682 46.1591C149.273 46.1591 149.79 46.2803 150.233 46.5227C150.676 46.7614 151.021 47.125 151.267 47.6136C151.513 48.0985 151.636 48.7121 151.636 49.4545V55H150.295V49.5455C150.295 48.8598 150.117 48.3258 149.761 47.9432C149.405 47.5568 148.917 47.3636 148.295 47.3636C147.867 47.3636 147.485 47.4564 147.148 47.642C146.814 47.8277 146.551 48.0985 146.358 48.4545C146.165 48.8106 146.068 49.2424 146.068 49.75ZM154.564 50.0909C154.564 48.6591 154.75 47.3428 155.121 46.142C155.496 44.9375 156.03 43.8295 156.723 42.8182H157.905C157.632 43.1932 157.376 43.6553 157.138 44.2045C156.903 44.75 156.696 45.3504 156.518 46.0057C156.34 46.6572 156.2 47.3314 156.098 48.0284C156 48.7254 155.95 49.4129 155.95 50.0909C155.95 50.9924 156.037 51.9072 156.212 52.8352C156.386 53.7633 156.621 54.625 156.916 55.4205C157.212 56.2159 157.541 56.8636 157.905 57.3636H156.723C156.03 56.3523 155.496 55.2462 155.121 54.0455C154.75 52.8409 154.564 51.5227 154.564 50.0909ZM166.065 48.2273L164.861 48.5682C164.785 48.3674 164.673 48.1723 164.526 47.983C164.382 47.7898 164.185 47.6307 163.935 47.5057C163.685 47.3807 163.365 47.3182 162.974 47.3182C162.44 47.3182 161.995 47.4413 161.639 47.6875C161.287 47.9299 161.111 48.2386 161.111 48.6136C161.111 48.947 161.232 49.2102 161.474 49.4034C161.717 49.5966 162.096 49.7576 162.611 49.8864L163.906 50.2045C164.687 50.3939 165.268 50.6837 165.651 51.0739C166.033 51.4602 166.224 51.9583 166.224 52.5682C166.224 53.0682 166.08 53.5152 165.793 53.9091C165.509 54.303 165.111 54.6136 164.599 54.8409C164.088 55.0682 163.493 55.1818 162.815 55.1818C161.925 55.1818 161.188 54.9886 160.605 54.6023C160.022 54.2159 159.652 53.6515 159.497 52.9091L160.77 52.5909C160.891 53.0606 161.12 53.4129 161.457 53.6477C161.798 53.8826 162.243 54 162.793 54C163.418 54 163.914 53.8674 164.281 53.6023C164.652 53.3333 164.838 53.0114 164.838 52.6364C164.838 52.3333 164.732 52.0795 164.52 51.875C164.308 51.6667 163.982 51.5114 163.543 51.4091L162.088 51.0682C161.289 50.8788 160.702 50.5852 160.327 50.1875C159.955 49.786 159.77 49.2841 159.77 48.6818C159.77 48.1894 159.908 47.7538 160.185 47.375C160.465 46.9962 160.846 46.6989 161.327 46.483C161.812 46.267 162.361 46.1591 162.974 46.1591C163.838 46.1591 164.516 46.3485 165.009 46.7273C165.505 47.1061 165.857 47.6061 166.065 48.2273ZM171.107 50.0909C171.107 51.5227 170.919 52.8409 170.544 54.0455C170.173 55.2462 169.641 56.3523 168.947 57.3636H167.766C168.038 56.9886 168.292 56.5265 168.527 55.9773C168.766 55.4318 168.974 54.8333 169.152 54.1818C169.33 53.5265 169.468 52.8504 169.567 52.1534C169.669 51.4527 169.72 50.7652 169.72 50.0909C169.72 49.1894 169.633 48.2746 169.459 47.3466C169.285 46.4186 169.05 45.5568 168.754 44.7614C168.459 43.9659 168.129 43.3182 167.766 42.8182H168.947C169.641 43.8295 170.173 44.9375 170.544 46.142C170.919 47.3428 171.107 48.6591 171.107 50.0909Z"
        fill="#002147" />
    <path
        d="M302 31C302 26.5817 305.582 23 310 23H367C371.418 23 375 26.5817 375 31V45C375 49.4183 371.418 53 367 53H310C305.582 53 302 49.4183 302 45V31Z"
        fill="#002147" />
    <path
        d="M321.423 32.8182H323.267V39.4702C323.267 40.1993 323.095 40.8407 322.75 41.3942C322.409 41.9477 321.928 42.3802 321.308 42.6918C320.688 43 319.964 43.1541 319.136 43.1541C318.304 43.1541 317.578 43 316.958 42.6918C316.338 42.3802 315.858 41.9477 315.516 41.3942C315.175 40.8407 315.004 40.1993 315.004 39.4702V32.8182H316.849V39.3161C316.849 39.7403 316.942 40.1181 317.127 40.4496C317.316 40.781 317.581 41.0412 317.923 41.2301C318.264 41.4157 318.668 41.5085 319.136 41.5085C319.603 41.5085 320.007 41.4157 320.349 41.2301C320.693 41.0412 320.959 40.781 321.144 40.4496C321.33 40.1181 321.423 39.7403 321.423 39.3161V32.8182ZM325.192 45.8636V35.3636H326.962V36.6264H327.067C327.159 36.4408 327.29 36.2436 327.459 36.0348C327.628 35.8227 327.857 35.642 328.145 35.4929C328.434 35.3404 328.802 35.2642 329.249 35.2642C329.839 35.2642 330.371 35.415 330.845 35.7166C331.322 36.0149 331.7 36.4574 331.979 37.044C332.26 37.6274 332.401 38.3433 332.401 39.1918C332.401 40.0303 332.264 40.7429 331.988 41.3295C331.713 41.9162 331.339 42.3636 330.865 42.6719C330.391 42.9801 329.854 43.1342 329.254 43.1342C328.817 43.1342 328.454 43.0613 328.165 42.9155C327.877 42.7696 327.645 42.594 327.469 42.3885C327.297 42.1797 327.163 41.9825 327.067 41.7969H326.992V45.8636H325.192ZM326.957 39.1818C326.957 39.6757 327.027 40.1082 327.166 40.4794C327.309 40.8506 327.512 41.1406 327.778 41.3494C328.046 41.5549 328.371 41.6577 328.752 41.6577C329.15 41.6577 329.483 41.5516 329.751 41.3395C330.02 41.1241 330.222 40.8307 330.358 40.4595C330.497 40.085 330.567 39.6591 330.567 39.1818C330.567 38.7079 330.499 38.2869 330.363 37.919C330.227 37.5511 330.025 37.2628 329.756 37.054C329.488 36.8452 329.153 36.7408 328.752 36.7408C328.367 36.7408 328.041 36.8419 327.773 37.044C327.504 37.2462 327.3 37.5296 327.161 37.8942C327.025 38.2588 326.957 38.688 326.957 39.1818ZM335.742 32.8182V43H333.942V32.8182H335.742ZM340.924 43.1491C340.178 43.1491 339.532 42.9851 338.985 42.657C338.438 42.3288 338.014 41.8698 337.712 41.2798C337.414 40.6899 337.265 40.0005 337.265 39.2116C337.265 38.4228 337.414 37.7318 337.712 37.1385C338.014 36.5452 338.438 36.0845 338.985 35.7564C339.532 35.4283 340.178 35.2642 340.924 35.2642C341.669 35.2642 342.316 35.4283 342.863 35.7564C343.409 36.0845 343.832 36.5452 344.13 37.1385C344.432 37.7318 344.583 38.4228 344.583 39.2116C344.583 40.0005 344.432 40.6899 344.13 41.2798C343.832 41.8698 343.409 42.3288 342.863 42.657C342.316 42.9851 341.669 43.1491 340.924 43.1491ZM340.934 41.7074C341.338 41.7074 341.676 41.5964 341.948 41.3743C342.22 41.1489 342.422 40.8473 342.554 40.4695C342.69 40.0916 342.758 39.6707 342.758 39.2067C342.758 38.7393 342.69 38.3168 342.554 37.9389C342.422 37.5578 342.22 37.2545 341.948 37.0291C341.676 36.8037 341.338 36.6911 340.934 36.6911C340.519 36.6911 340.175 36.8037 339.9 37.0291C339.628 37.2545 339.424 37.5578 339.288 37.9389C339.155 38.3168 339.089 38.7393 339.089 39.2067C339.089 39.6707 339.155 40.0916 339.288 40.4695C339.424 40.8473 339.628 41.1489 339.9 41.3743C340.175 41.5964 340.519 41.7074 340.934 41.7074ZM348.308 43.1541C347.824 43.1541 347.388 43.0679 347 42.8956C346.616 42.7199 346.311 42.4614 346.085 42.12C345.863 41.7786 345.752 41.3577 345.752 40.8572C345.752 40.4264 345.832 40.0701 345.991 39.7884C346.15 39.5066 346.367 39.2812 346.642 39.1122C346.917 38.9432 347.227 38.8156 347.572 38.7294C347.92 38.6399 348.28 38.5753 348.651 38.5355C349.098 38.4891 349.461 38.4477 349.74 38.4112C350.018 38.3714 350.22 38.3118 350.346 38.2322C350.475 38.1494 350.54 38.0218 350.54 37.8494V37.8196C350.54 37.4451 350.429 37.1551 350.207 36.9496C349.985 36.7441 349.665 36.6413 349.247 36.6413C348.807 36.6413 348.457 36.7375 348.198 36.9297C347.943 37.1219 347.771 37.349 347.681 37.6108L346.001 37.3722C346.133 36.9081 346.352 36.5204 346.657 36.2088C346.962 35.8939 347.335 35.6586 347.776 35.5028C348.217 35.3438 348.704 35.2642 349.237 35.2642C349.605 35.2642 349.972 35.3073 350.336 35.3935C350.701 35.4796 351.034 35.6222 351.335 35.821C351.637 36.0166 351.879 36.2834 352.061 36.6214C352.247 36.9595 352.34 37.3821 352.34 37.8892V43H350.61V41.951H350.55C350.441 42.1631 350.286 42.362 350.088 42.5476C349.892 42.7299 349.645 42.8774 349.347 42.9901C349.052 43.0994 348.705 43.1541 348.308 43.1541ZM348.775 41.8317C349.136 41.8317 349.45 41.7604 349.715 41.6179C349.98 41.4721 350.184 41.2798 350.326 41.0412C350.472 40.8026 350.545 40.5424 350.545 40.2607V39.3608C350.489 39.4072 350.392 39.4503 350.257 39.4901C350.124 39.5298 349.975 39.5646 349.809 39.5945C349.643 39.6243 349.479 39.6508 349.317 39.674C349.155 39.6972 349.014 39.7171 348.894 39.7337C348.626 39.7701 348.386 39.8298 348.173 39.9126C347.961 39.9955 347.794 40.1115 347.671 40.2607C347.549 40.4065 347.487 40.5954 347.487 40.8274C347.487 41.1589 347.608 41.4091 347.85 41.5781C348.092 41.7472 348.401 41.8317 348.775 41.8317ZM356.983 43.1342C356.383 43.1342 355.846 42.9801 355.372 42.6719C354.898 42.3636 354.524 41.9162 354.249 41.3295C353.974 40.7429 353.836 40.0303 353.836 39.1918C353.836 38.3433 353.975 37.6274 354.254 37.044C354.535 36.4574 354.915 36.0149 355.392 35.7166C355.869 35.415 356.401 35.2642 356.988 35.2642C357.436 35.2642 357.803 35.3404 358.092 35.4929C358.38 35.642 358.609 35.8227 358.778 36.0348C358.947 36.2436 359.078 36.4408 359.171 36.6264H359.245V32.8182H361.05V43H359.28V41.7969H359.171C359.078 41.9825 358.944 42.1797 358.768 42.3885C358.592 42.594 358.36 42.7696 358.072 42.9155C357.784 43.0613 357.421 43.1342 356.983 43.1342ZM357.485 41.6577C357.866 41.6577 358.191 41.5549 358.46 41.3494C358.728 41.1406 358.932 40.8506 359.071 40.4794C359.21 40.1082 359.28 39.6757 359.28 39.1818C359.28 38.688 359.21 38.2588 359.071 37.8942C358.935 37.5296 358.733 37.2462 358.465 37.044C358.2 36.8419 357.873 36.7408 357.485 36.7408C357.084 36.7408 356.749 36.8452 356.481 37.054C356.213 37.2628 356.01 37.5511 355.874 37.919C355.739 38.2869 355.671 38.7079 355.671 39.1818C355.671 39.6591 355.739 40.085 355.874 40.4595C356.014 40.8307 356.218 41.1241 356.486 41.3395C356.758 41.5516 357.091 41.6577 357.485 41.6577Z"
        fill="white" />
</svg>
