<svg width="42" height="42" viewBox="0 0 42 42" fill="none" xmlns="http://www.w3.org/2000/svg">
    <rect width="42" height="42" rx="20" fill="#F9F9F9"/>
    <rect x="0.15" y="0.15" width="41.7" height="41.7" rx="19.85" stroke="#E53935" stroke-opacity="0.2" stroke-width="0.3"/>
    <path fill-rule="evenodd" clip-rule="evenodd" d="M12.8871 13.6855L13.3037 14.8298L14.5199 14.8724C14.7695 14.8806 14.8756 15.1986 14.6712 15.3546L13.717 16.1001L14.0529 17.272C14.1212 17.5111 13.8516 17.7096 13.6411 17.5651L12.6354 16.8868L11.6259 17.5677C11.4182 17.7078 11.15 17.5101 11.218 17.272L11.5539 16.1001L10.5947 15.3507C10.3947 15.1945 10.509 14.8806 10.751 14.8725L11.9672 14.8299L12.3837 13.6856C12.4693 13.4501 12.8024 13.4522 12.8871 13.6856V13.6855ZM29.6161 13.4051L30.0327 14.5495L31.2489 14.592C31.4984 14.6003 31.6046 14.9182 31.4001 15.0742L30.4459 15.8198L30.7819 16.9916C30.8502 17.2307 30.5806 17.4292 30.3701 17.2847L29.3644 16.6064L28.3549 17.2873C28.1472 17.4274 27.879 17.2297 27.947 16.9916L28.2829 15.8197L27.3237 15.0703C27.1237 14.9141 27.238 14.6002 27.4799 14.5921L28.6962 14.5495L29.1127 13.4051C29.1983 13.1696 29.5314 13.1718 29.6161 13.4051ZM21.2163 9.92577L21.6328 11.0701L22.8491 11.1127C23.0986 11.1209 23.2048 11.4389 23.0003 11.5948L22.0461 12.3404L22.382 13.5123C22.4503 13.7514 22.1807 13.9499 21.9702 13.8054L20.9645 13.1271L19.955 13.808C19.7473 13.9481 19.4792 13.7504 19.5471 13.5123L19.883 12.3404L18.9238 11.591C18.7239 11.4348 18.8381 11.1209 19.0801 11.1128L20.2963 11.0702L20.7129 9.92582C20.7984 9.69032 21.1315 9.69247 21.2163 9.92582V9.92577ZM28.1849 29.0261C27.2748 28.1793 26.4855 27.2115 25.8389 26.1498C25.5576 26.2285 25.0787 26.2694 24.9091 26.4056C24.6206 26.6371 24.5577 27.4556 24.0173 27.7207C23.7092 27.8718 23.375 27.7936 23.0382 27.7091C24.0727 29.4483 25.4105 30.9844 27.0085 32.2499L26.3701 29.799C26.3524 29.7309 26.3623 29.6586 26.3976 29.5977C26.4329 29.5369 26.4907 29.4924 26.5586 29.4739L28.1849 29.0261L28.1849 29.0261ZM16.0901 26.1498C15.4436 27.2116 14.6543 28.1794 13.7442 29.0261L15.3705 29.474C15.4384 29.4924 15.4962 29.5369 15.5315 29.5978C15.5668 29.6586 15.5767 29.7309 15.559 29.799L14.9205 32.25C16.5185 30.9844 17.8563 29.4484 18.8908 27.7091C18.554 27.7937 18.2197 27.8718 17.9117 27.7207C17.3712 27.4557 17.3083 26.6371 17.02 26.4057C16.8503 26.2695 16.3714 26.2286 16.0901 26.1498H16.0901ZM21.2089 18.8606L21.9129 20.4441L23.6375 20.6245C23.8726 20.6488 23.9579 20.9383 23.7894 21.0899L22.5004 22.2497L22.8619 23.9456C22.9095 24.1699 22.6672 24.3543 22.4579 24.2286L20.9645 23.3653L19.4636 24.233C19.2629 24.3491 19.0195 24.1714 19.0674 23.9456L19.4286 22.2497L18.1394 21.0902C17.9697 20.9375 18.0542 20.6434 18.3035 20.6233L20.0162 20.4442L20.7202 18.8606C20.8158 18.6449 21.1176 18.6539 21.2089 18.8606L21.2089 18.8606ZM21.4874 20.8025L20.9645 19.6263L20.449 20.7859C20.4318 20.8332 20.4016 20.8747 20.3619 20.9057C20.3222 20.9366 20.2746 20.9557 20.2245 20.9608L18.9461 21.0945L19.9025 21.9546C19.9374 21.9861 19.9635 22.0262 19.978 22.071C19.9925 22.1157 19.9951 22.1635 19.9853 22.2095L19.7171 23.4677L20.8274 22.8259C20.8684 22.8014 20.9151 22.7884 20.9628 22.7881C21.0105 22.7878 21.0575 22.8003 21.0987 22.8242L22.2119 23.4677L21.9455 22.2175C21.934 22.1705 21.9355 22.1212 21.9498 22.0749C21.964 22.0286 21.9906 21.987 22.0266 21.9546L22.983 21.0945L21.7046 20.9603C21.6577 20.9555 21.6129 20.9384 21.5748 20.9107C21.5366 20.8829 21.5065 20.8456 21.4874 20.8025ZM21.566 15.4283C21.0066 14.964 20.9225 14.964 20.363 15.4283C19.7555 15.9325 19.5545 15.9806 18.7881 15.7876C18.1216 15.6199 18.0748 15.6426 17.8047 16.2705C17.4955 16.9892 17.3308 17.1209 16.5615 17.2652C15.8969 17.3898 15.8648 17.4306 15.8859 18.1076C15.9103 18.8898 15.8178 19.079 15.1883 19.5436C14.626 19.9587 14.6133 20.0199 14.926 20.6511C15.2856 21.3767 15.2855 21.5929 14.926 22.3185C14.6133 22.9497 14.626 23.0109 15.1883 23.426C15.8177 23.8906 15.9103 24.0798 15.8859 24.862C15.8648 25.5389 15.8969 25.5797 16.5615 25.7044C17.3307 25.8487 17.4955 25.9804 17.8046 26.6991C18.0747 27.3269 18.1216 27.3498 18.788 27.182C19.5545 26.9891 19.7555 27.0371 20.363 27.5413C20.9225 28.0056 21.0065 28.0056 21.5659 27.5413C22.1735 27.0371 22.3745 26.9891 23.141 27.182C23.8074 27.3498 23.8542 27.3269 24.1243 26.6991C24.4335 25.9804 24.5982 25.8486 25.3675 25.7044C26.0236 25.5813 26.069 25.54 26.0431 24.8631C26.0131 24.079 26.122 23.8826 26.7406 23.426C27.3029 23.0108 27.3156 22.9497 27.0029 22.3185C26.6434 21.593 26.6434 21.3767 27.0029 20.6511C27.3157 20.02 27.3029 19.9587 26.7406 19.5436C26.1112 19.079 26.0186 18.8899 26.043 18.1075C26.0642 17.4306 26.032 17.3898 25.3675 17.2652C24.5982 17.1209 24.4334 16.9892 24.1243 16.2705C23.8543 15.6426 23.8074 15.6198 23.1409 15.7875C22.3745 15.9805 22.1735 15.9324 21.5659 15.4282L21.566 15.4283ZM20.9645 25.9983C23.4572 25.9983 25.478 23.9775 25.478 21.4849C25.478 18.9922 23.4571 16.9714 20.9645 16.9714C18.4719 16.9714 16.451 18.9922 16.451 21.4849C16.451 23.9775 18.4719 25.9983 20.9645 25.9983ZM18.1527 24.2967C19.7055 25.8496 22.2235 25.8496 23.7763 24.2967C25.3292 22.7438 25.3292 20.2259 23.7763 18.673C22.2235 17.1201 19.7055 17.1201 18.1527 18.673C16.5998 20.2259 16.5998 22.7438 18.1527 24.2967Z" fill="#454545"/>
</svg>
