<svg width="38" height="38" viewBox="0 0 38 38" fill="none" xmlns="http://www.w3.org/2000/svg">
    <rect width="38" height="38" rx="19" fill="#F6F7F9" />
    <rect width="38" height="38" rx="19" fill="#F0F0FA" />
    <path fill-rule="evenodd" clip-rule="evenodd"
        d="M11.7221 28.0326H10.4197C10.1885 28.0326 10 27.8455 10 27.616V22.2872C10 22.0577 10.1885 21.8705 10.4197 21.8705H11.7221V28.0326ZM14.9012 18.7896C14.9012 20.3443 13.4944 21.0486 12.3922 21.8705H12.3926C12.3961 25.9851 12.3961 28.0392 12.3926 28.0326H12.3922C13.7418 29.3159 15.0461 29.0808 17.2981 28.6931H19.2691C19.763 28.6931 20.167 28.292 20.167 27.8017C20.167 27.3114 19.763 26.9102 19.2691 26.9102H19.8047C20.2986 26.9102 20.7026 26.509 20.7026 26.0187C20.7026 25.5284 20.2985 25.1272 19.8047 25.1272H20.4348C20.9287 25.1272 21.3327 24.7261 21.3327 24.2358C21.3327 23.7455 20.9287 23.3443 20.4348 23.3443H20.0565C20.5504 23.3443 20.9544 22.9432 20.9544 22.4528C20.9544 21.9625 20.5502 21.5613 20.0565 21.5613H16.7101C16.9808 21.228 17.1254 20.8712 17.1611 20.6135V19.1623C17.1611 17.9282 16.1441 16.9189 14.9011 16.9189V18.7896H14.9012ZM26.0992 17.2226L26.7903 19.0299C26.8 19.0561 26.8173 19.0788 26.84 19.0952C26.8627 19.1116 26.8899 19.1209 26.9179 19.1219L28.8628 19.216C28.9951 19.2224 29.0492 19.3879 28.946 19.4702L27.4282 20.6813C27.4061 20.6985 27.3897 20.7218 27.381 20.7484C27.3723 20.7749 27.3718 20.8034 27.3795 20.8302L27.8904 22.6956C27.9251 22.8225 27.7834 22.9247 27.6726 22.8527L26.0434 21.7939C26.0201 21.7783 25.9926 21.77 25.9645 21.77C25.9365 21.77 25.909 21.7783 25.8857 21.7939L24.2565 22.8527C24.1457 22.9247 24.004 22.8225 24.0388 22.6956L24.5496 20.8302C24.5573 20.8034 24.5567 20.7749 24.5481 20.7484C24.5394 20.7219 24.5229 20.6985 24.5008 20.6813L22.9831 19.4702C22.8799 19.3879 22.9341 19.2225 23.0663 19.2161L25.0112 19.122C25.0393 19.1209 25.0664 19.1116 25.0891 19.0953C25.1119 19.0789 25.1291 19.0561 25.1388 19.0299L25.8299 17.2227C25.8767 17.1004 26.0525 17.1004 26.0992 17.2226ZM23.8176 11.8982L23.5059 13.8064C23.5011 13.8339 23.5046 13.8622 23.516 13.8876C23.5275 13.9131 23.5463 13.9346 23.5701 13.9494L25.207 14.9964C25.3183 15.0675 25.2819 15.2377 25.151 15.2578L23.2267 15.5532C23.1989 15.5571 23.1729 15.5692 23.152 15.5879C23.1311 15.6065 23.1163 15.6309 23.1095 15.658L22.6124 17.527C22.5786 17.6542 22.4044 17.6723 22.3447 17.555L21.467 15.8294C21.4547 15.8043 21.4351 15.7835 21.4107 15.7695C21.3864 15.7556 21.3585 15.7492 21.3304 15.7511L19.3863 15.8593C19.2541 15.8667 19.1828 15.7078 19.2768 15.6152L20.6587 14.2532C20.6789 14.2338 20.6928 14.2089 20.6986 14.1816C20.7045 14.1543 20.702 14.1259 20.6915 14.1L19.987 12.2979C19.9391 12.1753 20.0693 12.0589 20.1871 12.1191L21.9188 13.003C21.9436 13.016 21.9718 13.0215 21.9997 13.0186C22.0277 13.0156 22.0541 13.0045 22.0757 12.9866L23.5844 11.7646C23.6864 11.6819 23.8386 11.7692 23.8176 11.8982ZM15.375 9.09166L16.0661 10.8989C16.0758 10.9251 16.0931 10.9478 16.1158 10.9642C16.1385 10.9806 16.1656 10.9899 16.1937 10.9909L18.1386 11.0851C18.2708 11.0914 18.325 11.2569 18.2218 11.3393L16.704 12.5503C16.6819 12.5675 16.6655 12.5909 16.6568 12.6174C16.6481 12.6439 16.6476 12.6724 16.6553 12.6992L17.1661 14.5647C17.2009 14.6915 17.0592 14.7937 16.9484 14.7217L15.3192 13.6629C15.2959 13.6474 15.2684 13.6391 15.2403 13.6391C15.2122 13.6391 15.1848 13.6474 15.1615 13.6629L13.5323 14.7217C13.4215 14.7937 13.2798 14.6915 13.3145 14.5647L13.8253 12.6992C13.833 12.6724 13.8325 12.6439 13.8238 12.6174C13.8152 12.5909 13.7987 12.5675 13.7766 12.5503L12.2589 11.3392C12.1557 11.2569 12.2098 11.0914 12.3421 11.085L14.287 10.9909C14.315 10.9899 14.3422 10.9806 14.3649 10.9642C14.3876 10.9478 14.4049 10.9251 14.4146 10.8989L15.1057 9.09166C15.1525 8.96945 15.3282 8.96945 15.375 9.09166Z"
        fill="#002147" />
</svg>
