<svg width="42" height="42" viewBox="0 0 42 42" fill="none" xmlns="http://www.w3.org/2000/svg">
    <rect width="42" height="42" rx="20" fill="#F9F9F9" />
    <rect x="0.15" y="0.15" width="41.7" height="41.7" rx="19.85" stroke="#E53935"
        stroke-opacity="0.2" stroke-width="0.3" />
    <path
        d="M21.67 11.217L30.17 15.967C30.4195 16.0916 30.6294 16.2833 30.776 16.5205C30.9226 16.7577 31.0002 17.0312 31 17.31V18.75C31 19.44 30.44 20 29.75 20H29V28H30C30.2652 28 30.5196 28.1054 30.7071 28.2929C30.8946 28.4805 31 28.7348 31 29C31 29.2653 30.8946 29.5196 30.7071 29.7071C30.5196 29.8947 30.2652 30 30 30H12C11.7348 30 11.4804 29.8947 11.2929 29.7071C11.1054 29.5196 11 29.2653 11 29C11 28.7348 11.1054 28.4805 11.2929 28.2929C11.4804 28.1054 11.7348 28 12 28H13V20H12.25C11.56 20 11 19.44 11 18.75V17.31C11 16.788 11.27 16.308 11.706 16.036L20.329 11.217C20.5373 11.1128 20.7671 11.0586 21 11.0586C21.2329 11.0586 21.4617 11.1128 21.67 11.217ZM27 20H15V28H18V22H20V28H22V22H24V28H27V20ZM21 13.118L13 17.618V18H29V17.618L21 13.118ZM21 15C21.2652 15 21.5196 15.1054 21.7071 15.2929C21.8946 15.4805 22 15.7348 22 16C22 16.2653 21.8946 16.5196 21.7071 16.7071C21.5196 16.8947 21.2652 17 21 17C20.7348 17 20.4804 16.8947 20.2929 16.7071C20.1054 16.5196 20 16.2653 20 16C20 15.7348 20.1054 15.4805 20.2929 15.2929C20.4804 15.1054 20.7348 15 21 15Z"
        fill="#454545" />
</svg>
