<svg width="48" height="48" viewBox="0 0 48 48" fill="none" xmlns="http://www.w3.org/2000/svg">
    <circle cx="24" cy="24" r="24" fill="#F5F5FF"/>
    <path fill-rule="evenodd" clip-rule="evenodd" d="M28.8421 14.9943C28.6467 14.6821 28.3589 14.4386 28.0186 14.2977C27.6784 14.1567 27.3027 14.1254 26.9438 14.208L24.3966 14.7931C24.1356 14.8531 23.8643 14.8531 23.6033 14.7931L21.0561 14.208C20.6972 14.1254 20.3215 14.1567 19.9812 14.2977C19.641 14.4386 19.3531 14.6821 19.1578 14.9943L17.7694 17.2099C17.6278 17.4366 17.4365 17.6278 17.2098 17.7709L14.9942 19.1593C14.6825 19.3545 14.4394 19.6418 14.2985 19.9815C14.1576 20.3212 14.126 20.6963 14.2079 21.0548L14.793 23.6048C14.8528 23.8653 14.8528 24.1361 14.793 24.3967L14.2079 26.9453C14.1256 27.3039 14.1571 27.6794 14.298 28.0193C14.439 28.3593 14.6823 28.6469 14.9942 28.8422L17.2098 30.2305C17.4365 30.3722 17.6278 30.5634 17.7708 30.7901L19.1592 33.0058C19.5587 33.6447 20.3208 33.9606 21.0561 33.792L23.6033 33.2069C23.8643 33.1469 24.1356 33.1469 24.3966 33.2069L26.9452 33.792C27.3039 33.8743 27.6793 33.8428 28.0192 33.7019C28.3592 33.561 28.6468 33.3177 28.8421 33.0058L30.2304 30.7901C30.3721 30.5634 30.5633 30.3722 30.79 30.2305L33.0071 28.8422C33.319 28.6466 33.5622 28.3587 33.7029 28.0184C33.8436 27.6782 33.8747 27.3026 33.7919 26.9438L33.2083 24.3967C33.1483 24.1356 33.1483 23.8644 33.2083 23.6033L33.7934 21.0548C33.8758 20.6962 33.8445 20.3209 33.7038 19.981C33.5632 19.641 33.3202 19.3533 33.0085 19.1578L30.7914 17.7695C30.5651 17.6276 30.3738 17.4363 30.2318 17.2099L28.8421 14.9943ZM28.1295 20.8408C28.2171 20.6797 28.2388 20.4909 28.1901 20.3141C28.1413 20.1373 28.0259 19.9863 27.868 19.8929C27.7102 19.7994 27.5223 19.7709 27.3438 19.8132C27.1654 19.8555 27.0103 19.9654 26.9112 20.1198L23.2066 26.3899L20.9697 24.2479C20.9033 24.1798 20.8239 24.1257 20.7362 24.0889C20.6485 24.0521 20.5543 24.0334 20.4592 24.0338C20.364 24.0342 20.27 24.0538 20.1826 24.0913C20.0952 24.1289 20.0163 24.1836 19.9505 24.2524C19.8847 24.3211 19.8335 24.4023 19.7998 24.4913C19.7661 24.5802 19.7507 24.6751 19.7545 24.7701C19.7582 24.8651 19.7811 24.9585 19.8217 25.0445C19.8623 25.1305 19.9198 25.2074 19.9908 25.2708L22.8723 28.0318C22.9494 28.1056 23.0422 28.1609 23.1437 28.1938C23.2452 28.2267 23.3528 28.2361 23.4585 28.2216C23.5642 28.207 23.6653 28.1687 23.7541 28.1096C23.843 28.0505 23.9173 27.9721 23.9716 27.8803L28.1295 20.8408Z" fill="#3B82F6"/>
</svg>
