<svg width="48" height="48" viewBox="0 0 48 48" fill="none" xmlns="http://www.w3.org/2000/svg">
    <circle cx="24" cy="24" r="24" fill="#F5F5FF" />
    <path fill-rule="evenodd" clip-rule="evenodd"
        d="M23.9999 33.6C29.3018 33.6 33.5999 29.3019 33.5999 24C33.5999 18.6981 29.3018 14.4 23.9999 14.4C18.698 14.4 14.3999 18.6981 14.3999 24C14.3999 29.3019 18.698 33.6 23.9999 33.6ZM22.4484 20.7515C21.9798 20.2828 21.22 20.2828 20.7514 20.7515C20.2827 21.2201 20.2827 21.9799 20.7514 22.4485L22.3028 24L20.7514 25.5515C20.2827 26.0201 20.2827 26.7799 20.7514 27.2485C21.22 27.7172 21.9798 27.7172 22.4484 27.2485L23.9999 25.6971L25.5514 27.2485C26.02 27.7172 26.7798 27.7172 27.2484 27.2485C27.7171 26.7799 27.7171 26.0201 27.2484 25.5515L25.697 24L27.2484 22.4485C27.7171 21.9799 27.7171 21.2201 27.2484 20.7515C26.7798 20.2828 26.02 20.2828 25.5514 20.7515L23.9999 22.3029L22.4484 20.7515Z"
        fill="#D93A3A" />
</svg>
