<svg width="74" height="72" viewBox="0 0 74 72" fill="none" xmlns="http://www.w3.org/2000/svg">
    <mask id="path-1-inside-1_424_1293" fill="white">
        <path
            d="M39.6531 26.324C39.6531 25.9814 39.3604 25.7036 38.9993 25.7036H32.265C31.9039 25.7036 31.6111 25.9814 31.6111 26.324C31.6111 26.6667 31.9039 26.9444 32.265 26.9444H38.9993C39.3604 26.9444 39.6531 26.6667 39.6531 26.324ZM32.265 28.1852C31.9039 28.1852 31.6111 28.463 31.6111 28.8056C31.6111 29.1483 31.9039 29.426 32.265 29.426H36.3549C36.716 29.426 37.0087 29.1483 37.0087 28.8056C37.0087 28.463 36.716 28.1852 36.3549 28.1852H32.265Z" />
    </mask>
    <path
        d="M39.6531 26.324H41.6531C41.6531 24.7792 40.3648 23.7036 38.9993 23.7036V25.7036V27.7036C38.3559 27.7036 37.6531 27.1835 37.6531 26.324H39.6531ZM38.9993 25.7036V23.7036H32.265V25.7036V27.7036H38.9993V25.7036ZM32.265 25.7036V23.7036C30.8994 23.7036 29.6111 24.7792 29.6111 26.324H31.6111H33.6111C33.6111 27.1835 32.9083 27.7036 32.265 27.7036V25.7036ZM31.6111 26.324H29.6111C29.6111 27.8688 30.8994 28.9444 32.265 28.9444V26.9444V24.9444C32.9083 24.9444 33.6111 25.4645 33.6111 26.324H31.6111ZM32.265 26.9444V28.9444H38.9993V26.9444V24.9444H32.265V26.9444ZM38.9993 26.9444V28.9444C40.3648 28.9444 41.6531 27.8688 41.6531 26.324H39.6531H37.6531C37.6531 25.4645 38.3559 24.9444 38.9993 24.9444V26.9444ZM32.265 28.1852V26.1852C30.8994 26.1852 29.6111 27.2608 29.6111 28.8056H31.6111H33.6111C33.6111 29.6651 32.9083 30.1852 32.265 30.1852V28.1852ZM31.6111 28.8056H29.6111C29.6111 30.3504 30.8994 31.426 32.265 31.426V29.426V27.426C32.9083 27.426 33.6111 27.9461 33.6111 28.8056H31.6111ZM32.265 29.426V31.426H36.3549V29.426V27.426H32.265V29.426ZM36.3549 29.426V31.426C37.7204 31.426 39.0087 30.3504 39.0087 28.8056H37.0087H35.0087C35.0087 27.9461 35.7116 27.426 36.3549 27.426V29.426ZM37.0087 28.8056H39.0087C39.0087 27.2608 37.7204 26.1852 36.3549 26.1852V28.1852V30.1852C35.7116 30.1852 35.0087 29.6651 35.0087 28.8056H37.0087ZM36.3549 28.1852V26.1852H32.265V28.1852V30.1852H36.3549V28.1852Z"
        fill="#FF6F00" mask="url(#path-1-inside-1_424_1293)" />
    <path
        d="M31.6152 20H39.6533C40.8442 20 41.7685 20.9137 41.7686 21.9814V25.7969C41.7686 25.839 41.7251 25.9169 41.6152 25.917C41.5052 25.917 41.4609 25.839 41.4609 25.7969V21.9814C41.4608 20.9968 40.6254 20.2412 39.6533 20.2412H31.6152C30.6432 20.2412 29.8077 20.9968 29.8076 21.9814V32.9004C29.8076 33.8851 30.6431 34.6416 31.6152 34.6416H33.8018C33.9116 34.6416 33.9559 34.7196 33.9561 34.7617C33.9561 34.8038 33.9118 34.8818 33.8018 34.8818H31.6152C30.4243 34.8818 29.5 33.9682 29.5 32.9004V21.9814L29.5107 21.7832C29.6167 20.803 30.4988 20 31.6152 20Z"
        stroke="#FF6F00" />
    <path
        d="M40.9969 28.8445C41.5681 28.3024 42.5099 28.3028 43.0818 28.8455C43.6389 29.3741 43.6388 30.2232 43.0818 30.7517L39.5008 34.1443C39.4834 34.1607 39.4587 34.1747 39.4295 34.1824L36.7908 34.8757C36.7603 34.8837 36.7277 34.8845 36.6971 34.8767C36.6666 34.8689 36.6415 34.8539 36.6238 34.8367C36.6064 34.8197 36.5969 34.8006 36.5926 34.7839C36.5884 34.7675 36.5892 34.7507 36.5945 34.7341L37.3758 32.2917C37.3808 32.2762 37.3907 32.2594 37.407 32.2439L40.9969 28.8455V28.8445ZM40.1815 29.9929L37.7596 32.2859L37.6658 32.3748L37.6268 32.4968L37.2381 33.7107L36.9608 34.5779L37.8416 34.3464L39.1697 33.9978L39.2928 33.9646L39.3865 33.8767L41.7938 31.5964L42.1766 31.2341L41.7938 30.8708L40.869 29.9929L40.5252 29.6667L40.1815 29.9929ZM42.8455 28.9968C42.4257 28.5989 41.7694 28.5742 41.3201 28.9226L41.2332 28.9968L41.1072 29.1169L40.7244 29.4792L41.1072 29.8425L42.0311 30.7195L42.3748 31.0457L42.7195 30.7205L42.8465 30.6003V30.5994C43.3088 30.1605 43.3079 29.4356 42.8455 28.9968ZM32.2654 23.7224H38.9988C39.1086 23.7224 39.1529 23.8003 39.1531 23.8425C39.1531 23.8846 39.1088 23.9636 38.9988 23.9636H32.2654C32.1554 23.9636 32.1111 23.8846 32.1111 23.8425C32.1113 23.8003 32.1557 23.7224 32.2654 23.7224Z"
        stroke="#FF6F00" />
    <path
        d="M19.7782 47.7173H18.1845C18.139 47.456 18.0552 47.2244 17.9331 47.0227C17.8109 46.8182 17.6589 46.6449 17.4771 46.5028C17.2953 46.3608 17.0879 46.2543 16.8549 46.1832C16.6248 46.1094 16.3762 46.0724 16.1092 46.0724C15.6348 46.0724 15.2143 46.1918 14.8478 46.4304C14.4814 46.6662 14.1944 47.0128 13.987 47.4702C13.7797 47.9247 13.676 48.4801 13.676 49.1364C13.676 49.804 13.7797 50.3665 13.987 50.8239C14.1973 51.2784 14.4842 51.6222 14.8478 51.8551C15.2143 52.0852 15.6333 52.2003 16.1049 52.2003C16.3663 52.2003 16.6106 52.1662 16.8379 52.098C17.068 52.027 17.274 51.9233 17.4558 51.7869C17.6404 51.6506 17.7953 51.483 17.9203 51.2841C18.0481 51.0852 18.1362 50.858 18.1845 50.6023L19.7782 50.6108C19.7186 51.0256 19.5893 51.4148 19.3904 51.7784C19.1944 52.142 18.9373 52.4631 18.6191 52.7415C18.301 53.017 17.9288 53.233 17.5027 53.3892C17.0765 53.5426 16.6035 53.6193 16.0836 53.6193C15.3166 53.6193 14.6319 53.4418 14.0297 53.0866C13.4274 52.7315 12.9529 52.2188 12.6064 51.5483C12.2598 50.8778 12.0865 50.0739 12.0865 49.1364C12.0865 48.196 12.2612 47.392 12.6106 46.7244C12.96 46.054 13.4359 45.5412 14.0382 45.1861C14.6404 44.831 15.3223 44.6534 16.0836 44.6534C16.5694 44.6534 17.0211 44.7216 17.4387 44.858C17.8564 44.9943 18.2285 45.1946 18.5552 45.4588C18.8819 45.7202 19.1504 46.0412 19.3606 46.4219C19.5737 46.7997 19.7129 47.2315 19.7782 47.7173ZM24.013 53.6278C23.3738 53.6278 22.8198 53.4872 22.351 53.206C21.8823 52.9247 21.5186 52.5312 21.2601 52.0256C21.0044 51.5199 20.8766 50.929 20.8766 50.2528C20.8766 49.5767 21.0044 48.9844 21.2601 48.4759C21.5186 47.9673 21.8823 47.5724 22.351 47.2912C22.8198 47.0099 23.3738 46.8693 24.013 46.8693C24.6522 46.8693 25.2061 47.0099 25.6749 47.2912C26.1436 47.5724 26.5059 47.9673 26.7615 48.4759C27.0201 48.9844 27.1493 49.5767 27.1493 50.2528C27.1493 50.929 27.0201 51.5199 26.7615 52.0256C26.5059 52.5312 26.1436 52.9247 25.6749 53.206C25.2061 53.4872 24.6522 53.6278 24.013 53.6278ZM24.0215 52.392C24.3681 52.392 24.6578 52.2969 24.8908 52.1065C25.1238 51.9134 25.2971 51.6548 25.4107 51.331C25.5272 51.0071 25.5854 50.6463 25.5854 50.2486C25.5854 49.848 25.5272 49.4858 25.4107 49.1619C25.2971 48.8352 25.1238 48.5753 24.8908 48.3821C24.6578 48.1889 24.3681 48.0923 24.0215 48.0923C23.6664 48.0923 23.3709 48.1889 23.1351 48.3821C22.9022 48.5753 22.7275 48.8352 22.611 49.1619C22.4973 49.4858 22.4405 49.848 22.4405 50.2486C22.4405 50.6463 22.4973 51.0071 22.611 51.331C22.7275 51.6548 22.9022 51.9134 23.1351 52.1065C23.3709 52.2969 23.6664 52.392 24.0215 52.392ZM30.0012 49.6648V53.5H28.4586V46.9545H29.9331V48.0668H30.0098C30.1603 47.7003 30.4004 47.4091 30.7299 47.1932C31.0623 46.9773 31.4728 46.8693 31.9615 46.8693C32.4132 46.8693 32.8066 46.9659 33.1419 47.1591C33.4799 47.3523 33.7413 47.6321 33.926 47.9986C34.1135 48.3651 34.2058 48.8097 34.2029 49.3324V53.5H32.6603V49.571C32.6603 49.1335 32.5467 48.7912 32.3194 48.544C32.095 48.2969 31.7839 48.1733 31.3862 48.1733C31.1163 48.1733 30.8762 48.233 30.666 48.3523C30.4586 48.4687 30.2953 48.6378 30.176 48.8594C30.0595 49.081 30.0012 49.3494 30.0012 49.6648ZM39.0396 46.9545V48.1477H35.2768V46.9545H39.0396ZM36.2058 45.3864H37.7484V51.5312C37.7484 51.7386 37.7797 51.8977 37.8422 52.0085C37.9075 52.1165 37.9927 52.1903 38.0978 52.2301C38.2029 52.2699 38.3194 52.2898 38.4473 52.2898C38.5439 52.2898 38.6319 52.2827 38.7115 52.2685C38.7939 52.2543 38.8564 52.2415 38.899 52.2301L39.1589 53.4361C39.0765 53.4645 38.9586 53.4957 38.8052 53.5298C38.6547 53.5639 38.47 53.5838 38.2512 53.5895C37.8649 53.6009 37.5169 53.5426 37.2072 53.4148C36.8975 53.2841 36.6518 53.0824 36.47 52.8097C36.291 52.5369 36.2029 52.196 36.2058 51.7869V45.3864ZM40.3297 53.5V46.9545H41.8255V48.0455H41.8936C42.013 47.6676 42.2175 47.3764 42.5073 47.1719C42.7999 46.9645 43.1337 46.8608 43.5087 46.8608C43.5939 46.8608 43.6891 46.8651 43.7942 46.8736C43.9022 46.8793 43.9917 46.8892 44.0627 46.9034V48.3224C43.9973 48.2997 43.8936 48.2798 43.7516 48.2628C43.6124 48.2429 43.4775 48.233 43.3468 48.233C43.0655 48.233 42.8127 48.294 42.5882 48.4162C42.3667 48.5355 42.1919 48.7017 42.0641 48.9148C41.9363 49.1278 41.8723 49.3736 41.8723 49.652V53.5H40.3297ZM46.8539 53.6321C46.4391 53.6321 46.0655 53.5582 45.7331 53.4105C45.4036 53.2599 45.1422 53.0384 44.949 52.7457C44.7587 52.4531 44.6635 52.0923 44.6635 51.6634C44.6635 51.294 44.7317 50.9886 44.8681 50.7472C45.0044 50.5057 45.1905 50.3125 45.4263 50.1676C45.6621 50.0227 45.9277 49.9134 46.2232 49.8395C46.5215 49.7628 46.8297 49.7074 47.1479 49.6733C47.5314 49.6335 47.8425 49.598 48.0811 49.5668C48.3198 49.5327 48.4931 49.4815 48.601 49.4134C48.7118 49.3423 48.7672 49.233 48.7672 49.0852V49.0597C48.7672 48.7386 48.6721 48.4901 48.4817 48.3139C48.2914 48.1378 48.0172 48.0497 47.6593 48.0497C47.2814 48.0497 46.9817 48.1321 46.7601 48.2969C46.5414 48.4616 46.3936 48.6562 46.3169 48.8807L44.8766 48.6761C44.9902 48.2784 45.1777 47.946 45.4391 47.679C45.7005 47.4091 46.0201 47.2074 46.3979 47.0739C46.7757 46.9375 47.1934 46.8693 47.6507 46.8693C47.9661 46.8693 48.28 46.9062 48.5925 46.9801C48.905 47.054 49.1905 47.1761 49.449 47.3466C49.7076 47.5142 49.915 47.7429 50.0712 48.0327C50.2303 48.3224 50.3098 48.6847 50.3098 49.1193V53.5H48.8269V52.6009H48.7757C48.682 52.7827 48.5499 52.9531 48.3794 53.1122C48.2118 53.2685 48.0002 53.3949 47.7445 53.4915C47.4917 53.5852 47.1948 53.6321 46.8539 53.6321ZM47.2544 52.4986C47.5641 52.4986 47.8326 52.4375 48.0598 52.3153C48.2871 52.1903 48.4618 52.0256 48.584 51.821C48.709 51.6165 48.7715 51.3935 48.7715 51.152V50.3807C48.7232 50.4205 48.6408 50.4574 48.5243 50.4915C48.4107 50.5256 48.2828 50.5554 48.1408 50.581C47.9988 50.6065 47.8581 50.6293 47.7189 50.6491C47.5797 50.669 47.459 50.6861 47.3567 50.7003C47.1266 50.7315 46.9206 50.7827 46.7388 50.8537C46.557 50.9247 46.4135 51.0241 46.3084 51.152C46.2033 51.277 46.1507 51.4389 46.1507 51.6378C46.1507 51.9219 46.2544 52.1364 46.4618 52.2812C46.6692 52.4261 46.9334 52.4986 47.2544 52.4986ZM54.7161 53.6278C54.0627 53.6278 53.5016 53.4844 53.0328 53.1974C52.5669 52.9105 52.2076 52.5142 51.9547 52.0085C51.7047 51.5 51.5797 50.9148 51.5797 50.2528C51.5797 49.5881 51.7076 49.0014 51.9632 48.4929C52.2189 47.9815 52.5797 47.5838 53.0456 47.2997C53.5144 47.0128 54.0684 46.8693 54.7076 46.8693C55.2388 46.8693 55.709 46.9673 56.1181 47.1634C56.53 47.3565 56.8581 47.6307 57.1025 47.9858C57.3468 48.3381 57.486 48.75 57.5201 49.2216H56.0456C55.986 48.9062 55.8439 48.6435 55.6195 48.4332C55.3979 48.2202 55.101 48.1136 54.7289 48.1136C54.4135 48.1136 54.1365 48.1989 53.8979 48.3693C53.6593 48.5369 53.4732 48.7784 53.3397 49.0938C53.209 49.4091 53.1436 49.7869 53.1436 50.2273C53.1436 50.6733 53.209 51.0568 53.3397 51.3778C53.4703 51.696 53.6536 51.9418 53.8894 52.1151C54.128 52.2855 54.4078 52.3707 54.7289 52.3707C54.9561 52.3707 55.1593 52.3281 55.3382 52.2429C55.5201 52.1548 55.6721 52.0284 55.7942 51.8636C55.9164 51.6989 56.0002 51.4986 56.0456 51.2628H57.5201C57.4831 51.7259 57.3468 52.1364 57.111 52.4943C56.8752 52.8494 56.5542 53.1278 56.1479 53.3295C55.7417 53.5284 55.2644 53.6278 54.7161 53.6278ZM62.0552 46.9545V48.1477H58.2924V46.9545H62.0552ZM59.2214 45.3864H60.764V51.5312C60.764 51.7386 60.7953 51.8977 60.8578 52.0085C60.9231 52.1165 61.0083 52.1903 61.1135 52.2301C61.2186 52.2699 61.335 52.2898 61.4629 52.2898C61.5595 52.2898 61.6475 52.2827 61.7271 52.2685C61.8095 52.2543 61.872 52.2415 61.9146 52.2301L62.1745 53.4361C62.0922 53.4645 61.9743 53.4957 61.8208 53.5298C61.6703 53.5639 61.4856 53.5838 61.2669 53.5895C60.8805 53.6009 60.5325 53.5426 60.2228 53.4148C59.9132 53.2841 59.6674 53.0824 59.4856 52.8097C59.3066 52.5369 59.2186 52.196 59.2214 51.7869V45.3864Z"
        fill="#FF6F00" />
    <path d="M21 72C21 69.7909 22.7909 68 25 68H49C51.2091 68 53 69.7909 53 72H21Z"
        fill="#FF6F00" />
</svg>
