<svg width="74" height="72" viewBox="0 0 74 72" fill="none" xmlns="http://www.w3.org/2000/svg">
    <mask id="path-1-inside-1_424_108" fill="white">
        <path
            d="M39.6531 26.324C39.6531 25.9813 39.3604 25.7036 38.9993 25.7036H32.265C31.9039 25.7036 31.6111 25.9813 31.6111 26.324C31.6111 26.6666 31.9039 26.9444 32.265 26.9444H38.9993C39.3604 26.9444 39.6531 26.6666 39.6531 26.324ZM32.265 28.1852C31.9039 28.1852 31.6111 28.4629 31.6111 28.8056C31.6111 29.1482 31.9039 29.426 32.265 29.426H36.3549C36.716 29.426 37.0087 29.1482 37.0087 28.8056C37.0087 28.4629 36.716 28.1852 36.3549 28.1852H32.265Z" />
    </mask>
    <path
        d="M39.6531 26.324H41.6531C41.6531 24.7792 40.3648 23.7036 38.9993 23.7036V25.7036V27.7036C38.3559 27.7036 37.6531 27.1835 37.6531 26.324H39.6531ZM38.9993 25.7036V23.7036H32.265V25.7036V27.7036H38.9993V25.7036ZM32.265 25.7036V23.7036C30.8994 23.7036 29.6111 24.7792 29.6111 26.324H31.6111H33.6111C33.6111 27.1835 32.9083 27.7036 32.265 27.7036V25.7036ZM31.6111 26.324H29.6111C29.6111 27.8688 30.8994 28.9444 32.265 28.9444V26.9444V24.9444C32.9083 24.9444 33.6111 25.4645 33.6111 26.324H31.6111ZM32.265 26.9444V28.9444H38.9993V26.9444V24.9444H32.265V26.9444ZM38.9993 26.9444V28.9444C40.3648 28.9444 41.6531 27.8688 41.6531 26.324H39.6531H37.6531C37.6531 25.4645 38.3559 24.9444 38.9993 24.9444V26.9444ZM32.265 28.1852V26.1852C30.8994 26.1852 29.6111 27.2608 29.6111 28.8056H31.6111H33.6111C33.6111 29.6651 32.9083 30.1852 32.265 30.1852V28.1852ZM31.6111 28.8056H29.6111C29.6111 30.3504 30.8994 31.426 32.265 31.426V29.426V27.426C32.9083 27.426 33.6111 27.9461 33.6111 28.8056H31.6111ZM32.265 29.426V31.426H36.3549V29.426V27.426H32.265V29.426ZM36.3549 29.426V31.426C37.7204 31.426 39.0087 30.3504 39.0087 28.8056H37.0087H35.0087C35.0087 27.9461 35.7116 27.426 36.3549 27.426V29.426ZM37.0087 28.8056H39.0087C39.0087 27.2608 37.7204 26.1852 36.3549 26.1852V28.1852V30.1852C35.7116 30.1852 35.0087 29.6651 35.0087 28.8056H37.0087ZM36.3549 28.1852V26.1852H32.265V28.1852V30.1852H36.3549V28.1852Z"
        fill="#7E91A8" mask="url(#path-1-inside-1_424_108)" />
    <path
        d="M31.6152 20H39.6533C40.8442 20 41.7685 20.9137 41.7686 21.9814V25.7969C41.7686 25.839 41.7251 25.9169 41.6152 25.917C41.5052 25.917 41.4609 25.839 41.4609 25.7969V21.9814C41.4608 20.9968 40.6254 20.2412 39.6533 20.2412H31.6152C30.6432 20.2412 29.8077 20.9968 29.8076 21.9814V32.9004C29.8076 33.8851 30.6431 34.6416 31.6152 34.6416H33.8018C33.9116 34.6416 33.9559 34.7196 33.9561 34.7617C33.9561 34.8038 33.9118 34.8818 33.8018 34.8818H31.6152C30.4243 34.8818 29.5 33.9682 29.5 32.9004V21.9814L29.5107 21.7832C29.6167 20.803 30.4988 20 31.6152 20Z"
        stroke="#7E91A8" />
    <path
        d="M40.9969 28.8446C41.5681 28.3025 42.5099 28.3029 43.0818 28.8456C43.6389 29.3741 43.6388 30.2233 43.0818 30.7518L39.5008 34.1444C39.4834 34.1608 39.4587 34.1748 39.4295 34.1825L36.7908 34.8758C36.7603 34.8838 36.7277 34.8846 36.6971 34.8768C36.6666 34.869 36.6415 34.854 36.6238 34.8368C36.6064 34.8198 36.5969 34.8007 36.5926 34.784C36.5884 34.7676 36.5892 34.7508 36.5945 34.7342L37.3758 32.2918C37.3808 32.2763 37.3907 32.2595 37.407 32.244L40.9969 28.8456V28.8446ZM40.1815 29.993L37.7596 32.286L37.6658 32.3748L37.6268 32.4969L37.2381 33.7108L36.9608 34.578L37.8416 34.3465L39.1697 33.9979L39.2928 33.9647L39.3865 33.8768L41.7938 31.5965L42.1766 31.2342L41.7938 30.8709L40.869 29.993L40.5252 29.6668L40.1815 29.993ZM42.8455 28.9969C42.4257 28.599 41.7694 28.5743 41.3201 28.9227L41.2332 28.9969L41.1072 29.117L40.7244 29.4793L41.1072 29.8426L42.0311 30.7196L42.3748 31.0457L42.7195 30.7206L42.8465 30.6004V30.5995C43.3088 30.1606 43.3079 29.4357 42.8455 28.9969ZM32.2654 23.7225H38.9988C39.1086 23.7225 39.1529 23.8004 39.1531 23.8426C39.1531 23.8847 39.1088 23.9637 38.9988 23.9637H32.2654C32.1554 23.9637 32.1111 23.8847 32.1111 23.8426C32.1113 23.8004 32.1557 23.7225 32.2654 23.7225Z"
        stroke="#7E91A8" />
    <path
        d="M20.3002 47.5H19.2434C19.1809 47.196 19.0716 46.929 18.9153 46.6989C18.7619 46.4688 18.5744 46.2756 18.3528 46.1193C18.1341 45.9602 17.8912 45.8409 17.6241 45.7614C17.3571 45.6818 17.0787 45.642 16.7889 45.642C16.2605 45.642 15.7818 45.7756 15.3528 46.0426C14.9267 46.3097 14.5872 46.7031 14.3343 47.223C14.0843 47.7429 13.9593 48.3807 13.9593 49.1364C13.9593 49.892 14.0843 50.5298 14.3343 51.0497C14.5872 51.5696 14.9267 51.9631 15.3528 52.2301C15.7818 52.4972 16.2605 52.6307 16.7889 52.6307C17.0787 52.6307 17.3571 52.5909 17.6241 52.5114C17.8912 52.4318 18.1341 52.3139 18.3528 52.1577C18.5744 51.9986 18.7619 51.804 18.9153 51.5739C19.0716 51.3409 19.1809 51.0739 19.2434 50.7727H20.3002C20.2207 51.2187 20.0758 51.6179 19.8656 51.9702C19.6554 52.3224 19.394 52.6222 19.0815 52.8693C18.769 53.1136 18.4181 53.2997 18.0289 53.4276C17.6426 53.5554 17.2292 53.6193 16.7889 53.6193C16.0446 53.6193 15.3826 53.4375 14.8031 53.0739C14.2235 52.7102 13.7676 52.1932 13.4352 51.5227C13.1028 50.8523 12.9366 50.0568 12.9366 49.1364C12.9366 48.2159 13.1028 47.4205 13.4352 46.75C13.7676 46.0795 14.2235 45.5625 14.8031 45.1989C15.3826 44.8352 16.0446 44.6534 16.7889 44.6534C17.2292 44.6534 17.6426 44.7173 18.0289 44.8452C18.4181 44.973 18.769 45.1605 19.0815 45.4077C19.394 45.652 19.6554 45.9503 19.8656 46.3026C20.0758 46.652 20.2207 47.0511 20.3002 47.5ZM24.5307 53.6364C23.9398 53.6364 23.4213 53.4957 22.9753 53.2145C22.5321 52.9332 22.1855 52.5398 21.9355 52.0341C21.6884 51.5284 21.5648 50.9375 21.5648 50.2614C21.5648 49.5795 21.6884 48.9844 21.9355 48.4759C22.1855 47.9673 22.5321 47.5724 22.9753 47.2912C23.4213 47.0099 23.9398 46.8693 24.5307 46.8693C25.1216 46.8693 25.6387 47.0099 26.0819 47.2912C26.5279 47.5724 26.8745 47.9673 27.1216 48.4759C27.3716 48.9844 27.4966 49.5795 27.4966 50.2614C27.4966 50.9375 27.3716 51.5284 27.1216 52.0341C26.8745 52.5398 26.5279 52.9332 26.0819 53.2145C25.6387 53.4957 25.1216 53.6364 24.5307 53.6364ZM24.5307 52.733C24.9796 52.733 25.3489 52.6179 25.6387 52.3878C25.9284 52.1577 26.1429 51.8551 26.2821 51.4801C26.4213 51.1051 26.4909 50.6989 26.4909 50.2614C26.4909 49.8239 26.4213 49.4162 26.2821 49.0384C26.1429 48.6605 25.9284 48.3551 25.6387 48.1222C25.3489 47.8892 24.9796 47.7727 24.5307 47.7727C24.0819 47.7727 23.7125 47.8892 23.4228 48.1222C23.133 48.3551 22.9185 48.6605 22.7793 49.0384C22.6401 49.4162 22.5705 49.8239 22.5705 50.2614C22.5705 50.6989 22.6401 51.1051 22.7793 51.4801C22.9185 51.8551 23.133 52.1577 23.4228 52.3878C23.7125 52.6179 24.0819 52.733 24.5307 52.733ZM30.0375 49.5625V53.5H29.0318V46.9545H30.0034V47.9773H30.0886C30.242 47.6449 30.475 47.3778 30.7875 47.1761C31.1 46.9716 31.5034 46.8693 31.9977 46.8693C32.4409 46.8693 32.8287 46.9602 33.161 47.142C33.4934 47.321 33.752 47.5938 33.9366 47.9602C34.1213 48.3239 34.2136 48.7841 34.2136 49.3409V53.5H33.2079V49.4091C33.2079 48.8949 33.0744 48.4943 32.8074 48.2074C32.5403 47.9176 32.1738 47.7727 31.7079 47.7727C31.3869 47.7727 31.1 47.8423 30.8471 47.9815C30.5971 48.1207 30.3997 48.3239 30.2548 48.5909C30.1099 48.858 30.0375 49.1818 30.0375 49.5625ZM38.8979 46.9545V47.8068H35.5059V46.9545H38.8979ZM36.4945 45.3864H37.5002V51.625C37.5002 51.9091 37.5414 52.1222 37.6238 52.2642C37.709 52.4034 37.8169 52.4972 37.9476 52.5455C38.0811 52.5909 38.2218 52.6136 38.3695 52.6136C38.4803 52.6136 38.5712 52.608 38.6422 52.5966C38.7132 52.5824 38.7701 52.571 38.8127 52.5625L39.0172 53.4659C38.949 53.4915 38.8539 53.517 38.7317 53.5426C38.6096 53.571 38.4547 53.5852 38.2672 53.5852C37.9831 53.5852 37.7047 53.5241 37.432 53.402C37.1621 53.2798 36.9377 53.0938 36.7587 52.8438C36.5826 52.5938 36.4945 52.2784 36.4945 51.8977V45.3864ZM40.4107 53.5V46.9545H41.3823V47.9432H41.4505C41.5698 47.6193 41.7857 47.3565 42.0982 47.1548C42.4107 46.9531 42.763 46.8523 43.155 46.8523C43.2289 46.8523 43.3212 46.8537 43.432 46.8565C43.5428 46.8594 43.6266 46.8636 43.6834 46.8693V47.892C43.6493 47.8835 43.5712 47.8707 43.449 47.8537C43.3297 47.8338 43.2033 47.8239 43.0698 47.8239C42.7516 47.8239 42.4675 47.8906 42.2175 48.0241C41.9703 48.1548 41.7743 48.3366 41.6294 48.5696C41.4874 48.7997 41.4164 49.0625 41.4164 49.358V53.5H40.4107ZM46.8017 53.6534C46.3869 53.6534 46.0105 53.5753 45.6724 53.419C45.3343 53.2599 45.0659 53.0312 44.867 52.733C44.6681 52.4318 44.5687 52.0682 44.5687 51.642C44.5687 51.267 44.6426 50.9631 44.7903 50.7301C44.938 50.4943 45.1355 50.3097 45.3826 50.1761C45.6298 50.0426 45.9025 49.9432 46.2008 49.8778C46.502 49.8097 46.8045 49.7557 47.1085 49.7159C47.5062 49.6648 47.8287 49.6264 48.0758 49.6009C48.3258 49.5724 48.5076 49.5256 48.6213 49.4602C48.7377 49.3949 48.796 49.2812 48.796 49.1193V49.0852C48.796 48.6648 48.6809 48.3381 48.4508 48.1051C48.2235 47.8722 47.8784 47.7557 47.4153 47.7557C46.9352 47.7557 46.5588 47.8608 46.286 48.071C46.0133 48.2812 45.8216 48.5057 45.7108 48.7443L44.7562 48.4034C44.9267 48.0057 45.1539 47.696 45.438 47.4744C45.725 47.25 46.0375 47.0937 46.3755 47.0057C46.7164 46.9148 47.0517 46.8693 47.3812 46.8693C47.5914 46.8693 47.8329 46.8949 48.1056 46.946C48.3812 46.9943 48.6468 47.0952 48.9025 47.2486C49.161 47.402 49.3755 47.6335 49.546 47.9432C49.7164 48.2528 49.8017 48.6676 49.8017 49.1875V53.5H48.796V52.6136H48.7449C48.6767 52.7557 48.563 52.9077 48.4039 53.0696C48.2449 53.2315 48.0332 53.3693 47.769 53.483C47.5048 53.5966 47.1824 53.6534 46.8017 53.6534ZM46.9551 52.75C47.3528 52.75 47.688 52.6719 47.9608 52.5156C48.2363 52.3594 48.4437 52.1577 48.5829 51.9105C48.725 51.6634 48.796 51.4034 48.796 51.1307V50.2102C48.7534 50.2614 48.6596 50.3082 48.5147 50.3509C48.3727 50.3906 48.2079 50.4261 48.0204 50.4574C47.8358 50.4858 47.6554 50.5114 47.4792 50.5341C47.3059 50.554 47.1653 50.571 47.0574 50.5852C46.796 50.6193 46.5517 50.6747 46.3244 50.7514C46.1 50.8253 45.9181 50.9375 45.7789 51.0881C45.6426 51.2358 45.5744 51.4375 45.5744 51.6932C45.5744 52.0426 45.7037 52.3068 45.9622 52.4858C46.2235 52.6619 46.5545 52.75 46.9551 52.75ZM54.2963 53.6364C53.6827 53.6364 53.1543 53.4915 52.7111 53.2017C52.2679 52.9119 51.927 52.5128 51.6884 52.0043C51.4498 51.4957 51.3304 50.9148 51.3304 50.2614C51.3304 49.5966 51.4526 49.0099 51.6969 48.5014C51.9441 47.9901 52.2878 47.5909 52.7282 47.304C53.1713 47.0142 53.6884 46.8693 54.2793 46.8693C54.7395 46.8693 55.1543 46.9545 55.5236 47.125C55.8929 47.2955 56.1955 47.5341 56.4313 47.8409C56.6671 48.1477 56.8134 48.5057 56.8702 48.9148H55.8645C55.7878 48.6165 55.6174 48.3523 55.3532 48.1222C55.0918 47.8892 54.7395 47.7727 54.2963 47.7727C53.9043 47.7727 53.5605 47.875 53.2651 48.0795C52.9725 48.2812 52.7438 48.5668 52.579 48.9361C52.4171 49.3026 52.3361 49.733 52.3361 50.2273C52.3361 50.733 52.4157 51.1733 52.5748 51.5483C52.7367 51.9233 52.964 52.2145 53.2566 52.4219C53.552 52.6293 53.8986 52.733 54.2963 52.733C54.5577 52.733 54.7949 52.6875 55.008 52.5966C55.2211 52.5057 55.4015 52.375 55.5492 52.2045C55.6969 52.0341 55.802 51.8295 55.8645 51.5909H56.8702C56.8134 51.9773 56.6728 52.3253 56.4483 52.6349C56.2267 52.9418 55.9327 53.1861 55.5662 53.3679C55.2026 53.5469 54.7793 53.6364 54.2963 53.6364ZM61.187 46.9545V47.8068H57.7949V46.9545H61.187ZM58.7836 45.3864H59.7892V51.625C59.7892 51.9091 59.8304 52.1222 59.9128 52.2642C59.998 52.4034 60.106 52.4972 60.2367 52.5455C60.3702 52.5909 60.5108 52.6136 60.6586 52.6136C60.7694 52.6136 60.8603 52.608 60.9313 52.5966C61.0023 52.5824 61.0591 52.571 61.1017 52.5625L61.3063 53.4659C61.2381 53.4915 61.1429 53.517 61.0208 53.5426C60.8986 53.571 60.7438 53.5852 60.5563 53.5852C60.2722 53.5852 59.9938 53.5241 59.7211 53.402C59.4512 53.2798 59.2267 53.0938 59.0478 52.8438C58.8716 52.5938 58.7836 52.2784 58.7836 51.8977V45.3864Z"
        fill="#7E91A8" />
</svg>
