<svg width="31" height="41" viewBox="0 0 31 41" fill="none" xmlns="http://www.w3.org/2000/svg">
    <path
        d="M10.069 2.25H16.431C17.035 2.25 17.533 2.25 17.939 2.283C18.36 2.318 18.748 2.392 19.112 2.577C19.6765 2.86462 20.1354 3.32354 20.423 3.888C20.609 4.252 20.683 4.64 20.717 5.061C20.75 5.467 20.75 5.965 20.75 6.569V6.75H21.15C21.653 6.75 22.068 6.75 22.407 6.773C22.759 6.797 23.085 6.849 23.398 6.978C23.7621 7.12877 24.0929 7.34979 24.3716 7.62844C24.6502 7.90709 24.8712 8.23791 25.022 8.602C25.152 8.915 25.202 9.241 25.227 9.592C25.25 9.932 25.25 10.347 25.25 10.849V10.901C25.25 11.403 25.25 11.818 25.227 12.157C25.2126 12.4814 25.1488 12.8018 25.038 13.107C24.4613 15.0728 23.4076 16.8656 21.9707 18.3259C20.5338 19.7861 18.7583 20.8686 16.802 21.477L16.613 21.536C16.3063 21.6493 15.9837 21.7135 15.657 21.726C15.317 21.75 14.903 21.75 14.401 21.75H14.349C13.847 21.75 13.432 21.75 13.093 21.727C12.741 21.703 12.415 21.651 12.102 21.522C11.7379 21.3712 11.4071 21.1502 11.1284 20.8716C10.8498 20.5929 10.6288 20.2621 10.478 19.898C10.348 19.585 10.298 19.259 10.273 18.908C10.25 18.568 10.25 18.153 10.25 17.651V17.25H10.07C9.466 17.25 8.967 17.25 8.561 17.217C8.14 17.182 7.752 17.109 7.388 16.923C6.82354 16.6354 6.36462 16.1765 6.077 15.612C5.892 15.248 5.817 14.86 5.783 14.439C5.75 14.033 5.75 13.535 5.75 12.931V6.569C5.75 5.965 5.75 5.467 5.783 5.061C5.818 4.64 5.892 4.252 6.077 3.888C6.36462 3.32354 6.82354 2.86462 7.388 2.577C7.752 2.392 8.14 2.317 8.561 2.283C8.967 2.25 9.465 2.25 10.069 2.25ZM11.75 17.625C11.75 18.159 11.75 18.523 11.77 18.805C11.788 19.081 11.823 19.224 11.864 19.324C11.9394 19.506 12.0499 19.6715 12.1892 19.8108C12.3285 19.9501 12.494 20.0606 12.676 20.136C12.776 20.177 12.919 20.212 13.195 20.23C13.477 20.25 13.841 20.25 14.375 20.25C14.909 20.25 15.273 20.25 15.555 20.23C15.831 20.212 15.974 20.177 16.074 20.136C16.256 20.0606 16.4215 19.9501 16.5608 19.8108C16.7001 19.6715 16.8106 19.506 16.886 19.324C16.927 19.224 16.961 19.081 16.98 18.805C17 18.523 17 18.159 17 17.625V17.599C17 17.097 17 16.682 17.023 16.343C17.047 15.991 17.099 15.665 17.228 15.352C17.3788 14.9879 17.5998 14.6571 17.8784 14.3784C18.1571 14.0998 18.4879 13.8788 18.852 13.728C19.165 13.598 19.491 13.548 19.842 13.523C20.182 13.5 20.597 13.5 21.099 13.5H21.125C21.659 13.5 22.023 13.5 22.305 13.48C22.581 13.461 22.724 13.427 22.824 13.386C23.006 13.3106 23.1715 13.2001 23.3108 13.0608C23.4501 12.9215 23.5606 12.756 23.636 12.574C23.677 12.474 23.712 12.331 23.73 12.055C23.75 11.773 23.75 11.409 23.75 10.875C23.75 10.341 23.75 9.977 23.73 9.695C23.712 9.419 23.677 9.276 23.636 9.176C23.5606 8.99395 23.4501 8.82854 23.3108 8.68922C23.1715 8.54989 23.006 8.43938 22.824 8.364C22.724 8.323 22.581 8.288 22.305 8.27C22.023 8.25 21.659 8.25 21.125 8.25H14.6C13.958 8.25 13.52 8.25 13.183 8.278C12.854 8.305 12.686 8.354 12.569 8.413C12.2865 8.55685 12.0569 8.78651 11.913 9.069C11.853 9.186 11.805 9.354 11.778 9.683C11.751 10.021 11.75 10.458 11.75 11.1V17.625Z"
        fill="#FF6F00" />
    <path
        d="M8.20739 32.1108H6.87784C6.8267 31.8267 6.73153 31.5767 6.59233 31.3608C6.45313 31.1449 6.28267 30.9616 6.08097 30.8111C5.87926 30.6605 5.65341 30.5469 5.40341 30.4702C5.15625 30.3935 4.89347 30.3551 4.61506 30.3551C4.11222 30.3551 3.66193 30.4815 3.2642 30.7344C2.86932 30.9872 2.55682 31.358 2.3267 31.8466C2.09943 32.3352 1.9858 32.9318 1.9858 33.6364C1.9858 34.3466 2.09943 34.946 2.3267 35.4347C2.55682 35.9233 2.87074 36.2926 3.26847 36.5426C3.66619 36.7926 4.11364 36.9176 4.6108 36.9176C4.88636 36.9176 5.14773 36.8807 5.39489 36.8068C5.64489 36.7301 5.87074 36.6179 6.07244 36.4702C6.27415 36.3224 6.4446 36.142 6.58381 35.929C6.72585 35.7131 6.82386 35.4659 6.87784 35.1875L8.20739 35.1918C8.13636 35.6207 7.99858 36.0156 7.79403 36.3764C7.59233 36.7344 7.33239 37.044 7.0142 37.3054C6.69886 37.5639 6.33807 37.7642 5.93182 37.9062C5.52557 38.0483 5.08239 38.1193 4.60227 38.1193C3.84659 38.1193 3.1733 37.9403 2.58239 37.5824C1.99148 37.2216 1.52557 36.706 1.18466 36.0355C0.846591 35.3651 0.677557 34.5653 0.677557 33.6364C0.677557 32.7045 0.848011 31.9048 1.18892 31.2372C1.52983 30.5668 1.99574 30.0526 2.58665 29.6946C3.17756 29.3338 3.84943 29.1534 4.60227 29.1534C5.06534 29.1534 5.49716 29.2202 5.89773 29.3537C6.30114 29.4844 6.66335 29.6776 6.98438 29.9332C7.3054 30.1861 7.57102 30.4957 7.78125 30.8622C7.99148 31.2259 8.13352 31.642 8.20739 32.1108ZM12.4379 38.1321C11.8242 38.1321 11.2887 37.9915 10.8313 37.7102C10.3739 37.429 10.0188 37.0355 9.76598 36.5298C9.51314 36.0241 9.38672 35.4332 9.38672 34.7571C9.38672 34.0781 9.51314 33.4844 9.76598 32.9759C10.0188 32.4673 10.3739 32.0724 10.8313 31.7912C11.2887 31.5099 11.8242 31.3693 12.4379 31.3693C13.0515 31.3693 13.587 31.5099 14.0444 31.7912C14.5018 32.0724 14.8569 32.4673 15.1097 32.9759C15.3626 33.4844 15.489 34.0781 15.489 34.7571C15.489 35.4332 15.3626 36.0241 15.1097 36.5298C14.8569 37.0355 14.5018 37.429 14.0444 37.7102C13.587 37.9915 13.0515 38.1321 12.4379 38.1321ZM12.4421 37.0625C12.8398 37.0625 13.1694 36.9574 13.4308 36.7472C13.6921 36.5369 13.8853 36.2571 14.0103 35.9077C14.1381 35.5582 14.2021 35.1733 14.2021 34.7528C14.2021 34.3352 14.1381 33.9517 14.0103 33.6023C13.8853 33.25 13.6921 32.9673 13.4308 32.7543C13.1694 32.5412 12.8398 32.4347 12.4421 32.4347C12.0415 32.4347 11.7092 32.5412 11.445 32.7543C11.1836 32.9673 10.989 33.25 10.8612 33.6023C10.7362 33.9517 10.6737 34.3352 10.6737 34.7528C10.6737 35.1733 10.7362 35.5582 10.8612 35.9077C10.989 36.2571 11.1836 36.5369 11.445 36.7472C11.7092 36.9574 12.0415 37.0625 12.4421 37.0625ZM16.9112 40.4545V31.4545H18.1555V32.5156H18.2621C18.3359 32.3793 18.4425 32.2216 18.5817 32.0426C18.7209 31.8636 18.9141 31.7074 19.1612 31.5739C19.4084 31.4375 19.7351 31.3693 20.1413 31.3693C20.6697 31.3693 21.1413 31.5028 21.5561 31.7699C21.9709 32.0369 22.2962 32.4219 22.532 32.9247C22.7706 33.4276 22.8899 34.0327 22.8899 34.7401C22.8899 35.4474 22.772 36.054 22.5362 36.5597C22.3004 37.0625 21.9766 37.4503 21.5646 37.723C21.1527 37.9929 20.6825 38.1278 20.1541 38.1278C19.7564 38.1278 19.4311 38.0611 19.1783 37.9276C18.9283 37.794 18.7322 37.6378 18.5902 37.4588C18.4482 37.2798 18.3388 37.1207 18.2621 36.9815H18.1854V40.4545H16.9112ZM18.1598 34.7273C18.1598 35.1875 18.2266 35.5909 18.3601 35.9375C18.4936 36.2841 18.6868 36.5554 18.9396 36.7514C19.1925 36.9446 19.5021 37.0412 19.8686 37.0412C20.2493 37.0412 20.5675 36.9403 20.8232 36.7386C21.0788 36.5341 21.272 36.2571 21.4027 35.9077C21.5362 35.5582 21.603 35.1648 21.603 34.7273C21.603 34.2955 21.5376 33.9077 21.407 33.5639C21.2791 33.2202 21.0859 32.9489 20.8274 32.75C20.5717 32.5511 20.2521 32.4517 19.8686 32.4517C19.4993 32.4517 19.1868 32.5469 18.9311 32.7372C18.6783 32.9276 18.4865 33.1932 18.3558 33.5341C18.2251 33.875 18.1598 34.2727 18.1598 34.7273ZM24.9002 40.4545C24.7099 40.4545 24.5366 40.4389 24.3803 40.4077C24.2241 40.3793 24.1076 40.348 24.0309 40.3139L24.3377 39.2699C24.5707 39.3324 24.7781 39.3594 24.9599 39.3509C25.1417 39.3423 25.3022 39.2741 25.4414 39.1463C25.5835 39.0185 25.7085 38.8097 25.8164 38.5199L25.9741 38.0852L23.5792 31.4545H24.9428L26.6005 36.5341H26.6687L28.3263 31.4545H29.6942L26.9968 38.8736C26.8718 39.2145 26.7127 39.5028 26.5195 39.7386C26.3263 39.9773 26.0962 40.1563 25.8292 40.2756C25.5621 40.3949 25.2525 40.4545 24.9002 40.4545Z"
        fill="#FF6F00" />
</svg>
