<svg width="38" height="38" viewBox="0 0 38 38" fill="none" xmlns="http://www.w3.org/2000/svg">
    <rect width="38" height="38" rx="19" fill="#F6F7F9" />
    <rect width="38" height="38" rx="19" fill="#F0F0FA" />
    <path
        d="M11.1967 21.3601C10.9342 21.3853 10.7417 21.618 10.7669 21.8805C10.7902 22.1277 10.9984 22.313 11.2418 22.313C11.2567 22.313 11.272 22.3123 11.2876 22.3107C11.3847 22.3016 13.6936 22.0693 16.6062 20.6571C18.3144 19.8288 19.8764 18.7635 21.2492 17.4908C22.8378 16.0179 24.174 14.2623 25.227 12.2674L25.2847 12.4333C25.3531 12.6308 25.538 12.7546 25.7359 12.7546C25.7879 12.7546 25.8406 12.7462 25.8925 12.7282C26.1417 12.6419 26.2739 12.3698 26.1871 12.1203L25.7634 10.8992C25.7218 10.7796 25.6344 10.6813 25.5204 10.626C25.464 10.5986 25.4027 10.5826 25.3401 10.5789C25.2775 10.5753 25.2148 10.584 25.1555 10.6046L23.9344 11.0284C23.6853 11.1147 23.5535 11.3868 23.6398 11.6362C23.7262 11.8854 23.9982 12.0172 24.2477 11.9308L24.3409 11.8984C23.3487 13.7579 22.0989 15.3963 20.6184 16.7729C19.3201 17.9803 17.8418 18.992 16.2248 19.7802C13.4659 21.1251 11.2273 21.3567 11.1967 21.3597V21.3601Z"
        fill="#002147" />
    <path
        d="M14.5991 19.1981C17.1349 19.1981 19.1981 17.1349 19.1981 14.5991C19.1981 12.0632 17.1349 10 14.5991 10C12.0632 10 10 12.0632 10 14.5991C10 17.1349 12.0632 19.1981 14.5991 19.1981ZM14.5991 10.9556C16.608 10.9556 18.2429 12.5901 18.2429 14.5994C18.2429 16.6088 16.6084 18.2433 14.5991 18.2433C12.5897 18.2433 10.9552 16.6088 10.9552 14.5994C10.9552 12.5901 12.5897 10.9556 14.5991 10.9556Z"
        fill="#002147" />
    <path
        d="M14.5103 15.0672C14.5603 15.0767 14.9982 15.1665 14.9982 15.4084C14.9982 15.5918 14.8194 15.7411 14.5993 15.7411C14.4346 15.7411 14.2844 15.654 14.2256 15.5245C14.1163 15.2846 13.8332 15.1783 13.5933 15.2876C13.3533 15.3969 13.2471 15.68 13.3564 15.92C13.505 16.2466 13.7847 16.4927 14.1221 16.6134V16.9172C14.1221 17.1808 14.336 17.3948 14.5997 17.3948C14.8633 17.3948 15.0773 17.1808 15.0773 16.9172V16.6134C15.5889 16.4293 15.9537 15.9589 15.9537 15.4084C15.9537 14.7764 15.457 14.2744 14.6887 14.1284C14.6386 14.1188 14.2008 14.0291 14.2008 13.7872C14.2008 13.6034 14.3796 13.4544 14.5997 13.4544C14.7643 13.4544 14.9145 13.5415 14.9733 13.6714C15.0826 13.9114 15.3653 14.0176 15.6057 13.9083C15.8456 13.799 15.9518 13.5159 15.8426 13.276C15.6939 12.9493 15.4142 12.7029 15.0769 12.5821V12.2784C15.0769 12.0147 14.8629 11.8008 14.5993 11.8008C14.3356 11.8008 14.1217 12.0147 14.1217 12.2784V12.5821C13.6101 12.7663 13.2452 13.237 13.2452 13.7872C13.2452 14.4188 13.7419 14.9212 14.5106 15.0668L14.5103 15.0672ZM26.9836 26.5046H25.5508V19.2654C25.5508 18.1593 24.651 17.2595 23.5449 17.2595C22.4387 17.2595 21.5389 18.1593 21.5389 19.2654V26.5046H20.737V22.7809C20.737 21.6748 19.8372 20.775 18.7311 20.775C17.6249 20.775 16.7252 21.6748 16.7252 22.7809V26.5046H15.9232V24.6149C15.9232 23.5088 15.0234 22.609 13.9173 22.609C12.8112 22.609 11.9114 23.5088 11.9114 24.6149V26.5046H10.4786C10.2149 26.5046 10.001 26.7186 10.001 26.9822C10.001 27.2459 10.2149 27.4598 10.4786 27.4598H26.9839C27.2476 27.4598 27.4615 27.2459 27.4615 26.9822C27.4615 26.7186 27.2476 26.5046 26.9839 26.5046H26.9836Z"
        fill="#002147" />
</svg>
