<svg width="36" height="36" viewBox="0 0 36 36" fill="none" xmlns="http://www.w3.org/2000/svg">
    <rect x="0.5" y="0.5" width="35" height="35" rx="17.5" fill="#FEFEFE" />
    <rect x="0.5" y="0.5" width="35" height="35" rx="17.5" stroke="#F9F9F9" />
    <path
        d="M15 10.9995C14.7348 10.9995 14.4804 11.1049 14.2929 11.2924C14.1054 11.48 14 11.7343 14 11.9995C14 12.2647 14.1054 12.5191 14.2929 12.7066C14.4804 12.8942 14.7348 12.9995 15 12.9995C15.2652 12.9995 15.5196 12.8942 15.7071 12.7066C15.8946 12.5191 16 12.2647 16 11.9995C16 11.7343 15.8946 11.48 15.7071 11.2924C15.5196 11.1049 15.2652 10.9995 15 10.9995ZM12.17 10.9995C12.3766 10.414 12.7597 9.90695 13.2666 9.54831C13.7735 9.18967 14.3791 8.99707 15 8.99707C15.6209 8.99707 16.2265 9.18967 16.7334 9.54831C17.2403 9.90695 17.6234 10.414 17.83 10.9995H25C25.2652 10.9995 25.5196 11.1049 25.7071 11.2924C25.8946 11.48 26 11.7343 26 11.9995C26 12.2647 25.8946 12.5191 25.7071 12.7066C25.5196 12.8942 25.2652 12.9995 25 12.9995H17.83C17.6234 13.5851 17.2403 14.0921 16.7334 14.4507C16.2265 14.8094 15.6209 15.002 15 15.002C14.3791 15.002 13.7735 14.8094 13.2666 14.4507C12.7597 14.0921 12.3766 13.5851 12.17 12.9995H11C10.7348 12.9995 10.4804 12.8942 10.2929 12.7066C10.1054 12.5191 10 12.2647 10 11.9995C10 11.7343 10.1054 11.48 10.2929 11.2924C10.4804 11.1049 10.7348 10.9995 11 10.9995H12.17ZM21 16.9995C20.7348 16.9995 20.4804 17.1049 20.2929 17.2924C20.1054 17.4799 20 17.7343 20 17.9995C20 18.2647 20.1054 18.5191 20.2929 18.7066C20.4804 18.8942 20.7348 18.9995 21 18.9995C21.2652 18.9995 21.5196 18.8942 21.7071 18.7066C21.8946 18.5191 22 18.2647 22 17.9995C22 17.7343 21.8946 17.4799 21.7071 17.2924C21.5196 17.1049 21.2652 16.9995 21 16.9995ZM18.17 16.9995C18.3766 16.414 18.7597 15.907 19.2666 15.5483C19.7735 15.1897 20.3791 14.9971 21 14.9971C21.6209 14.9971 22.2265 15.1897 22.7334 15.5483C23.2403 15.907 23.6234 16.414 23.83 16.9995H25C25.2652 16.9995 25.5196 17.1049 25.7071 17.2924C25.8946 17.4799 26 17.7343 26 17.9995C26 18.2647 25.8946 18.5191 25.7071 18.7066C25.5196 18.8942 25.2652 18.9995 25 18.9995H23.83C23.6234 19.5851 23.2403 20.0921 22.7334 20.4507C22.2265 20.8094 21.6209 21.002 21 21.002C20.3791 21.002 19.7735 20.8094 19.2666 20.4507C18.7597 20.0921 18.3766 19.5851 18.17 18.9995H11C10.7348 18.9995 10.4804 18.8942 10.2929 18.7066C10.1054 18.5191 10 18.2647 10 17.9995C10 17.7343 10.1054 17.4799 10.2929 17.2924C10.4804 17.1049 10.7348 16.9995 11 16.9995H18.17ZM15 22.9995C14.7348 22.9995 14.4804 23.1049 14.2929 23.2924C14.1054 23.4799 14 23.7343 14 23.9995C14 24.2647 14.1054 24.5191 14.2929 24.7066C14.4804 24.8942 14.7348 24.9995 15 24.9995C15.2652 24.9995 15.5196 24.8942 15.7071 24.7066C15.8946 24.5191 16 24.2647 16 23.9995C16 23.7343 15.8946 23.4799 15.7071 23.2924C15.5196 23.1049 15.2652 22.9995 15 22.9995ZM12.17 22.9995C12.3766 22.414 12.7597 21.907 13.2666 21.5483C13.7735 21.1897 14.3791 20.9971 15 20.9971C15.6209 20.9971 16.2265 21.1897 16.7334 21.5483C17.2403 21.907 17.6234 22.414 17.83 22.9995H25C25.2652 22.9995 25.5196 23.1049 25.7071 23.2924C25.8946 23.4799 26 23.7343 26 23.9995C26 24.2647 25.8946 24.5191 25.7071 24.7066C25.5196 24.8942 25.2652 24.9995 25 24.9995H17.83C17.6234 25.5851 17.2403 26.0921 16.7334 26.4507C16.2265 26.8094 15.6209 27.002 15 27.002C14.3791 27.002 13.7735 26.8094 13.2666 26.4507C12.7597 26.0921 12.3766 25.5851 12.17 24.9995H11C10.7348 24.9995 10.4804 24.8942 10.2929 24.7066C10.1054 24.5191 10 24.2647 10 23.9995C10 23.7343 10.1054 23.4799 10.2929 23.2924C10.4804 23.1049 10.7348 22.9995 11 22.9995H12.17Z"
        fill="#222222" />
</svg>
