<svg width="42" height="42" viewBox="0 0 42 42" fill="none" xmlns="http://www.w3.org/2000/svg">
    <rect width="42" height="42" rx="20" fill="#F9F9F9" />
    <rect x="0.15" y="0.15" width="41.7" height="41.7" rx="19.85" stroke="#E53935"
        stroke-opacity="0.2" stroke-width="0.3" />
    <path
        d="M19 29.7767C18.1299 29.5784 17.2941 29.2518 16.52 28.8077M23 12.2227C24.9882 12.6767 26.7633 13.7923 28.0347 15.3869C29.3061 16.9814 29.9985 18.9603 29.9985 20.9997C29.9985 23.039 29.3061 25.0179 28.0347 26.6125C26.7633 28.207 24.9882 29.3226 23 29.7767M13.579 26.0927C13.0341 25.2998 12.6199 24.4247 12.352 23.5007M12.124 19.4997C12.284 18.5497 12.592 17.6497 13.024 16.8247L13.193 16.5197M15.907 13.5787C16.8432 12.9355 17.8927 12.4754 19 12.2227"
        stroke="#454545" stroke-width="2" stroke-linecap="round" stroke-linejoin="round" />
    <path d="M21 17V21L24 24" stroke="#454545" stroke-width="2" stroke-linecap="round"
        stroke-linejoin="round" />
</svg>
