<svg width="74" height="72" viewBox="0 0 74 72" fill="none" xmlns="http://www.w3.org/2000/svg">
    <path d="M33.984 36.163H30.694C29.482 36.163 28.5 35.181 28.5 33.969V27.515C28.5007 27.0448 28.6019 26.5803 28.7968 26.1524C28.9917 25.7245 29.2758 25.3432 29.63 25.034L35.56 19.869C35.9593 19.5216 36.4707 19.3303 37 19.3303C37.5293 19.3303 38.0407 19.5216 38.44 19.869L44.37 25.035C44.7241 25.3441 45.0081 25.7252 45.203 26.1529C45.3978 26.5806 45.4991 27.045 45.5 27.515V33.969C45.5 34.5507 45.269 35.1086 44.8577 35.5201C44.4465 35.9315 43.8887 36.1628 43.307 36.163H40.29V29.582C40.29 28.674 39.554 27.937 38.645 27.937H35.63C34.721 27.937 33.985 28.674 33.985 29.582L33.984 36.163ZM33.984 36.163H40.291" stroke="#FF6F00" stroke-width="1.3" stroke-linejoin="round"/>
    <path d="M20.8042 53.5V44.7727H22.3851V48.4673H26.4292V44.7727H28.0144V53.5H26.4292V49.7926H22.3851V53.5H20.8042ZM32.5208 53.6278C31.8816 53.6278 31.3276 53.4872 30.8588 53.206C30.3901 52.9247 30.0265 52.5312 29.7679 52.0256C29.5123 51.5199 29.3844 50.929 29.3844 50.2528C29.3844 49.5767 29.5123 48.9844 29.7679 48.4759C30.0265 47.9673 30.3901 47.5724 30.8588 47.2912C31.3276 47.0099 31.8816 46.8693 32.5208 46.8693C33.16 46.8693 33.714 47.0099 34.1827 47.2912C34.6515 47.5724 35.0137 47.9673 35.2694 48.4759C35.5279 48.9844 35.6571 49.5767 35.6571 50.2528C35.6571 50.929 35.5279 51.5199 35.2694 52.0256C35.0137 52.5312 34.6515 52.9247 34.1827 53.206C33.714 53.4872 33.16 53.6278 32.5208 53.6278ZM32.5293 52.392C32.8759 52.392 33.1657 52.2969 33.3986 52.1065C33.6316 51.9134 33.8049 51.6548 33.9185 51.331C34.035 51.0071 34.0932 50.6463 34.0932 50.2486C34.0932 49.848 34.035 49.4858 33.9185 49.1619C33.8049 48.8352 33.6316 48.5753 33.3986 48.3821C33.1657 48.1889 32.8759 48.0923 32.5293 48.0923C32.1742 48.0923 31.8787 48.1889 31.6429 48.3821C31.41 48.5753 31.2353 48.8352 31.1188 49.1619C31.0051 49.4858 30.9483 49.848 30.9483 50.2486C30.9483 50.6463 31.0051 51.0071 31.1188 51.331C31.2353 51.6548 31.41 51.9134 31.6429 52.1065C31.8787 52.2969 32.1742 52.392 32.5293 52.392ZM36.9664 53.5V46.9545H38.4409V48.0668H38.5176C38.6539 47.6918 38.8798 47.3991 39.1951 47.1889C39.5105 46.9759 39.8869 46.8693 40.3244 46.8693C40.7676 46.8693 41.1412 46.9773 41.4451 47.1932C41.752 47.4062 41.9679 47.6974 42.0929 48.0668H42.161C42.3059 47.7031 42.5502 47.4134 42.894 47.1974C43.2406 46.9787 43.6511 46.8693 44.1255 46.8693C44.7278 46.8693 45.2193 47.0597 45.6 47.4403C45.9806 47.821 46.171 48.3764 46.171 49.1065V53.5H44.6241V49.3452C44.6241 48.9389 44.5162 48.642 44.3002 48.4545C44.0843 48.2642 43.8201 48.169 43.5076 48.169C43.1355 48.169 42.8443 48.2855 42.6341 48.5185C42.4267 48.7486 42.323 49.0483 42.323 49.4176V53.5H40.8102V49.2812C40.8102 48.9432 40.7079 48.6733 40.5034 48.4716C40.3017 48.2699 40.0375 48.169 39.7108 48.169C39.4892 48.169 39.2875 48.2259 39.1056 48.3395C38.9238 48.4503 38.7789 48.608 38.671 48.8125C38.563 49.0142 38.5091 49.25 38.5091 49.5199V53.5H36.9664ZM50.6337 53.6278C49.9775 53.6278 49.4107 53.4915 48.9334 53.2188C48.459 52.9432 48.0939 52.554 47.8382 52.0511C47.5826 51.5455 47.4547 50.9503 47.4547 50.2656C47.4547 49.5923 47.5826 49.0014 47.8382 48.4929C48.0968 47.9815 48.4576 47.5838 48.9206 47.2997C49.3837 47.0128 49.9277 46.8693 50.5527 46.8693C50.9561 46.8693 51.3368 46.9347 51.6948 47.0653C52.0556 47.1932 52.3738 47.392 52.6493 47.6619C52.9277 47.9318 53.1465 48.2756 53.3056 48.6932C53.4647 49.108 53.5442 49.6023 53.5442 50.1761V50.6491H48.1792V49.6094H52.0655C52.0627 49.3139 51.9988 49.0511 51.8738 48.821C51.7488 48.5881 51.574 48.4048 51.3496 48.2713C51.128 48.1378 50.8695 48.071 50.574 48.071C50.2587 48.071 49.9817 48.1477 49.7431 48.3011C49.5044 48.4517 49.3184 48.6506 49.1848 48.8977C49.0542 49.142 48.9874 49.4105 48.9846 49.7031V50.6108C48.9846 50.9915 49.0542 51.3182 49.1934 51.5909C49.3326 51.8608 49.5272 52.0682 49.7772 52.2131C50.0272 52.3551 50.3198 52.4261 50.655 52.4261C50.8794 52.4261 51.0826 52.3949 51.2644 52.3324C51.4462 52.267 51.6039 52.1719 51.7374 52.0469C51.8709 51.9219 51.9718 51.767 52.04 51.5824L53.4803 51.7443C53.3894 52.125 53.2161 52.4574 52.9604 52.7415C52.7076 53.0227 52.3837 53.2415 51.9888 53.3977C51.5939 53.5511 51.1422 53.6278 50.6337 53.6278Z" fill="#FF6F00"/>
    <path d="M21 72C21 69.7909 22.7909 68 25 68H49C51.2091 68 53 69.7909 53 72H21Z" fill="#FF6F00"/>
</svg>
