<svg width="74" height="72" viewBox="0 0 74 72" fill="none" xmlns="http://www.w3.org/2000/svg">
    <path
        d="M33.984 36.1628H30.694C29.482 36.1628 28.5 35.1808 28.5 33.9688V27.5148C28.5007 27.0446 28.6019 26.58 28.7968 26.1521C28.9917 25.7242 29.2758 25.3429 29.63 25.0338L35.56 19.8688C35.9593 19.5214 36.4707 19.3301 37 19.3301C37.5293 19.3301 38.0407 19.5214 38.44 19.8688L44.37 25.0348C44.7241 25.3438 45.0081 25.725 45.203 26.1527C45.3978 26.5804 45.4991 27.0448 45.5 27.5148V33.9688C45.5 34.5505 45.269 35.1084 44.8577 35.5198C44.4465 35.9312 43.8887 36.1625 43.307 36.1628H40.29V29.5818C40.29 28.6738 39.554 27.9368 38.645 27.9368H35.63C34.721 27.9368 33.985 28.6738 33.985 29.5818L33.984 36.1628ZM33.984 36.1628H40.291"
        stroke="#7E91A8" stroke-width="1.3" stroke-linejoin="round" />
    <path
        d="M21.3283 53.5V44.7727H22.3851V48.6591H27.0385V44.7727H28.0953V53.5H27.0385V49.5966H22.3851V53.5H21.3283ZM32.7338 53.6364C32.1429 53.6364 31.6245 53.4957 31.1784 53.2145C30.7353 52.9332 30.3887 52.5398 30.1387 52.0341C29.8915 51.5284 29.7679 50.9375 29.7679 50.2614C29.7679 49.5795 29.8915 48.9844 30.1387 48.4759C30.3887 47.9673 30.7353 47.5724 31.1784 47.2912C31.6245 47.0099 32.1429 46.8693 32.7338 46.8693C33.3248 46.8693 33.8418 47.0099 34.285 47.2912C34.731 47.5724 35.0776 47.9673 35.3248 48.4759C35.5748 48.9844 35.6998 49.5795 35.6998 50.2614C35.6998 50.9375 35.5748 51.5284 35.3248 52.0341C35.0776 52.5398 34.731 52.9332 34.285 53.2145C33.8418 53.4957 33.3248 53.6364 32.7338 53.6364ZM32.7338 52.733C33.1827 52.733 33.552 52.6179 33.8418 52.3878C34.1316 52.1577 34.3461 51.8551 34.4853 51.4801C34.6245 51.1051 34.6941 50.6989 34.6941 50.2614C34.6941 49.8239 34.6245 49.4162 34.4853 49.0384C34.3461 48.6605 34.1316 48.3551 33.8418 48.1222C33.552 47.8892 33.1827 47.7727 32.7338 47.7727C32.285 47.7727 31.9157 47.8892 31.6259 48.1222C31.3361 48.3551 31.1216 48.6605 30.9824 49.0384C30.8432 49.4162 30.7736 49.8239 30.7736 50.2614C30.7736 50.6989 30.8432 51.1051 30.9824 51.4801C31.1216 51.8551 31.3361 52.1577 31.6259 52.3878C31.9157 52.6179 32.285 52.733 32.7338 52.733ZM37.2349 53.5V46.9545H38.2065V47.9773H38.2917C38.4281 47.6278 38.6483 47.3565 38.9522 47.1634C39.2562 46.9673 39.6213 46.8693 40.0474 46.8693C40.4792 46.8693 40.8386 46.9673 41.1255 47.1634C41.4153 47.3565 41.6412 47.6278 41.8031 47.9773H41.8713C42.0389 47.6392 42.2903 47.3707 42.6255 47.1719C42.9608 46.9702 43.3627 46.8693 43.8315 46.8693C44.4167 46.8693 44.8954 47.0526 45.2676 47.419C45.6397 47.7827 45.8258 48.3494 45.8258 49.1193V53.5H44.8201V49.1193C44.8201 48.6364 44.688 48.2912 44.4238 48.0838C44.1596 47.8764 43.8485 47.7727 43.4906 47.7727C43.0304 47.7727 42.6738 47.9119 42.421 48.1903C42.1681 48.4659 42.0417 48.8153 42.0417 49.2386V53.5H41.019V49.017C41.019 48.6449 40.8983 48.3452 40.6568 48.1179C40.4153 47.8878 40.1042 47.7727 39.7235 47.7727C39.4622 47.7727 39.2179 47.8423 38.9906 47.9815C38.7662 48.1207 38.5843 48.3139 38.4451 48.5611C38.3088 48.8054 38.2406 49.0881 38.2406 49.4091V53.5H37.2349ZM50.4089 53.6364C49.7782 53.6364 49.2342 53.4972 48.7768 53.2188C48.3223 52.9375 47.9714 52.5455 47.7243 52.0426C47.4799 51.5369 47.3578 50.9489 47.3578 50.2784C47.3578 49.608 47.4799 49.017 47.7243 48.5057C47.9714 47.9915 48.3152 47.5909 48.7555 47.304C49.1987 47.0142 49.7157 46.8693 50.3066 46.8693C50.6475 46.8693 50.9842 46.9261 51.3166 47.0398C51.649 47.1534 51.9515 47.3381 52.2243 47.5938C52.497 47.8466 52.7143 48.1818 52.8762 48.5994C53.0382 49.017 53.1191 49.5312 53.1191 50.142V50.5682H48.0737V49.6989H52.0964C52.0964 49.3295 52.0225 49 51.8748 48.7102C51.7299 48.4205 51.5225 48.1918 51.2527 48.0241C50.9856 47.8565 50.6703 47.7727 50.3066 47.7727C49.9061 47.7727 49.5595 47.8722 49.2669 48.071C48.9771 48.267 48.7541 48.5227 48.5978 48.8381C48.4416 49.1534 48.3635 49.4915 48.3635 49.8523V50.4318C48.3635 50.9261 48.4487 51.3452 48.6191 51.6889C48.7924 52.0298 49.0325 52.2898 49.3393 52.4688C49.6461 52.6449 50.0027 52.733 50.4089 52.733C50.6731 52.733 50.9118 52.696 51.1248 52.6222C51.3407 52.5455 51.5268 52.4318 51.6831 52.2812C51.8393 52.1278 51.96 51.9375 52.0453 51.7102L53.0169 51.983C52.9146 52.3125 52.7427 52.6023 52.5012 52.8523C52.2598 53.0994 51.9615 53.2926 51.6064 53.4318C51.2512 53.5682 50.8521 53.6364 50.4089 53.6364Z"
        fill="#7E91A8" />
</svg>
