<svg width="38" height="38" viewBox="0 0 38 38" fill="none" xmlns="http://www.w3.org/2000/svg">
    <rect width="38" height="38" rx="19" fill="#F6F7F9" />
    <rect width="38" height="38" rx="19" fill="#F0F0FA" />
    <path fill-rule="evenodd" clip-rule="evenodd"
        d="M18.21 11.5107V11.1968C18.21 10.5386 18.7487 10 19.4068 10H22.0957C22.7539 10 23.2926 10.5386 23.2926 11.1968V11.5107H22.7024V11.1968C22.7024 10.8632 22.4294 10.5902 22.0957 10.5902H19.4068C19.0732 10.5902 18.8002 10.8632 18.8002 11.1968V11.5107H18.21ZM14.9991 13.2422V12.5282C14.9991 12.2906 15.1934 12.0974 15.431 12.0974H17.4526V13.2088C17.4526 13.6685 17.8284 14.0443 18.2881 14.0443H23.2145C23.6741 14.0443 24.0499 13.6685 24.0499 13.2088V12.0974H26.0716C26.3092 12.0974 26.5034 12.2906 26.5034 12.5282V14.5812C26.5034 14.9882 26.2929 15.2985 25.9902 15.547C25.9088 15.6142 25.8209 15.6761 25.7286 15.7347C25.0767 16.1471 23.761 16.4062 22.2784 16.5105C22.032 15.9107 21.4424 15.4866 20.7513 15.4866C20.0598 15.4866 19.4699 15.9111 19.2238 16.5114C18.8276 16.4837 18.4432 16.4449 18.0802 16.395C18.0808 16.3715 18.0811 16.3478 18.0811 16.3241C18.0811 14.6279 16.6975 13.2422 14.9991 13.2422ZM18.0123 16.9728C18.3603 17.0217 18.7258 17.061 19.1016 17.0903C19.1012 17.1058 19.101 17.1213 19.101 17.1369C19.101 18.0491 19.8391 18.7872 20.7513 18.7872C21.6634 18.7872 22.4016 18.0491 22.4016 17.1369C22.4016 17.121 22.4014 17.1052 22.4009 17.0894C23.9276 16.9696 25.2831 16.6852 25.9902 16.2665V19.6031C25.9902 20.0654 25.6115 20.4452 25.1481 20.4452H16.3545C15.8911 20.4452 15.5124 20.0654 15.5124 19.6031V19.3632C16.7552 19.1537 17.7487 18.1967 18.0123 16.9728ZM18.0428 12.1008H23.4598L23.4598 13.2088C23.4598 13.3437 23.3494 13.4541 23.2145 13.4541H18.2881C18.1531 13.4541 18.0428 13.3437 18.0428 13.2088V12.1008ZM19.6911 17.1369C19.6911 16.5531 20.1642 16.0768 20.7513 16.0768C21.3383 16.0768 21.8114 16.5531 21.8114 17.1369C21.8114 17.7229 21.3373 18.197 20.7513 18.197C20.1653 18.197 19.6911 17.7229 19.6911 17.1369ZM14.9991 18.8159C13.6277 18.8159 12.5074 17.6973 12.5074 16.3241C12.5074 14.9527 13.6277 13.8324 14.9991 13.8324C16.3723 13.8324 17.4909 14.9527 17.4909 16.3241C17.4909 17.6973 16.3723 18.8159 14.9991 18.8159ZM13.62 16.6031L14.3032 17.2863C14.3568 17.3399 14.4289 17.3708 14.5047 17.3727C14.5804 17.3745 14.654 17.3471 14.7101 17.2962L16.3696 15.7908C16.4275 15.7382 16.4622 15.6648 16.466 15.5866C16.4698 15.5085 16.4424 15.432 16.3899 15.374C16.3373 15.3161 16.2639 15.2814 16.1857 15.2776C16.1075 15.2738 16.031 15.3011 15.9731 15.3537L14.5218 16.6703L14.0373 16.1858C13.9221 16.0707 13.7352 16.0707 13.62 16.1858C13.5048 16.301 13.5048 16.488 13.62 16.6031ZM13.2403 23.3677L15.5059 22.056C16.0262 21.7551 16.5484 21.5128 17.1199 21.6984L17.1201 21.6984C17.8776 21.944 19.1122 22.4669 20.3739 22.6992C20.6389 22.7953 20.8115 23.0593 20.7379 23.3329L20.7379 23.3331C20.6648 23.6051 20.4303 23.7327 20.1131 23.6984C19.4227 23.5556 18.7813 23.3458 18.0699 23.1546C17.8727 23.1016 17.6695 23.2187 17.6165 23.416C17.5635 23.6132 17.6806 23.8164 17.8778 23.8694C18.6094 24.066 19.2687 24.2806 19.9795 24.4266L20.3853 24.493L20.3866 24.4932C20.9763 24.587 21.5173 24.5034 22.0335 24.2026L25.1785 22.371C26.4672 21.6202 27.018 21.998 27.0034 22.5448C26.9986 22.7285 26.9326 22.9146 26.7886 23.0033L21.0816 26.517L21.0812 26.5173C20.6465 26.7856 20.17 26.8459 19.6767 26.7143L15.5373 25.605C15.4903 25.5924 15.4414 25.5892 15.3932 25.5955C15.345 25.6019 15.2985 25.6177 15.2565 25.642L14.707 25.9593L13.2403 23.3677ZM12.0568 22.7792L14.6498 27.3609C14.6749 27.4058 14.6597 27.4631 14.6151 27.4883L14.6146 27.4885L13.7336 27.988C13.6887 28.013 13.6315 27.9978 13.6063 27.9532L13.6061 27.953L11.0123 23.3697L11.0122 23.3695C10.987 23.3251 11.0021 23.2681 11.0464 23.2431L11.0467 23.243L11.9295 22.7432C11.974 22.7181 12.0308 22.7344 12.0565 22.7786L12.0568 22.7792ZM11.7758 23.2328C11.5757 23.2614 11.4375 23.4473 11.466 23.6474C11.4958 23.8476 11.6817 23.987 11.8819 23.9572C12.0821 23.9286 12.2203 23.7416 12.1917 23.5414C12.1619 23.3412 11.9761 23.203 11.7758 23.2328Z"
        fill="#002147" />
</svg>
