<svg width="38" height="38" viewBox="0 0 38 38" fill="none" xmlns="http://www.w3.org/2000/svg">
    <rect width="38" height="38" rx="19" fill="#F6F7F9" />
    <rect width="38" height="38" rx="19" fill="#F0F0FA" />
    <path
        d="M17.75 15.5312C18.2678 15.5312 18.6875 15.1115 18.6875 14.5937C18.6875 14.076 18.2678 13.6562 17.75 13.6562C17.2322 13.6562 16.8125 14.076 16.8125 14.5937C16.8125 15.1115 17.2322 15.5312 17.75 15.5312Z"
        fill="#002147" />
    <path
        d="M17.7501 16.4687C16.7913 16.4687 15.9856 17.1364 15.7734 18.0312H19.7267C19.5146 17.1364 18.7089 16.4687 17.7501 16.4687ZM26.5313 13.5H25.7188V21.625H27V13.9687C27 13.7099 26.7902 13.5 26.5313 13.5Z"
        fill="#002147" />
    <path
        d="M24.7812 13.8125H22.4374C22.1786 13.8125 21.9687 13.6026 21.9687 13.3437V11H13.6875C13.4286 11 13.2187 11.2099 13.2187 11.4687V21.6249H24.7812V13.8125ZM16.3767 15.8686C16.0657 15.5338 15.875 15.0857 15.875 14.5937C15.875 13.5599 16.7161 12.7187 17.75 12.7187C18.7838 12.7187 19.6249 13.5599 19.6249 14.5937C19.6249 15.0857 19.4342 15.5338 19.1232 15.8686C20.0707 16.365 20.7187 17.3582 20.7187 18.5C20.7187 18.7588 20.5088 18.9687 20.2499 18.9687H15.25C14.9911 18.9687 14.7812 18.7588 14.7812 18.5C14.7812 17.3582 15.4293 16.365 16.3767 15.8686ZM23.0624 20.6874H14.9375C14.6786 20.6874 14.4687 20.4776 14.4687 20.2187C14.4687 19.9598 14.6786 19.7499 14.9375 19.7499H23.0624C23.3213 19.7499 23.5312 19.9598 23.5312 20.2187C23.5312 20.4776 23.3213 20.6874 23.0624 20.6874ZM23.0624 18.9687H21.8124C21.5536 18.9687 21.3437 18.7588 21.3437 18.5C21.3437 18.2411 21.5536 18.0312 21.8124 18.0312H23.0624C23.3213 18.0312 23.5312 18.2411 23.5312 18.5C23.5312 18.7588 23.3213 18.9687 23.0624 18.9687ZM23.0624 17.25H21.8124C21.5536 17.25 21.3437 17.0401 21.3437 16.7812C21.3437 16.5223 21.5536 16.3125 21.8124 16.3125H23.0624C23.3213 16.3125 23.5312 16.5223 23.5312 16.7812C23.5312 17.0401 23.3213 17.25 23.0624 17.25ZM23.0624 15.5312H21.8124C21.5536 15.5312 21.3437 15.3213 21.3437 15.0625C21.3437 14.8036 21.5536 14.5937 21.8124 14.5937H23.0624C23.3213 14.5937 23.5312 14.8036 23.5312 15.0625C23.5312 15.3213 23.3213 15.5312 23.0624 15.5312ZM12.2812 13.5H11.4687C11.2099 13.5 11 13.7099 11 13.9687V21.6249H12.2812V13.5Z"
        fill="#002147" />
    <path
        d="M22.9062 11.0469V12.8747H24.734C24.5471 11.9577 23.8232 11.2338 22.9062 11.0469ZM11 23.9684C11 24.2273 11.2099 24.4371 11.4687 24.4371H26.5312C26.79 24.4371 26.9999 24.2273 26.9999 23.9684V22.5622H11V23.9684ZM22.4374 26.0621H21.8681L21.7004 25.3746H16.2995L16.1318 26.0621H15.5625C15.3036 26.0621 15.0937 26.272 15.0937 26.5309C15.0937 26.7898 15.3036 26.9996 15.5625 26.9996H22.4374C22.6963 26.9996 22.9062 26.7898 22.9062 26.5309C22.9062 26.272 22.6963 26.0621 22.4374 26.0621Z"
        fill="#002147" />
</svg>
