<svg width="42" height="42" viewBox="0 0 42 42" fill="none" xmlns="http://www.w3.org/2000/svg">
    <rect width="42" height="42" rx="20" fill="#F9F9F9"/>
    <rect x="0.15" y="0.15" width="41.7" height="41.7" rx="19.85" stroke="#E53935" stroke-opacity="0.2" stroke-width="0.3"/>
    <path d="M16 11H26C26.7956 11 27.5587 11.3161 28.1213 11.8787C28.6839 12.4413 29 13.2044 29 14V28C29 28.7956 28.6839 29.5587 28.1213 30.1213C27.5587 30.6839 26.7956 31 26 31H16C15.2044 31 14.4413 30.6839 13.8787 30.1213C13.3161 29.5587 13 28.7956 13 28V14C13 13.2044 13.3161 12.4413 13.8787 11.8787C14.4413 11.3161 15.2044 11 16 11ZM16 13C15.7348 13 15.4804 13.1054 15.2929 13.2929C15.1054 13.4804 15 13.7348 15 14V28C15 28.2652 15.1054 28.5196 15.2929 28.7071C15.4804 28.8946 15.7348 29 16 29H26C26.2652 29 26.5196 28.8946 26.7071 28.7071C26.8946 28.5196 27 28.2652 27 28V14C27 13.7348 26.8946 13.4804 26.7071 13.2929C26.5196 13.1054 26.2652 13 26 13H16ZM18 14H24C24.2652 14 24.5196 14.1054 24.7071 14.2929C24.8946 14.4804 25 14.7348 25 15C25 15.2652 24.8946 15.5196 24.7071 15.7071C24.5196 15.8946 24.2652 16 24 16H18C17.7348 16 17.4804 15.8946 17.2929 15.7071C17.1054 15.5196 17 15.2652 17 15C17 14.7348 17.1054 14.4804 17.2929 14.2929C17.4804 14.1054 17.7348 14 18 14ZM18 26H20C20.2652 26 20.5196 26.1054 20.7071 26.2929C20.8946 26.4804 21 26.7348 21 27C21 27.2652 20.8946 27.5196 20.7071 27.7071C20.5196 27.8946 20.2652 28 20 28H18C17.7348 28 17.4804 27.8946 17.2929 27.7071C17.1054 27.5196 17 27.2652 17 27C17 26.7348 17.1054 26.4804 17.2929 26.2929C17.4804 26.1054 17.7348 26 18 26ZM18 22H24C24.2652 22 24.5196 22.1054 24.7071 22.2929C24.8946 22.4804 25 22.7348 25 23C25 23.2652 24.8946 23.5196 24.7071 23.7071C24.5196 23.8946 24.2652 24 24 24H18C17.7348 24 17.4804 23.8946 17.2929 23.7071C17.1054 23.5196 17 23.2652 17 23C17 22.7348 17.1054 22.4804 17.2929 22.2929C17.4804 22.1054 17.7348 22 18 22ZM18 18H24C24.2652 18 24.5196 18.1054 24.7071 18.2929C24.8946 18.4804 25 18.7348 25 19C25 19.2652 24.8946 19.5196 24.7071 19.7071C24.5196 19.8946 24.2652 20 24 20H18C17.7348 20 17.4804 19.8946 17.2929 19.7071C17.1054 19.5196 17 19.2652 17 19C17 18.7348 17.1054 18.4804 17.2929 18.2929C17.4804 18.1054 17.7348 18 18 18Z" fill="#454545"/>
</svg>
