<svg width="42" height="42" viewBox="0 0 42 42" fill="none" xmlns="http://www.w3.org/2000/svg">
    <rect width="42" height="42" rx="20" fill="#F9F9F9"/>
    <rect x="0.15" y="0.15" width="41.7" height="41.7" rx="19.85" stroke="#E53935" stroke-opacity="0.2" stroke-width="0.3"/>
    <path d="M21 26C20.4696 26 19.9609 25.7893 19.5858 25.4142C19.2107 25.0391 19 24.5304 19 24C19 22.89 19.89 22 21 22C21.5304 22 22.0391 22.2107 22.4142 22.5858C22.7893 22.9609 23 23.4696 23 24C23 24.5304 22.7893 25.0391 22.4142 25.4142C22.0391 25.7893 21.5304 26 21 26ZM27 29V19H15V29H27ZM27 17C27.5304 17 28.0391 17.2107 28.4142 17.5858C28.7893 17.9609 29 18.4696 29 19V29C29 29.5304 28.7893 30.0391 28.4142 30.4142C28.0391 30.7893 27.5304 31 27 31H15C14.4696 31 13.9609 30.7893 13.5858 30.4142C13.2107 30.0391 13 29.5304 13 29V19C13 17.89 13.89 17 15 17H16V15C16 13.6739 16.5268 12.4021 17.4645 11.4645C18.4021 10.5268 19.6739 10 21 10C21.6566 10 22.3068 10.1293 22.9134 10.3806C23.52 10.6319 24.0712 11.0002 24.5355 11.4645C24.9998 11.9288 25.3681 12.48 25.6194 13.0866C25.8707 13.6932 26 14.3434 26 15V17H27ZM21 12C20.2044 12 19.4413 12.3161 18.8787 12.8787C18.3161 13.4413 18 14.2044 18 15V17H24V15C24 14.2044 23.6839 13.4413 23.1213 12.8787C22.5587 12.3161 21.7956 12 21 12Z" fill="#454545"/>
</svg>
