<svg width="42" height="42" viewBox="0 0 42 42" fill="none" xmlns="http://www.w3.org/2000/svg">
    <rect width="42" height="42" rx="20" fill="#F9F9F9" />
    <rect x="0.15" y="0.15" width="41.7" height="41.7" rx="19.85" stroke="#E53935"
        stroke-opacity="0.2" stroke-width="0.3" />
    <path
        d="M29 21H19.5M27 24L30 21L27 18M22 16V15C22 14.4696 21.7893 13.9609 21.4142 13.5858C21.0391 13.2107 20.5304 13 20 13H15C14.4696 13 13.9609 13.2107 13.5858 13.5858C13.2107 13.9609 13 14.4696 13 15V27C13 27.5304 13.2107 28.0391 13.5858 28.4142C13.9609 28.7893 14.4696 29 15 29H20C20.5304 29 21.0391 28.7893 21.4142 28.4142C21.7893 28.0391 22 27.5304 22 27V26"
        stroke="#454545" stroke-width="1.7" stroke-linecap="round" stroke-linejoin="round" />
</svg>
