<svg width="74" height="72" viewBox="0 0 74 72" fill="none" xmlns="http://www.w3.org/2000/svg">
    <path
        d="M44.9424 31.9323L44.0131 29.2278C44.4611 28.3121 44.6978 27.2937 44.6994 26.2691C44.7021 24.4874 44.0128 22.8028 42.7584 21.5256C41.5037 20.2482 39.8317 19.5291 38.0505 19.5009C36.2034 19.4717 34.4673 20.1742 33.1621 21.4794C31.9035 22.738 31.2055 24.3971 31.1834 26.1701C29.9429 27.1041 29.2108 28.5602 29.2132 30.1154C29.2143 30.8433 29.3782 31.5667 29.6886 32.221L29.0485 34.0837C28.9384 34.4039 29.0188 34.7516 29.2583 34.991C29.4268 35.1596 29.6489 35.2493 29.8774 35.2493C29.9735 35.2493 30.0708 35.2334 30.1656 35.2008L32.0284 34.5607C32.6826 34.8711 33.4061 35.035 34.1339 35.0361H34.1416C35.7201 35.036 37.1873 34.285 38.1178 33.0142C39.0861 32.9887 40.0442 32.7543 40.9104 32.3305L43.6149 33.2599C43.7251 33.2979 43.8408 33.3173 43.9574 33.3175C44.2289 33.3175 44.4929 33.2108 44.6931 33.0105C44.9776 32.726 45.0731 32.3128 44.9424 31.9323ZM34.1416 34.0837H34.1354C33.4912 34.0828 32.8514 33.924 32.2855 33.6245C32.2279 33.5941 32.1647 33.5758 32.0998 33.5707C32.0349 33.5656 31.9696 33.5739 31.908 33.5951L29.9979 34.2514L30.6543 32.3414C30.6754 32.2798 30.6837 32.2145 30.6787 32.1496C30.6736 32.0847 30.6553 32.0215 30.6248 31.9639C30.3254 31.3979 30.1666 30.7582 30.1656 30.114C30.164 29.0778 30.5671 28.0956 31.272 27.3602C31.5023 28.7638 32.1712 30.0573 33.2082 31.0758C34.2374 32.0867 35.5313 32.7304 36.9273 32.9409C36.1901 33.6674 35.1965 34.0837 34.1416 34.0837ZM44.0196 32.3371C43.9926 32.3642 43.9604 32.3715 43.9243 32.3591L41.029 31.3642C40.9675 31.3431 40.9022 31.3348 40.8373 31.3398C40.7724 31.3449 40.7092 31.3632 40.6516 31.3937C39.825 31.831 38.8909 32.0629 37.9502 32.0644H37.9412C34.7892 32.0644 32.1857 29.5039 32.1357 26.3527C32.1106 24.7657 32.7143 23.2741 33.8355 22.1528C34.9568 21.0316 36.4486 20.4281 38.0354 20.4531C41.1897 20.5031 43.7519 23.1115 43.747 26.2676C43.7455 27.2083 43.5136 28.1424 43.0763 28.969C43.0459 29.0266 43.0276 29.0898 43.0225 29.1547C43.0174 29.2196 43.0257 29.2849 43.0469 29.3464L44.0417 32.2417C44.0541 32.278 44.0467 32.31 44.0196 32.3371Z"
        fill="#7E91A8" />
    <path
        d="M40.7777 23.7344H35.104C34.841 23.7344 34.6278 23.9476 34.6278 24.2106C34.6278 24.4736 34.841 24.6868 35.104 24.6868H40.7777C41.0407 24.6868 41.2539 24.4735 41.2539 24.2106C41.2539 23.9476 41.0407 23.7344 40.7777 23.7344ZM40.7777 25.6928H35.104C34.841 25.6928 34.6278 25.9061 34.6278 26.169C34.6278 26.432 34.841 26.6452 35.104 26.6452H40.7777C41.0407 26.6452 41.2539 26.432 41.2539 26.169C41.2539 25.9061 41.0407 25.6928 40.7777 25.6928ZM38.5937 27.6513H35.1039C34.8409 27.6513 34.6278 27.8645 34.6278 28.1274C34.6278 28.3904 34.841 28.6036 35.1039 28.6036H38.5937C38.8567 28.6036 39.0699 28.3904 39.0699 28.1274C39.0699 27.8645 38.8567 27.6513 38.5937 27.6513Z"
        fill="#7E91A8" />
    <path
        d="M12.4279 44.7727H13.6893L16.6552 52.017H16.7575L19.7234 44.7727H20.9847V53.5H19.9961V46.8693H19.9109L17.1836 53.5H16.229L13.5018 46.8693H13.4165V53.5H12.4279V44.7727ZM25.7116 53.6364C25.081 53.6364 24.5369 53.4972 24.0795 53.2188C23.625 52.9375 23.2741 52.5455 23.027 52.0426C22.7827 51.5369 22.6605 50.9489 22.6605 50.2784C22.6605 49.608 22.7827 49.017 23.027 48.5057C23.2741 47.9915 23.6179 47.5909 24.0582 47.304C24.5014 47.0142 25.0185 46.8693 25.6094 46.8693C25.9503 46.8693 26.2869 46.9261 26.6193 47.0398C26.9517 47.1534 27.2543 47.3381 27.527 47.5938C27.7997 47.8466 28.017 48.1818 28.179 48.5994C28.3409 49.017 28.4219 49.5312 28.4219 50.142V50.5682H23.3764V49.6989H27.3991C27.3991 49.3295 27.3253 49 27.1776 48.7102C27.0327 48.4205 26.8253 48.1918 26.5554 48.0241C26.2884 47.8565 25.973 47.7727 25.6094 47.7727C25.2088 47.7727 24.8622 47.8722 24.5696 48.071C24.2798 48.267 24.0568 48.5227 23.9006 48.8381C23.7443 49.1534 23.6662 49.4915 23.6662 49.8523V50.4318C23.6662 50.9261 23.7514 51.3452 23.9219 51.6889C24.0952 52.0298 24.3352 52.2898 24.642 52.4688C24.9489 52.6449 25.3054 52.733 25.7116 52.733C25.9759 52.733 26.2145 52.696 26.4276 52.6222C26.6435 52.5455 26.8295 52.4318 26.9858 52.2812C27.142 52.1278 27.2628 51.9375 27.348 51.7102L28.3196 51.983C28.2173 52.3125 28.0455 52.6023 27.804 52.8523C27.5625 53.0994 27.2642 53.2926 26.9091 53.4318C26.554 53.5682 26.1548 53.6364 25.7116 53.6364ZM34.5881 48.4205L33.6847 48.6761C33.6278 48.5256 33.544 48.3793 33.4332 48.2372C33.3253 48.0923 33.1776 47.973 32.9901 47.8793C32.8026 47.7855 32.5625 47.7386 32.2699 47.7386C31.8693 47.7386 31.5355 47.831 31.2685 48.0156C31.0043 48.1974 30.8722 48.429 30.8722 48.7102C30.8722 48.9602 30.9631 49.1577 31.1449 49.3026C31.3267 49.4474 31.6108 49.5682 31.9972 49.6648L32.9688 49.9034C33.554 50.0455 33.9901 50.2628 34.277 50.5554C34.5639 50.8452 34.7074 51.2187 34.7074 51.6761C34.7074 52.0511 34.5994 52.3864 34.3835 52.6818C34.1705 52.9773 33.8722 53.2102 33.4886 53.3807C33.1051 53.5511 32.6591 53.6364 32.1506 53.6364C31.483 53.6364 30.9304 53.4915 30.4929 53.2017C30.0554 52.9119 29.7784 52.4886 29.6619 51.9318L30.6165 51.6932C30.7074 52.0455 30.8793 52.3097 31.1321 52.4858C31.3878 52.6619 31.7216 52.75 32.1335 52.75C32.6023 52.75 32.9744 52.6506 33.25 52.4517C33.5284 52.25 33.6676 52.0085 33.6676 51.7273C33.6676 51.5 33.5881 51.3097 33.429 51.1562C33.2699 51 33.0256 50.8835 32.696 50.8068L31.6051 50.5511C31.0057 50.4091 30.5653 50.1889 30.2841 49.8906C30.0057 49.5895 29.8665 49.2131 29.8665 48.7614C29.8665 48.392 29.9702 48.0653 30.1776 47.7812C30.3878 47.4972 30.6733 47.2741 31.0341 47.1122C31.3977 46.9503 31.8097 46.8693 32.2699 46.8693C32.9176 46.8693 33.4261 47.0114 33.7955 47.2955C34.1676 47.5795 34.4318 47.9545 34.5881 48.4205ZM40.8576 48.4205L39.9542 48.6761C39.8974 48.5256 39.8136 48.3793 39.7028 48.2372C39.5948 48.0923 39.4471 47.973 39.2596 47.8793C39.0721 47.7855 38.832 47.7386 38.5394 47.7386C38.1388 47.7386 37.805 47.831 37.538 48.0156C37.2738 48.1974 37.1417 48.429 37.1417 48.7102C37.1417 48.9602 37.2326 49.1577 37.4144 49.3026C37.5962 49.4474 37.8803 49.5682 38.2667 49.6648L39.2383 49.9034C39.8235 50.0455 40.2596 50.2628 40.5465 50.5554C40.8335 50.8452 40.9769 51.2187 40.9769 51.6761C40.9769 52.0511 40.869 52.3864 40.6531 52.6818C40.44 52.9773 40.1417 53.2102 39.7582 53.3807C39.3746 53.5511 38.9286 53.6364 38.4201 53.6364C37.7525 53.6364 37.1999 53.4915 36.7624 53.2017C36.3249 52.9119 36.0479 52.4886 35.9315 51.9318L36.886 51.6932C36.9769 52.0455 37.1488 52.3097 37.4016 52.4858C37.6573 52.6619 37.9911 52.75 38.4031 52.75C38.8718 52.75 39.244 52.6506 39.5195 52.4517C39.7979 52.25 39.9371 52.0085 39.9371 51.7273C39.9371 51.5 39.8576 51.3097 39.6985 51.1562C39.5394 51 39.2951 50.8835 38.9656 50.8068L37.8746 50.5511C37.2752 50.4091 36.8349 50.1889 36.5536 49.8906C36.2752 49.5895 36.136 49.2131 36.136 48.7614C36.136 48.392 36.2397 48.0653 36.4471 47.7812C36.6573 47.4972 36.9428 47.2741 37.3036 47.1122C37.6673 46.9503 38.0792 46.8693 38.5394 46.8693C39.1871 46.8693 39.6957 47.0114 40.065 47.2955C40.4371 47.5795 40.7013 47.9545 40.8576 48.4205ZM44.4169 53.6534C44.0021 53.6534 43.6257 53.5753 43.2876 53.419C42.9496 53.2599 42.6811 53.0312 42.4822 52.733C42.2834 52.4318 42.1839 52.0682 42.1839 51.642C42.1839 51.267 42.2578 50.9631 42.4055 50.7301C42.5533 50.4943 42.7507 50.3097 42.9979 50.1761C43.245 50.0426 43.5178 49.9432 43.8161 49.8778C44.1172 49.8097 44.4197 49.7557 44.7237 49.7159C45.1214 49.6648 45.4439 49.6264 45.6911 49.6009C45.9411 49.5724 46.1229 49.5256 46.2365 49.4602C46.353 49.3949 46.4112 49.2812 46.4112 49.1193V49.0852C46.4112 48.6648 46.2962 48.3381 46.0661 48.1051C45.8388 47.8722 45.4936 47.7557 45.0305 47.7557C44.5504 47.7557 44.174 47.8608 43.9013 48.071C43.6286 48.2812 43.4368 48.5057 43.326 48.7443L42.3714 48.4034C42.5419 48.0057 42.7692 47.696 43.0533 47.4744C43.3402 47.25 43.6527 47.0937 43.9908 47.0057C44.3317 46.9148 44.6669 46.8693 44.9964 46.8693C45.2067 46.8693 45.4482 46.8949 45.7209 46.946C45.9964 46.9943 46.2621 47.0952 46.5178 47.2486C46.7763 47.402 46.9908 47.6335 47.1612 47.9432C47.3317 48.2528 47.4169 48.6676 47.4169 49.1875V53.5H46.4112V52.6136H46.3601C46.2919 52.7557 46.1783 52.9077 46.0192 53.0696C45.8601 53.2315 45.6484 53.3693 45.3842 53.483C45.12 53.5966 44.7976 53.6534 44.4169 53.6534ZM44.5703 52.75C44.968 52.75 45.3033 52.6719 45.576 52.5156C45.8516 52.3594 46.0589 52.1577 46.1982 51.9105C46.3402 51.6634 46.4112 51.4034 46.4112 51.1307V50.2102C46.3686 50.2614 46.2749 50.3082 46.13 50.3509C45.9879 50.3906 45.8232 50.4261 45.6357 50.4574C45.451 50.4858 45.2706 50.5114 45.0945 50.5341C44.9212 50.554 44.7805 50.571 44.6726 50.5852C44.4112 50.6193 44.1669 50.6747 43.9396 50.7514C43.7152 50.8253 43.5334 50.9375 43.3942 51.0881C43.2578 51.2358 43.1896 51.4375 43.1896 51.6932C43.1896 52.0426 43.3189 52.3068 43.5774 52.4858C43.8388 52.6619 44.1697 52.75 44.5703 52.75ZM51.8945 56.0909C51.4087 56.0909 50.9911 56.0284 50.6417 55.9034C50.2923 55.7812 50.0011 55.6193 49.7681 55.4176C49.538 55.2188 49.3548 55.0057 49.2184 54.7784L50.0195 54.2159C50.1104 54.3352 50.2255 54.4716 50.3647 54.625C50.5039 54.7812 50.6942 54.9162 50.9357 55.0298C51.18 55.1463 51.4996 55.2045 51.8945 55.2045C52.4229 55.2045 52.859 55.0767 53.2028 54.821C53.5465 54.5653 53.7184 54.1648 53.7184 53.6193V52.2898H53.6332C53.5593 52.4091 53.4542 52.5568 53.3178 52.733C53.1843 52.9062 52.9911 53.0611 52.7383 53.1974C52.4883 53.331 52.1502 53.3977 51.7241 53.3977C51.1957 53.3977 50.7212 53.2727 50.3008 53.0227C49.8832 52.7727 49.5522 52.4091 49.3079 51.9318C49.0664 51.4545 48.9457 50.875 48.9457 50.1932C48.9457 49.5227 49.0636 48.9389 49.2994 48.4418C49.5352 47.9418 49.8633 47.5554 50.2837 47.2827C50.7042 47.0071 51.19 46.8693 51.7411 46.8693C52.1673 46.8693 52.5053 46.9403 52.7553 47.0824C53.0082 47.2216 53.2013 47.3807 53.3349 47.5597C53.4712 47.7358 53.5763 47.8807 53.6502 47.9943H53.7525V46.9545H54.7241V53.6875C54.7241 54.25 54.5962 54.7074 54.3406 55.0597C54.0877 55.4148 53.7468 55.6747 53.3178 55.8395C52.8917 56.0071 52.4173 56.0909 51.8945 56.0909ZM51.8604 52.4943C52.2638 52.4943 52.6048 52.402 52.8832 52.2173C53.1616 52.0327 53.3732 51.767 53.5181 51.4205C53.663 51.0739 53.7354 50.6591 53.7354 50.1761C53.7354 49.7045 53.6644 49.2884 53.5224 48.9276C53.3803 48.5668 53.1701 48.2841 52.8917 48.0795C52.6133 47.875 52.2695 47.7727 51.8604 47.7727C51.4343 47.7727 51.0792 47.8807 50.7951 48.0966C50.5138 48.3125 50.3022 48.6023 50.1602 48.9659C50.021 49.3295 49.9513 49.733 49.9513 50.1761C49.9513 50.6307 50.0224 51.0327 50.1644 51.3821C50.3093 51.7287 50.5224 52.0014 50.8036 52.2003C51.0877 52.3963 51.44 52.4943 51.8604 52.4943ZM59.3093 53.6364C58.6786 53.6364 58.1346 53.4972 57.6772 53.2188C57.2227 52.9375 56.8718 52.5455 56.6246 52.0426C56.3803 51.5369 56.2582 50.9489 56.2582 50.2784C56.2582 49.608 56.3803 49.017 56.6246 48.5057C56.8718 47.9915 57.2156 47.5909 57.6559 47.304C58.0991 47.0142 58.6161 46.8693 59.207 46.8693C59.5479 46.8693 59.8846 46.9261 60.217 47.0398C60.5494 47.1534 60.8519 47.3381 61.1246 47.5938C61.3974 47.8466 61.6147 48.1818 61.7766 48.5994C61.9386 49.017 62.0195 49.5312 62.0195 50.142V50.5682H56.9741V49.6989H60.9968C60.9968 49.3295 60.9229 49 60.7752 48.7102C60.6303 48.4205 60.4229 48.1918 60.1531 48.0241C59.886 47.8565 59.5707 47.7727 59.207 47.7727C58.8065 47.7727 58.4599 47.8722 58.1673 48.071C57.8775 48.267 57.6545 48.5227 57.4982 48.8381C57.342 49.1534 57.2638 49.4915 57.2638 49.8523V50.4318C57.2638 50.9261 57.3491 51.3452 57.5195 51.6889C57.6928 52.0298 57.9329 52.2898 58.2397 52.4688C58.5465 52.6449 58.9031 52.733 59.3093 52.733C59.5735 52.733 59.8121 52.696 60.0252 52.6222C60.2411 52.5455 60.4272 52.4318 60.5835 52.2812C60.7397 52.1278 60.8604 51.9375 60.9457 51.7102L61.9173 51.983C61.815 52.3125 61.6431 52.6023 61.4016 52.8523C61.1602 53.0994 60.8619 53.2926 60.5067 53.4318C60.1516 53.5682 59.7525 53.6364 59.3093 53.6364Z"
        fill="#7E91A8" />
</svg>
