<svg width="74" height="72" viewBox="0 0 74 72" fill="none" xmlns="http://www.w3.org/2000/svg">
    <path
        d="M44.9424 31.9323L44.0131 29.2278C44.4611 28.3121 44.6978 27.2937 44.6994 26.2691C44.7021 24.4874 44.0128 22.8028 42.7584 21.5256C41.5037 20.2482 39.8317 19.5291 38.0505 19.5009C36.2034 19.4717 34.4673 20.1742 33.1621 21.4794C31.9035 22.738 31.2055 24.3971 31.1834 26.1701C29.9429 27.1041 29.2108 28.5602 29.2132 30.1154C29.2143 30.8433 29.3782 31.5667 29.6886 32.221L29.0485 34.0837C28.9384 34.4039 29.0188 34.7516 29.2583 34.991C29.4268 35.1596 29.6489 35.2493 29.8774 35.2493C29.9735 35.2493 30.0708 35.2334 30.1656 35.2008L32.0284 34.5607C32.6826 34.8711 33.4061 35.035 34.1339 35.0361H34.1416C35.7201 35.036 37.1873 34.285 38.1178 33.0142C39.0861 32.9887 40.0442 32.7543 40.9104 32.3305L43.6149 33.2599C43.7251 33.2979 43.8408 33.3173 43.9574 33.3175C44.2289 33.3175 44.4929 33.2108 44.6931 33.0105C44.9776 32.726 45.0731 32.3128 44.9424 31.9323ZM34.1416 34.0837H34.1354C33.4912 34.0828 32.8514 33.924 32.2855 33.6245C32.2279 33.5941 32.1647 33.5758 32.0998 33.5707C32.0349 33.5656 31.9696 33.5739 31.908 33.5951L29.9979 34.2514L30.6543 32.3414C30.6754 32.2798 30.6837 32.2145 30.6787 32.1496C30.6736 32.0847 30.6553 32.0215 30.6248 31.9639C30.3254 31.3979 30.1666 30.7582 30.1656 30.114C30.164 29.0778 30.5671 28.0956 31.272 27.3602C31.5023 28.7638 32.1712 30.0573 33.2082 31.0758C34.2374 32.0867 35.5313 32.7304 36.9273 32.9409C36.1901 33.6674 35.1965 34.0837 34.1416 34.0837ZM44.0196 32.3371C43.9926 32.3642 43.9604 32.3715 43.9243 32.3591L41.029 31.3642C40.9675 31.3431 40.9022 31.3348 40.8373 31.3398C40.7724 31.3449 40.7092 31.3632 40.6516 31.3937C39.825 31.831 38.8909 32.0629 37.9502 32.0644H37.9412C34.7892 32.0644 32.1857 29.5039 32.1357 26.3527C32.1106 24.7657 32.7143 23.2741 33.8355 22.1528C34.9568 21.0316 36.4486 20.4281 38.0354 20.4531C41.1897 20.5031 43.7519 23.1115 43.747 26.2676C43.7455 27.2083 43.5136 28.1424 43.0763 28.969C43.0459 29.0266 43.0276 29.0898 43.0225 29.1547C43.0174 29.2196 43.0257 29.2849 43.0469 29.3464L44.0417 32.2417C44.0541 32.278 44.0467 32.31 44.0196 32.3371Z"
        fill="#FF6F00" />
    <path
        d="M40.7779 23.7344H35.1041C34.8411 23.7344 34.628 23.9476 34.628 24.2106C34.628 24.4736 34.8412 24.6868 35.1041 24.6868H40.7779C41.0409 24.6868 41.2541 24.4735 41.2541 24.2106C41.2541 23.9476 41.0409 23.7344 40.7779 23.7344ZM40.7779 25.6928H35.1041C34.8411 25.6928 34.628 25.9061 34.628 26.169C34.628 26.432 34.8412 26.6452 35.1041 26.6452H40.7779C41.0409 26.6452 41.2541 26.432 41.2541 26.169C41.2541 25.9061 41.0409 25.6928 40.7779 25.6928ZM38.5939 27.6513H35.1041C34.8411 27.6513 34.6279 27.8645 34.6279 28.1274C34.6279 28.3904 34.8411 28.6036 35.1041 28.6036H38.5939C38.8569 28.6036 39.0701 28.3904 39.0701 28.1274C39.0701 27.8645 38.8569 27.6513 38.5939 27.6513Z"
        fill="#FF6F00" />
    <path
        d="M11.5288 44.7727H13.4634L16.0543 51.0966H16.1566L18.7475 44.7727H20.6822V53.5H19.1651V47.5043H19.0842L16.6722 53.4744H15.5387L13.1268 47.4915H13.0458V53.5H11.5288V44.7727ZM25.2333 53.6278C24.5771 53.6278 24.0103 53.4915 23.533 53.2188C23.0586 52.9432 22.6935 52.554 22.4379 52.0511C22.1822 51.5455 22.0543 50.9503 22.0543 50.2656C22.0543 49.5923 22.1822 49.0014 22.4379 48.4929C22.6964 47.9815 23.0572 47.5838 23.5202 47.2997C23.9833 47.0128 24.5273 46.8693 25.1523 46.8693C25.5558 46.8693 25.9364 46.9347 26.2944 47.0653C26.6552 47.1932 26.9734 47.392 27.2489 47.6619C27.5273 47.9318 27.7461 48.2756 27.9052 48.6932C28.0643 49.108 28.1438 49.6023 28.1438 50.1761V50.6491H22.7788V49.6094H26.6651C26.6623 49.3139 26.5984 49.0511 26.4734 48.821C26.3484 48.5881 26.1737 48.4048 25.9492 48.2713C25.7276 48.1378 25.4691 48.071 25.1737 48.071C24.8583 48.071 24.5813 48.1477 24.3427 48.3011C24.104 48.4517 23.918 48.6506 23.7844 48.8977C23.6538 49.142 23.587 49.4105 23.5842 49.7031V50.6108C23.5842 50.9915 23.6538 51.3182 23.793 51.5909C23.9322 51.8608 24.1268 52.0682 24.3768 52.2131C24.6268 52.3551 24.9194 52.4261 25.2546 52.4261C25.479 52.4261 25.6822 52.3949 25.864 52.3324C26.0458 52.267 26.2035 52.1719 26.337 52.0469C26.4705 51.9219 26.5714 51.767 26.6396 51.5824L28.0799 51.7443C27.989 52.125 27.8157 52.4574 27.56 52.7415C27.3072 53.0227 26.9833 53.2415 26.5884 53.3977C26.1935 53.5511 25.7418 53.6278 25.2333 53.6278ZM34.6222 48.6847L33.2159 48.8381C33.1761 48.696 33.1065 48.5625 33.0071 48.4375C32.9105 48.3125 32.7798 48.2116 32.6151 48.1349C32.4503 48.0582 32.2486 48.0199 32.0099 48.0199C31.6889 48.0199 31.419 48.0895 31.2003 48.2287C30.9844 48.3679 30.8778 48.5483 30.8807 48.7699C30.8778 48.9602 30.9474 49.1151 31.0895 49.2344C31.2344 49.3537 31.473 49.4517 31.8054 49.5284L32.9219 49.767C33.5412 49.9006 34.0014 50.1122 34.3026 50.402C34.6065 50.6918 34.7599 51.071 34.7628 51.5398C34.7599 51.9517 34.6392 52.3153 34.4006 52.6307C34.1648 52.9432 33.8366 53.1875 33.4162 53.3636C32.9957 53.5398 32.5128 53.6278 31.9673 53.6278C31.1662 53.6278 30.5213 53.4602 30.0327 53.125C29.544 52.7869 29.2528 52.3168 29.1591 51.7145L30.6634 51.5696C30.7315 51.8651 30.8764 52.0881 31.098 52.2386C31.3196 52.3892 31.608 52.4645 31.9631 52.4645C32.3295 52.4645 32.6236 52.3892 32.8452 52.2386C33.0696 52.0881 33.1818 51.902 33.1818 51.6804C33.1818 51.4929 33.1094 51.3381 32.9645 51.2159C32.8224 51.0937 32.6009 51 32.2997 50.9347L31.1832 50.7003C30.5554 50.5696 30.0909 50.3494 29.7898 50.0398C29.4886 49.7273 29.3395 49.3324 29.3423 48.8551C29.3395 48.4517 29.4489 48.1023 29.6705 47.8068C29.8949 47.5085 30.206 47.2784 30.6037 47.1165C31.0043 46.9517 31.4659 46.8693 31.9886 46.8693C32.7557 46.8693 33.3594 47.0327 33.7997 47.3594C34.2429 47.6861 34.517 48.1278 34.6222 48.6847ZM41.2081 48.6847L39.8018 48.8381C39.7621 48.696 39.6925 48.5625 39.593 48.4375C39.4964 48.3125 39.3658 48.2116 39.201 48.1349C39.0362 48.0582 38.8345 48.0199 38.5959 48.0199C38.2749 48.0199 38.005 48.0895 37.7862 48.2287C37.5703 48.3679 37.4638 48.5483 37.4666 48.7699C37.4638 48.9602 37.5334 49.1151 37.6754 49.2344C37.8203 49.3537 38.0589 49.4517 38.3913 49.5284L39.5078 49.767C40.1271 49.9006 40.5874 50.1122 40.8885 50.402C41.1925 50.6918 41.3459 51.071 41.3487 51.5398C41.3459 51.9517 41.2251 52.3153 40.9865 52.6307C40.7507 52.9432 40.4226 53.1875 40.0021 53.3636C39.5817 53.5398 39.0987 53.6278 38.5533 53.6278C37.7521 53.6278 37.1072 53.4602 36.6186 53.125C36.13 52.7869 35.8388 52.3168 35.745 51.7145L37.2493 51.5696C37.3175 51.8651 37.4624 52.0881 37.6839 52.2386C37.9055 52.3892 38.1939 52.4645 38.549 52.4645C38.9155 52.4645 39.2095 52.3892 39.4311 52.2386C39.6555 52.0881 39.7678 51.902 39.7678 51.6804C39.7678 51.4929 39.6953 51.3381 39.5504 51.2159C39.4084 51.0937 39.1868 51 38.8857 50.9347L37.7692 50.7003C37.1413 50.5696 36.6768 50.3494 36.3757 50.0398C36.0746 49.7273 35.9254 49.3324 35.9283 48.8551C35.9254 48.4517 36.0348 48.1023 36.2564 47.8068C36.4808 47.5085 36.7919 47.2784 37.1896 47.1165C37.5902 46.9517 38.0518 46.8693 38.5746 46.8693C39.3416 46.8693 39.9453 47.0327 40.3857 47.3594C40.8288 47.6861 41.103 48.1278 41.2081 48.6847ZM44.5043 53.6321C44.0895 53.6321 43.7159 53.5582 43.3835 53.4105C43.054 53.2599 42.7926 53.0384 42.5994 52.7457C42.4091 52.4531 42.3139 52.0923 42.3139 51.6634C42.3139 51.294 42.3821 50.9886 42.5185 50.7472C42.6548 50.5057 42.8409 50.3125 43.0767 50.1676C43.3125 50.0227 43.5781 49.9134 43.8736 49.8395C44.1719 49.7628 44.4801 49.7074 44.7983 49.6733C45.1818 49.6335 45.4929 49.598 45.7315 49.5668C45.9702 49.5327 46.1435 49.4815 46.2514 49.4134C46.3622 49.3423 46.4176 49.233 46.4176 49.0852V49.0597C46.4176 48.7386 46.3224 48.4901 46.1321 48.3139C45.9418 48.1378 45.6676 48.0497 45.3097 48.0497C44.9318 48.0497 44.6321 48.1321 44.4105 48.2969C44.1918 48.4616 44.044 48.6562 43.9673 48.8807L42.527 48.6761C42.6406 48.2784 42.8281 47.946 43.0895 47.679C43.3509 47.4091 43.6705 47.2074 44.0483 47.0739C44.4261 46.9375 44.8438 46.8693 45.3011 46.8693C45.6165 46.8693 45.9304 46.9062 46.2429 46.9801C46.5554 47.054 46.8409 47.1761 47.0994 47.3466C47.358 47.5142 47.5653 47.7429 47.7216 48.0327C47.8807 48.3224 47.9602 48.6847 47.9602 49.1193V53.5H46.4773V52.6009H46.4261C46.3324 52.7827 46.2003 52.9531 46.0298 53.1122C45.8622 53.2685 45.6506 53.3949 45.3949 53.4915C45.142 53.5852 44.8452 53.6321 44.5043 53.6321ZM44.9048 52.4986C45.2145 52.4986 45.483 52.4375 45.7102 52.3153C45.9375 52.1903 46.1122 52.0256 46.2344 51.821C46.3594 51.6165 46.4219 51.3935 46.4219 51.152V50.3807C46.3736 50.4205 46.2912 50.4574 46.1747 50.4915C46.0611 50.5256 45.9332 50.5554 45.7912 50.581C45.6491 50.6065 45.5085 50.6293 45.3693 50.6491C45.2301 50.669 45.1094 50.6861 45.0071 50.7003C44.777 50.7315 44.571 50.7827 44.3892 50.8537C44.2074 50.9247 44.0639 51.0241 43.9588 51.152C43.8537 51.277 43.8011 51.4389 43.8011 51.6378C43.8011 51.9219 43.9048 52.1364 44.1122 52.2812C44.3196 52.4261 44.5838 52.4986 44.9048 52.4986ZM52.358 56.0909C51.804 56.0909 51.3281 56.0156 50.9304 55.8651C50.5327 55.7173 50.2131 55.5185 49.9716 55.2685C49.7301 55.0185 49.5625 54.7415 49.4688 54.4375L50.858 54.1009C50.9205 54.2287 51.0114 54.3551 51.1307 54.4801C51.25 54.608 51.4105 54.7131 51.6122 54.7955C51.8168 54.8807 52.0739 54.9233 52.3835 54.9233C52.821 54.9233 53.1832 54.8168 53.4702 54.6037C53.7571 54.3935 53.9006 54.0469 53.9006 53.5639V52.3239H53.8239C53.7443 52.483 53.6278 52.6463 53.4744 52.8139C53.3239 52.9815 53.1236 53.1222 52.8736 53.2358C52.6264 53.3494 52.3153 53.4062 51.9403 53.4062C51.4375 53.4062 50.9815 53.2884 50.5724 53.0526C50.1662 52.8139 49.8423 52.4588 49.6009 51.9872C49.3622 51.5128 49.2429 50.919 49.2429 50.206C49.2429 49.4872 49.3622 48.8807 49.6009 48.3864C49.8423 47.8892 50.1676 47.5128 50.5767 47.2571C50.9858 46.9986 51.4418 46.8693 51.9446 46.8693C52.3281 46.8693 52.6435 46.9347 52.8906 47.0653C53.1406 47.1932 53.3395 47.348 53.4872 47.5298C53.6349 47.7088 53.7472 47.8778 53.8239 48.0369H53.9091V46.9545H55.4304V53.6065C55.4304 54.1662 55.2969 54.6293 55.0298 54.9957C54.7628 55.3622 54.3977 55.6364 53.9347 55.8182C53.4716 56 52.946 56.0909 52.358 56.0909ZM52.3707 52.196C52.6974 52.196 52.9759 52.1165 53.206 51.9574C53.4361 51.7983 53.6108 51.5696 53.7301 51.2713C53.8494 50.973 53.9091 50.6151 53.9091 50.1974C53.9091 49.7855 53.8494 49.4247 53.7301 49.1151C53.6136 48.8054 53.4403 48.5653 53.2102 48.3949C52.983 48.2216 52.7031 48.1349 52.3707 48.1349C52.027 48.1349 51.7401 48.2244 51.5099 48.4034C51.2798 48.5824 51.1065 48.8281 50.9901 49.1406C50.8736 49.4503 50.8153 49.8026 50.8153 50.1974C50.8153 50.598 50.8736 50.9489 50.9901 51.25C51.1094 51.5483 51.2841 51.7812 51.5142 51.9489C51.7472 52.1136 52.0327 52.196 52.3707 52.196ZM59.9091 53.6278C59.2528 53.6278 58.6861 53.4915 58.2088 53.2188C57.7344 52.9432 57.3693 52.554 57.1136 52.0511C56.858 51.5455 56.7301 50.9503 56.7301 50.2656C56.7301 49.5923 56.858 49.0014 57.1136 48.4929C57.3722 47.9815 57.733 47.5838 58.196 47.2997C58.6591 47.0128 59.2031 46.8693 59.8281 46.8693C60.2315 46.8693 60.6122 46.9347 60.9702 47.0653C61.331 47.1932 61.6491 47.392 61.9247 47.6619C62.2031 47.9318 62.4219 48.2756 62.581 48.6932C62.7401 49.108 62.8196 49.6023 62.8196 50.1761V50.6491H57.4545V49.6094H61.3409C61.3381 49.3139 61.2741 49.0511 61.1491 48.821C61.0241 48.5881 60.8494 48.4048 60.625 48.2713C60.4034 48.1378 60.1449 48.071 59.8494 48.071C59.5341 48.071 59.2571 48.1477 59.0185 48.3011C58.7798 48.4517 58.5938 48.6506 58.4602 48.8977C58.3295 49.142 58.2628 49.4105 58.2599 49.7031V50.6108C58.2599 50.9915 58.3295 51.3182 58.4688 51.5909C58.608 51.8608 58.8026 52.0682 59.0526 52.2131C59.3026 52.3551 59.5952 52.4261 59.9304 52.4261C60.1548 52.4261 60.358 52.3949 60.5398 52.3324C60.7216 52.267 60.8793 52.1719 61.0128 52.0469C61.1463 51.9219 61.2472 51.767 61.3153 51.5824L62.7557 51.7443C62.6648 52.125 62.4915 52.4574 62.2358 52.7415C61.983 53.0227 61.6591 53.2415 61.2642 53.3977C60.8693 53.5511 60.4176 53.6278 59.9091 53.6278Z"
        fill="#FF6F00" />
    <path d="M21 72C21 69.7909 22.7909 68 25 68H49C51.2091 68 53 69.7909 53 72H21Z"
        fill="#FF6F00" />
</svg>
