<svg width="74" height="72" viewBox="0 0 74 72" fill="none" xmlns="http://www.w3.org/2000/svg">
    <path
        d="M32.4087 23.206V21.6355C32.4087 21.0104 32.9201 20.499 33.5452 20.499H39.4548C40.0799 20.499 40.5913 21.0104 40.5913 21.6355V23.206M44.2946 28.2848V34.3071C44.2946 34.889 43.8183 35.3652 43.2365 35.3652H29.7635C29.1816 35.3652 28.7054 34.8891 28.7054 34.3071V28.3201"
        stroke="#FF6F00" stroke-width="1.1" stroke-miterlimit="22.9256" stroke-linecap="round"
        stroke-linejoin="round" />
    <path
        d="M35.0892 30.0659C31.3581 29.8526 28 28.7857 28 26.8651V24.3611C28 23.7783 28.4753 23.303 29.0581 23.303H43.9419C44.5247 23.303 45 23.7783 45 24.3611V26.8651C45 28.7977 41.5995 29.8659 37.8402 30.0699"
        stroke="#FF6F00" stroke-width="1.1" stroke-miterlimit="22.9256" stroke-linecap="round"
        stroke-linejoin="round" />
    <path fill-rule="evenodd" clip-rule="evenodd"
        d="M35.195 29.0167H37.805V30.2335C37.805 30.9027 37.2574 31.4503 36.5882 31.4503H36.4118C35.7426 31.4503 35.195 30.9027 35.195 30.2335V29.0167Z"
        stroke="#FF6F00" stroke-width="1.1" stroke-miterlimit="22.9256" stroke-linecap="round"
        stroke-linejoin="round" />
    <path
        d="M13.392 44.7727H15.3267L17.9176 51.0966H18.0199L20.6108 44.7727H22.5455V53.5H21.0284V47.5043H20.9474L18.5355 53.4744H17.402L14.9901 47.4915H14.9091V53.5H13.392V44.7727ZM25.1577 55.9545C24.9474 55.9545 24.7528 55.9375 24.5739 55.9034C24.3977 55.8722 24.2571 55.8352 24.152 55.7926L24.5099 54.5909C24.7344 54.6563 24.9347 54.6875 25.1108 54.6847C25.2869 54.6818 25.4418 54.6264 25.5753 54.5185C25.7116 54.4134 25.8267 54.2372 25.9205 53.9901L26.0526 53.6364L23.679 46.9545H25.3153L26.8239 51.8977H26.892L28.4048 46.9545H30.0455L27.4247 54.2926C27.3026 54.6392 27.1406 54.9361 26.9389 55.1832C26.7372 55.4332 26.4901 55.6236 26.1974 55.7543C25.9077 55.8878 25.5611 55.9545 25.1577 55.9545ZM37.6009 44.7727H39.169V50.9091C39.1662 51.4716 39.0469 51.956 38.8111 52.3622C38.5753 52.7656 38.2457 53.0767 37.8224 53.2955C37.402 53.5114 36.9119 53.6193 36.3523 53.6193C35.8409 53.6193 35.3807 53.5284 34.9716 53.3466C34.5653 53.1619 34.2429 52.8892 34.0043 52.5284C33.7656 52.1676 33.6463 51.7187 33.6463 51.1818H35.2188C35.2216 51.4176 35.2727 51.6207 35.3722 51.7912C35.4744 51.9616 35.6151 52.0923 35.794 52.1832C35.973 52.2741 36.179 52.3196 36.4119 52.3196C36.6648 52.3196 36.8793 52.267 37.0554 52.1619C37.2315 52.054 37.3651 51.8949 37.456 51.6847C37.5497 51.4744 37.598 51.2159 37.6009 50.9091V44.7727ZM43.6712 53.6278C43.032 53.6278 42.478 53.4872 42.0092 53.206C41.5405 52.9247 41.1768 52.5312 40.9183 52.0256C40.6626 51.5199 40.5348 50.929 40.5348 50.2528C40.5348 49.5767 40.6626 48.9844 40.9183 48.4759C41.1768 47.9673 41.5405 47.5724 42.0092 47.2912C42.478 47.0099 43.032 46.8693 43.6712 46.8693C44.3104 46.8693 44.8643 47.0099 45.3331 47.2912C45.8018 47.5724 46.1641 47.9673 46.4197 48.4759C46.6783 48.9844 46.8075 49.5767 46.8075 50.2528C46.8075 50.929 46.6783 51.5199 46.4197 52.0256C46.1641 52.5312 45.8018 52.9247 45.3331 53.206C44.8643 53.4872 44.3104 53.6278 43.6712 53.6278ZM43.6797 52.392C44.0263 52.392 44.3161 52.2969 44.549 52.1065C44.782 51.9134 44.9553 51.6548 45.0689 51.331C45.1854 51.0071 45.2436 50.6463 45.2436 50.2486C45.2436 49.848 45.1854 49.4858 45.0689 49.1619C44.9553 48.8352 44.782 48.5753 44.549 48.3821C44.3161 48.1889 44.0263 48.0923 43.6797 48.0923C43.3246 48.0923 43.0291 48.1889 42.7933 48.3821C42.5604 48.5753 42.3857 48.8352 42.2692 49.1619C42.1555 49.4858 42.0987 49.848 42.0987 50.2486C42.0987 50.6463 42.1555 51.0071 42.2692 51.331C42.3857 51.6548 42.5604 51.9134 42.7933 52.1065C43.0291 52.2969 43.3246 52.392 43.6797 52.392ZM48.185 53.5V44.7727H49.7276V48.0369H49.7915C49.8711 47.8778 49.9833 47.7088 50.1282 47.5298C50.2731 47.348 50.4691 47.1932 50.7163 47.0653C50.9634 46.9347 51.2788 46.8693 51.6623 46.8693C52.168 46.8693 52.6239 46.9986 53.0302 47.2571C53.4393 47.5128 53.7631 47.892 54.0018 48.3949C54.2433 48.8949 54.364 49.5085 54.364 50.2358C54.364 50.9545 54.2461 51.5653 54.0103 52.0682C53.7745 52.571 53.4535 52.9545 53.0472 53.2188C52.641 53.483 52.1808 53.6151 51.6665 53.6151C51.2915 53.6151 50.9805 53.5526 50.7333 53.4276C50.4862 53.3026 50.2873 53.152 50.1367 52.9759C49.989 52.7969 49.8739 52.6278 49.7915 52.4688H49.7021V53.5H48.185ZM49.6978 50.2273C49.6978 50.6506 49.7575 51.0213 49.8768 51.3395C49.9989 51.6577 50.1737 51.9062 50.4009 52.0852C50.631 52.2614 50.9094 52.3494 51.2362 52.3494C51.5771 52.3494 51.8626 52.2585 52.0927 52.0767C52.3228 51.892 52.4961 51.6406 52.6126 51.3224C52.7319 51.0014 52.7915 50.6364 52.7915 50.2273C52.7915 49.821 52.7333 49.4602 52.6168 49.1449C52.5004 48.8295 52.3271 48.5824 52.0969 48.4034C51.8668 48.2244 51.5799 48.1349 51.2362 48.1349C50.9066 48.1349 50.6268 48.2216 50.3967 48.3949C50.1665 48.5682 49.9918 48.8111 49.8725 49.1236C49.756 49.4361 49.6978 49.804 49.6978 50.2273ZM60.8487 48.6847L59.4425 48.8381C59.4027 48.696 59.3331 48.5625 59.2337 48.4375C59.1371 48.3125 59.0064 48.2116 58.8416 48.1349C58.6768 48.0582 58.4751 48.0199 58.2365 48.0199C57.9155 48.0199 57.6456 48.0895 57.4268 48.2287C57.2109 48.3679 57.1044 48.5483 57.1072 48.7699C57.1044 48.9602 57.174 49.1151 57.3161 49.2344C57.4609 49.3537 57.6996 49.4517 58.032 49.5284L59.1484 49.767C59.7678 49.9006 60.228 50.1122 60.5291 50.402C60.8331 50.6918 60.9865 51.071 60.9893 51.5398C60.9865 51.9517 60.8658 52.3153 60.6271 52.6307C60.3913 52.9432 60.0632 53.1875 59.6428 53.3636C59.2223 53.5398 58.7393 53.6278 58.1939 53.6278C57.3928 53.6278 56.7479 53.4602 56.2592 53.125C55.7706 52.7869 55.4794 52.3168 55.3857 51.7145L56.8899 51.5696C56.9581 51.8651 57.103 52.0881 57.3246 52.2386C57.5462 52.3892 57.8345 52.4645 58.1896 52.4645C58.5561 52.4645 58.8501 52.3892 59.0717 52.2386C59.2962 52.0881 59.4084 51.902 59.4084 51.6804C59.4084 51.4929 59.3359 51.3381 59.1911 51.2159C59.049 51.0937 58.8274 51 58.5263 50.9347L57.4098 50.7003C56.782 50.5696 56.3175 50.3494 56.0163 50.0398C55.7152 49.7273 55.5661 49.3324 55.5689 48.8551C55.5661 48.4517 55.6754 48.1023 55.897 47.8068C56.1214 47.5085 56.4325 47.2784 56.8303 47.1165C57.2308 46.9517 57.6925 46.8693 58.2152 46.8693C58.9822 46.8693 59.5859 47.0327 60.0263 47.3594C60.4695 47.6861 60.7436 48.1278 60.8487 48.6847Z"
        fill="#FF6F00" />
    <path d="M21 72C21 69.7909 22.7909 68 25 68H49C51.2091 68 53 69.7909 53 72H21Z"
        fill="#FF6F00" />
</svg>
