<svg width="74" height="72" viewBox="0 0 74 72" fill="none" xmlns="http://www.w3.org/2000/svg">
    <path
        d="M32.4087 23.206V21.6355C32.4087 21.0104 32.9201 20.499 33.5452 20.499H39.4548C40.0799 20.499 40.5913 21.0104 40.5913 21.6355V23.206M44.2946 28.2848V34.3071C44.2946 34.889 43.8184 35.3652 43.2365 35.3652H29.7635C29.1816 35.3652 28.7054 34.8891 28.7054 34.3071V28.3201"
        stroke="#7E91A8" stroke-width="1.1" stroke-miterlimit="22.9256" stroke-linecap="round"
        stroke-linejoin="round" />
    <path
        d="M35.0892 30.0659C31.3581 29.8526 28 28.7857 28 26.8651V24.3611C28 23.7783 28.4753 23.303 29.0581 23.303H43.9419C44.5247 23.303 45 23.7783 45 24.3611V26.8651C45 28.7977 41.5995 29.8659 37.8402 30.0699"
        stroke="#7E91A8" stroke-width="1.1" stroke-miterlimit="22.9256" stroke-linecap="round"
        stroke-linejoin="round" />
    <path fill-rule="evenodd" clip-rule="evenodd"
        d="M35.195 29.0166H37.805V30.2334C37.805 30.9026 37.2574 31.4502 36.5882 31.4502H36.4118C35.7426 31.4502 35.195 30.9026 35.195 30.2334V29.0166Z"
        stroke="#7E91A8" stroke-width="1.1" stroke-miterlimit="22.9256" stroke-linecap="round"
        stroke-linejoin="round" />
    <path
        d="M13.9924 44.7727H15.2537L18.2196 52.017H18.3219L21.2878 44.7727H22.5492V53.5H21.5605V46.8693H21.4753L18.748 53.5H17.7935L15.0662 46.8693H14.981V53.5H13.9924V44.7727ZM25.1795 55.9545C25.0091 55.9545 24.8571 55.9403 24.7235 55.9119C24.59 55.8864 24.4977 55.8608 24.4466 55.8352L24.7022 54.9489C24.9466 55.0114 25.1625 55.0341 25.35 55.017C25.5375 55 25.7037 54.9162 25.8485 54.7656C25.9963 54.6179 26.1312 54.3778 26.2534 54.0455L26.4409 53.5341L24.0204 46.9545H25.1113L26.9181 52.1705H26.9863L28.7931 46.9545H29.8841L27.1056 54.4545C26.9806 54.7926 26.8258 55.0724 26.6412 55.294C26.4565 55.5185 26.242 55.6847 25.9977 55.7926C25.7562 55.9006 25.4835 55.9545 25.1795 55.9545ZM38.0637 44.7727H39.1206V51.0114C39.1206 51.5682 39.0183 52.0412 38.8137 52.4304C38.6092 52.8196 38.3208 53.1151 37.9487 53.3168C37.5765 53.5185 37.1376 53.6193 36.6319 53.6193C36.1547 53.6193 35.7299 53.5327 35.3578 53.3594C34.9856 53.1832 34.693 52.9332 34.4799 52.6094C34.2669 52.2855 34.1603 51.9006 34.1603 51.4545H35.2001C35.2001 51.7017 35.2612 51.9176 35.3833 52.1023C35.5083 52.2841 35.6788 52.4261 35.8947 52.5284C36.1106 52.6307 36.3564 52.6818 36.6319 52.6818C36.9359 52.6818 37.1944 52.6179 37.4075 52.4901C37.6206 52.3622 37.7825 52.1747 37.8933 51.9276C38.0069 51.6776 38.0637 51.3722 38.0637 51.0114V44.7727ZM43.7612 53.6364C43.1703 53.6364 42.6518 53.4957 42.2058 53.2145C41.7626 52.9332 41.416 52.5398 41.166 52.0341C40.9189 51.5284 40.7953 50.9375 40.7953 50.2614C40.7953 49.5795 40.9189 48.9844 41.166 48.4759C41.416 47.9673 41.7626 47.5724 42.2058 47.2912C42.6518 47.0099 43.1703 46.8693 43.7612 46.8693C44.3521 46.8693 44.8691 47.0099 45.3123 47.2912C45.7583 47.5724 46.1049 47.9673 46.3521 48.4759C46.6021 48.9844 46.7271 49.5795 46.7271 50.2614C46.7271 50.9375 46.6021 51.5284 46.3521 52.0341C46.1049 52.5398 45.7583 52.9332 45.3123 53.2145C44.8691 53.4957 44.3521 53.6364 43.7612 53.6364ZM43.7612 52.733C44.21 52.733 44.5794 52.6179 44.8691 52.3878C45.1589 52.1577 45.3734 51.8551 45.5126 51.4801C45.6518 51.1051 45.7214 50.6989 45.7214 50.2614C45.7214 49.8239 45.6518 49.4162 45.5126 49.0384C45.3734 48.6605 45.1589 48.3551 44.8691 48.1222C44.5794 47.8892 44.21 47.7727 43.7612 47.7727C43.3123 47.7727 42.943 47.8892 42.6532 48.1222C42.3635 48.3551 42.149 48.6605 42.0098 49.0384C41.8706 49.4162 41.801 49.8239 41.801 50.2614C41.801 50.6989 41.8706 51.1051 42.0098 51.4801C42.149 51.8551 42.3635 52.1577 42.6532 52.3878C42.943 52.6179 43.3123 52.733 43.7612 52.733ZM48.3986 53.5V44.7727H49.4043V47.9943H49.4895C49.5634 47.8807 49.6657 47.7358 49.7963 47.5597C49.9299 47.3807 50.1202 47.2216 50.3674 47.0824C50.6174 46.9403 50.9554 46.8693 51.3816 46.8693C51.9327 46.8693 52.4185 47.0071 52.839 47.2827C53.2594 47.5582 53.5875 47.9489 53.8233 48.4545C54.0591 48.9602 54.177 49.5568 54.177 50.2443C54.177 50.9375 54.0591 51.5384 53.8233 52.0469C53.5875 52.5526 53.2608 52.9446 52.8432 53.223C52.4256 53.4986 51.9441 53.6364 51.3986 53.6364C50.9782 53.6364 50.6415 53.5668 50.3887 53.4276C50.1358 53.2855 49.9412 53.125 49.8049 52.946C49.6685 52.7642 49.5634 52.6136 49.4895 52.4943H49.3702V53.5H48.3986ZM49.3873 50.2273C49.3873 50.7216 49.4597 51.1577 49.6046 51.5355C49.7495 51.9105 49.9611 52.2045 50.2395 52.4176C50.5179 52.6278 50.8588 52.733 51.2623 52.733C51.6827 52.733 52.0336 52.6222 52.3148 52.4006C52.5989 52.1761 52.812 51.875 52.954 51.4972C53.0989 51.1165 53.1713 50.6932 53.1713 50.2273C53.1713 49.767 53.1003 49.3523 52.9583 48.983C52.8191 48.6108 52.6074 48.3168 52.3233 48.1009C52.0421 47.8821 51.6884 47.7727 51.2623 47.7727C50.8532 47.7727 50.5094 47.8764 50.231 48.0838C49.9526 48.2884 49.7424 48.5753 49.6003 48.9446C49.4583 49.3111 49.3873 49.7386 49.3873 50.2273ZM60.3517 48.4205L59.4483 48.6761C59.3915 48.5256 59.3077 48.3793 59.1969 48.2372C59.089 48.0923 58.9412 47.973 58.7537 47.8793C58.5662 47.7855 58.3262 47.7386 58.0336 47.7386C57.633 47.7386 57.2992 47.831 57.0321 48.0156C56.7679 48.1974 56.6358 48.429 56.6358 48.7102C56.6358 48.9602 56.7267 49.1577 56.9086 49.3026C57.0904 49.4474 57.3745 49.5682 57.7608 49.6648L58.7324 49.9034C59.3176 50.0455 59.7537 50.2628 60.0407 50.5554C60.3276 50.8452 60.4711 51.2187 60.4711 51.6761C60.4711 52.0511 60.3631 52.3864 60.1472 52.6818C59.9341 52.9773 59.6358 53.2102 59.2523 53.3807C58.8688 53.5511 58.4228 53.6364 57.9142 53.6364C57.2466 53.6364 56.6941 53.4915 56.2566 53.2017C55.8191 52.9119 55.5421 52.4886 55.4256 51.9318L56.3801 51.6932C56.4711 52.0455 56.6429 52.3097 56.8958 52.4858C57.1515 52.6619 57.4853 52.75 57.8972 52.75C58.3659 52.75 58.7381 52.6506 59.0137 52.4517C59.2921 52.25 59.4313 52.0085 59.4313 51.7273C59.4313 51.5 59.3517 51.3097 59.1926 51.1562C59.0336 51 58.7892 50.8835 58.4597 50.8068L57.3688 50.5511C56.7694 50.4091 56.329 50.1889 56.0478 49.8906C55.7694 49.5895 55.6301 49.2131 55.6301 48.7614C55.6301 48.392 55.7338 48.0653 55.9412 47.7812C56.1515 47.4972 56.437 47.2741 56.7978 47.1122C57.1614 46.9503 57.5733 46.8693 58.0336 46.8693C58.6813 46.8693 59.1898 47.0114 59.5591 47.2955C59.9313 47.5795 60.1955 47.9545 60.3517 48.4205Z"
        fill="#7E91A8" />
</svg>
