<svg width="143" height="143" viewBox="0 0 143 143" fill="none" xmlns="http://www.w3.org/2000/svg">
    <g clip-path="url(#clip0_1_29109)">
        <path
            d="M38.5181 -0.113624C39.4906 -0.112288 40.4631 -0.115809 41.4357 -0.118656C43.3352 -0.123431 45.2347 -0.123697 47.1343 -0.122227C48.6803 -0.121093 50.2262 -0.121508 51.7722 -0.122995C51.9933 -0.123204 52.2143 -0.123413 52.442 -0.123629C52.8912 -0.124056 53.3404 -0.124486 53.7896 -0.124917C57.9913 -0.128742 62.1929 -0.127239 66.3946 -0.124028C70.2267 -0.121256 74.0587 -0.124866 77.8908 -0.13155C81.8386 -0.138384 85.7864 -0.141041 89.7342 -0.139188C91.9454 -0.138218 94.1565 -0.138806 96.3677 -0.143727C98.2502 -0.147866 100.133 -0.147983 102.015 -0.143149C102.973 -0.140793 103.931 -0.14012 104.889 -0.144448C115.609 -0.182746 124.478 2.58459 132.386 10.0547C132.701 10.342 132.701 10.342 133.021 10.6351C136.917 14.3259 139.727 19.2967 141.446 24.3512C141.508 24.5329 141.57 24.7147 141.635 24.9019C141.834 25.5343 141.999 26.1696 142.162 26.8125C142.232 27.0881 142.303 27.3636 142.375 27.6475C143.172 31.2523 143.122 34.841 143.113 38.5185C143.112 39.491 143.115 40.4635 143.118 41.4361C143.123 43.3356 143.123 45.2351 143.122 47.1346C143.121 48.6806 143.121 50.2266 143.123 51.7726C143.123 51.9936 143.123 52.2147 143.123 52.4424C143.124 52.8916 143.124 53.3408 143.125 53.7899C143.128 57.9916 143.127 62.1933 143.124 66.395C143.121 70.2271 143.124 74.0591 143.131 77.8912C143.138 81.839 143.141 85.7868 143.139 89.7346C143.138 91.9458 143.138 94.1569 143.143 96.368C143.147 98.2506 143.148 100.133 143.143 102.016C143.14 102.974 143.14 103.931 143.144 104.889C143.183 115.693 140.278 125.044 132.578 132.893C128.64 136.751 123.868 139.668 118.648 141.446C118.376 141.54 118.376 141.54 118.098 141.635C117.465 141.834 116.83 141.999 116.187 142.162C115.774 142.268 115.774 142.268 115.352 142.376C111.747 143.173 108.159 143.122 104.481 143.114C103.509 143.112 102.536 143.116 101.564 143.119C99.664 143.123 97.7645 143.124 95.865 143.122C94.319 143.121 92.773 143.122 91.227 143.123C91.006 143.123 90.785 143.123 90.5572 143.124C90.108 143.124 89.6589 143.124 89.2097 143.125C85.008 143.129 80.8063 143.127 76.6046 143.124C72.7726 143.121 68.9405 143.125 65.1085 143.132C61.1606 143.138 57.2129 143.141 53.265 143.139C51.0539 143.138 48.8427 143.139 46.6316 143.144C44.749 143.148 42.8665 143.148 40.9839 143.143C40.0261 143.141 39.0683 143.14 38.1105 143.144C27.2058 143.183 17.9094 140.209 9.98449 132.474C3.67438 126.055 -0.101114 117.315 -0.0750669 108.3C-0.0763324 107.972 -0.0775986 107.645 -0.0789025 107.307C-0.081804 106.409 -0.0822501 105.51 -0.0815874 104.611C-0.0814725 103.638 -0.0845636 102.665 -0.0872043 101.691C-0.0918256 99.7879 -0.0933784 97.8845 -0.0936907 95.981C-0.0939571 94.4318 -0.0951088 92.8826 -0.0968742 91.3334C-0.101789 86.9303 -0.104373 82.5272 -0.103953 78.124C-0.103931 77.8871 -0.103908 77.6502 -0.103885 77.4062C-0.103862 77.169 -0.10384 76.9318 -0.103817 76.6874C-0.10359 72.848 -0.10893 69.0087 -0.116811 65.1693C-0.12486 61.2165 -0.128692 57.2637 -0.128211 53.3109C-0.128026 51.0959 -0.129522 48.881 -0.135571 46.6661C-0.140691 44.7794 -0.141846 42.8928 -0.138081 41.0061C-0.136274 40.046 -0.13616 39.086 -0.141068 38.1259C-0.185803 27.3991 2.57927 18.5265 10.0543 10.6133C10.2458 10.4037 10.4374 10.1942 10.6347 9.97832C14.3255 6.08251 19.2963 3.27244 24.3508 1.55359C24.5325 1.4914 24.7143 1.4292 24.9015 1.36512C25.5339 1.1656 26.1692 1.00085 26.8121 0.837894C27.0877 0.767432 27.3632 0.69697 27.6471 0.624372C31.2519 -0.172759 34.8406 -0.122155 38.5181 -0.113624Z"
            fill="#002147" />
        <path
            d="M70.9591 17.7877C71.2383 17.7882 71.2383 17.7882 71.5231 17.7887C74.6885 17.7995 77.7715 18.0487 80.8908 18.5996C81.5379 18.71 82.185 18.8005 82.8358 18.8864C85.4482 19.2567 87.2333 19.9231 88.9356 21.9892C89.712 23.1551 89.9083 24.3388 89.6546 25.6953C88.9891 27.7142 87.7862 28.8297 85.919 29.8324C84.1639 30.4073 82.8048 30.2396 81.0566 29.7656C78.1677 29.0179 75.2838 28.9451 72.3207 28.9596C72.1047 28.9601 71.8887 28.9606 71.6661 28.9611C60.3675 29.006 50.7253 33.1683 42.5753 40.9535C42.1864 41.3242 41.793 41.6902 41.3995 42.056C34.4837 48.6745 29.7933 58.2719 29.5314 67.9101C29.5148 68.9381 29.5134 69.9656 29.5185 70.9938C29.5192 71.3177 29.5192 71.3177 29.52 71.6482C29.5327 74.8352 29.6612 77.8929 30.4436 80.9961C30.5155 81.3013 30.5155 81.3013 30.5889 81.6127C31.3297 84.7261 32.3928 87.6182 33.7952 90.4922C33.8813 90.6696 33.9673 90.8471 34.056 91.0299C36.1528 95.2942 38.8843 98.815 42.1741 102.223C42.339 102.405 42.5039 102.588 42.6738 102.776C48.5711 109.142 58.7148 113.657 67.3125 114.011C68.5281 114.045 69.7432 114.047 70.9591 114.04C71.1745 114.04 71.3898 114.039 71.6116 114.038C83.1525 113.981 92.9591 109.794 101.385 101.943C101.691 101.665 101.691 101.665 102.003 101.382C106.472 97.1458 109.731 91.5391 111.719 85.7441C111.791 85.5362 111.863 85.3283 111.937 85.1141C113.343 80.9704 114.16 76.7846 114.316 72.4072C114.387 70.4746 114.49 68.9938 115.908 67.5898C117.05 66.5414 118.112 66.0989 119.662 66.0013C121.327 66.0801 122.534 66.7217 123.729 67.8691C124.676 69.0611 124.708 70.2062 124.689 71.6746C124.686 71.9165 124.684 72.1584 124.681 72.4076C124.343 85.7944 118.748 98.5236 109.485 108.088C109.343 108.237 109.202 108.385 109.056 108.538C105.827 111.926 102.295 114.585 98.3128 117.025C98.0093 117.215 97.7058 117.405 97.3931 117.6C94.6672 119.24 91.7984 120.401 88.8167 121.494C88.5033 121.612 88.5033 121.612 88.1835 121.732C75.6865 126.36 61.2407 125.596 49.1565 120.098C36.2449 114.005 26.1889 103.513 21.1911 90.0615C16.5273 76.9163 16.4064 62.5965 22.3314 49.7811C22.61 49.1978 22.8945 48.618 23.1819 48.0391C23.27 47.8583 23.3582 47.6775 23.4489 47.4912C29.7892 34.5907 41.3451 25.1906 54.7425 20.3887C59.9824 18.6126 65.4393 17.7642 70.9591 17.7877Z"
            fill="#FDFEFE" />
        <path
            d="M109.205 39.9396C111.22 40.6143 112.71 41.6421 113.674 43.5704C113.871 45.6705 113.856 47.4428 112.557 49.1564C111.747 50.081 110.914 50.9779 110.066 51.8675C109.319 52.6556 108.626 53.4743 107.948 54.3234C106.881 55.6531 105.745 56.8965 104.58 58.1397C103.71 59.0745 102.883 60.0294 102.083 61.0265C101.016 62.3562 99.8795 63.5996 98.7151 64.8428C97.8445 65.7777 97.0177 66.7326 96.2178 67.7296C95.1509 69.0594 94.0143 70.3027 92.8498 71.5459C91.9793 72.4808 91.1525 73.4357 90.3525 74.4327C89.2856 75.7625 88.1491 77.0058 86.9846 78.2491C86.114 79.1839 85.2873 80.1388 84.4873 81.1359C83.5536 82.2996 82.5738 83.3993 81.5547 84.4874C80.5247 85.5873 79.5337 86.7 78.5872 87.8739C74.263 93.2146 74.263 93.2146 71.3778 93.7391C68.3718 93.2118 66.0633 90.2153 63.9972 88.1477C63.6278 87.7804 63.2584 87.4131 62.8888 87.0459C62.1182 86.2789 61.3492 85.5104 60.5812 84.7407C59.6005 83.7584 58.6148 82.7813 57.6277 81.8055C56.8645 81.0495 56.1045 80.2903 55.3455 79.5302C54.9835 79.1687 54.6204 78.8083 54.2561 78.449C50.2584 74.5002 50.2584 74.5002 49.8545 71.6223C50.1448 69.6266 51.0209 68.3542 52.5689 67.0947C54.0871 66.0492 55.4402 65.932 57.2559 66.1935C59.5488 67.0477 61.3075 69.3569 62.9793 71.0681C63.8249 71.9311 64.7032 72.7303 65.6271 73.5087C66.5663 74.3465 67.4412 75.2501 68.3199 76.1507C69.2407 77.0875 70.1998 77.9348 71.2207 78.7618C72.4369 78.3209 73.1139 77.3725 73.9089 76.4053C74.2078 76.0485 74.5071 75.6922 74.8068 75.3361C74.9555 75.1591 75.1041 74.9822 75.2573 74.7999C75.8672 74.0847 76.5006 73.3952 77.1383 72.7046C78.0346 71.7284 78.8904 70.7341 79.7218 69.7021C80.7437 68.4351 81.8197 67.2384 82.9277 66.0478C83.7575 65.1509 84.543 64.2311 85.3077 63.2783C86.3811 61.9439 87.5228 60.6941 88.6924 59.4452C89.7881 58.2686 90.8048 57.0426 91.8112 55.7886C92.6318 54.7991 93.5037 53.8613 94.379 52.9207C95.2088 52.0239 95.9942 51.1041 96.7589 50.1514C97.8313 48.8181 98.9711 47.5685 100.141 46.3219C101.048 45.3495 101.9 44.3496 102.729 43.3086C104.606 40.9707 106.106 39.5592 109.205 39.9396Z"
            fill="#FDFEFE" />
    </g>
    <defs>
        <clipPath id="clip0_1_29109">
            <rect width="143" height="143" fill="white" />
        </clipPath>
    </defs>
</svg>
