<svg width="42" height="42" viewBox="0 0 42 42" fill="none" xmlns="http://www.w3.org/2000/svg">
    <rect width="42" height="42" rx="20" fill="#F9F9F9" />
    <rect x="0.15" y="0.15" width="41.7" height="41.7" rx="19.85" stroke="#E53935"
        stroke-opacity="0.2" stroke-width="0.3" />
    <path
        d="M24.5002 27C24.5002 27.4596 24.4097 27.9148 24.2338 28.3394C24.0579 28.764 23.8001 29.1499 23.4751 29.4749C23.1501 29.7999 22.7642 30.0577 22.3396 30.2336C21.915 30.4095 21.4598 30.5 21.0002 30.5C20.5406 30.5 20.0855 30.4095 19.6608 30.2336C19.2362 30.0577 18.8503 29.7999 18.5253 29.4749C18.2003 29.1499 17.9425 28.764 17.7666 28.3394C17.5907 27.9148 17.5002 27.4596 17.5002 27M28.2312 27H13.7702C13.4204 26.9999 13.0785 26.896 12.7876 26.7015C12.4968 26.5071 12.2702 26.2308 12.1364 25.9075C12.0026 25.5843 11.9677 25.2287 12.036 24.8856C12.1043 24.5425 12.2728 24.2273 12.5202 23.98L13.1222 23.377C13.6845 22.8144 14.0003 22.0514 14.0002 21.256V18.5C14.0002 16.6435 14.7377 14.863 16.0505 13.5503C17.3632 12.2375 19.1437 11.5 21.0002 11.5C22.8567 11.5 24.6372 12.2375 25.95 13.5503C27.2627 14.863 28.0002 16.6435 28.0002 18.5V21.256C28.0004 22.0516 28.3166 22.8145 28.8792 23.377L29.4822 23.98C29.7291 24.2275 29.8972 24.5426 29.9652 24.8856C30.0333 25.2285 29.9982 25.5839 29.8645 25.9069C29.7308 26.23 29.5044 26.5062 29.2139 26.7007C28.9234 26.8952 28.5808 26.9994 28.2312 27Z"
        stroke="#222222" stroke-width="2" stroke-linecap="round" stroke-linejoin="round" />
</svg>
