<svg width="38" height="38" viewBox="0 0 38 38" fill="none" xmlns="http://www.w3.org/2000/svg">
    <rect width="38" height="38" rx="19" fill="#F6F7F9" />
    <rect width="38" height="38" rx="19" fill="#F0F0FA" />
    <path
        d="M28.75 12V22C28.75 23.63 27.7 25 26.25 25.52V16C26.25 13.11 23.89 10.75 21 10.75H13.48C14 9.3 15.37 8.25 17 8.25H25C27.07 8.25 28.75 9.93 28.75 12ZM16 15.25H18C18.69 15.25 19.25 14.69 19.25 14V12.25H14.75V14C14.75 14.69 15.31 15.25 16 15.25ZM24.75 16V26C24.75 28.07 23.07 29.75 21 29.75H13C10.93 29.75 9.25 28.07 9.25 26V16C9.25 13.93 10.93 12.25 13 12.25H13.25V14C13.25 15.52 14.48 16.75 16 16.75H18C19.52 16.75 20.75 15.52 20.75 14V12.25H21C23.07 12.25 24.75 13.93 24.75 16ZM20.75 25C20.75 24.59 20.41 24.25 20 24.25H14C13.59 24.25 13.25 24.59 13.25 25C13.25 25.41 13.59 25.75 14 25.75H20C20.41 25.75 20.75 25.41 20.75 25ZM20.75 21C20.75 20.59 20.41 20.25 20 20.25H14C13.59 20.25 13.25 20.59 13.25 21C13.25 21.41 13.59 21.75 14 21.75H20C20.41 21.75 20.75 21.41 20.75 21Z"
        fill="#002147" />
</svg>
