<svg width="32" height="32" viewBox="0 0 32 32" fill="none" xmlns="http://www.w3.org/2000/svg">
    <path d="M19.562 1.25H7C6.46957 1.25 5.96086 1.46071 5.58579 1.83579C5.21071 2.21086 5 2.71957 5 3.25V28.25C5 28.7804 5.21071 29.2891 5.58579 29.6642C5.96086 30.0393 6.46957 30.25 7 30.25H25C25.5304 30.25 26.0391 30.0393 26.4142 29.6642C26.7893 29.2891 27 28.7804 27 28.25V8.688L19.562 1.25Z" fill="#EDEDED"/>
    <path d="M26.8535 8.5415L19.7085 1.3965C19.6386 1.3266 19.5495 1.27899 19.4525 1.25971C19.3555 1.24042 19.255 1.25033 19.1637 1.28816C19.0723 1.326 18.9942 1.39007 18.9393 1.47227C18.8843 1.55448 18.855 1.65113 18.855 1.75V7.395C18.855 7.92543 19.0657 8.43414 19.4408 8.80921C19.8158 9.18429 20.3245 9.395 20.855 9.395H26.5C26.5989 9.39498 26.6955 9.36564 26.7777 9.3107C26.8599 9.25576 26.924 9.17768 26.9618 9.08633C26.9997 8.99498 27.0096 8.89446 26.9903 8.79748C26.971 8.70051 26.9234 8.61143 26.8535 8.5415Z" fill="#C6C6C6"/>
    <path d="M26.5 21.6965H15.043L13.843 20.324C13.7492 20.2167 13.6335 20.1308 13.5037 20.0719C13.3739 20.013 13.233 19.9825 13.0905 19.9825H5.5C5.23478 19.9825 4.98043 20.0879 4.79289 20.2754C4.60536 20.4629 4.5 20.7173 4.5 20.9825V28.25C4.50079 28.9128 4.76444 29.5482 5.23311 30.0169C5.70178 30.4856 6.3372 30.7492 7 30.75H25C25.6628 30.7492 26.2982 30.4856 26.7669 30.0169C27.2356 29.5482 27.4992 28.9128 27.5 28.25V22.6965C27.5 22.4313 27.3946 22.1769 27.2071 21.9894C27.0196 21.8019 26.7652 21.6965 26.5 21.6965Z" fill="#0461A0"/>
    <path d="M8 8.5305H16.855V9.5305H8V8.5305ZM15.145 15.124H24V16.124H15.145V15.124ZM8 10.7275H24V11.7275H8V10.7275ZM8 12.9255H24V13.9255H8V12.9255Z" fill="#C6C6C6"/>
    <path d="M12.4766 26.5H11.7941V28.25H10.8401V23.7895H12.4841C12.6964 23.7878 12.9081 23.812 13.1146 23.8615C13.2971 23.9043 13.4689 23.984 13.6196 24.0955C13.7654 24.2065 13.8815 24.3518 13.9576 24.5185C14.0441 24.7175 14.0859 24.9331 14.0801 25.15C14.092 25.3394 14.0599 25.529 13.9862 25.7038C13.9126 25.8787 13.7994 26.0342 13.6556 26.158C13.3147 26.4064 12.8975 26.5274 12.4766 26.5ZM12.4031 24.604H11.7941V25.684H12.4031C12.4948 25.6842 12.5864 25.6774 12.6771 25.6635C12.7574 25.6521 12.835 25.6262 12.9061 25.587C12.9727 25.5497 13.0279 25.4949 13.0656 25.4285C13.1093 25.3465 13.1302 25.2543 13.1261 25.1615C13.1293 25.0706 13.1149 24.9799 13.0836 24.8945C13.0592 24.8307 13.0176 24.7748 12.9636 24.733C12.7947 24.633 12.5987 24.5884 12.4031 24.6055V24.604ZM16.0371 28.2535H14.5661V23.7895H16.0251C16.3385 23.782 16.6504 23.836 16.9431 23.9485C17.1886 24.0463 17.4071 24.2017 17.5801 24.4015C17.7525 24.6073 17.8789 24.8477 17.9506 25.1065C18.0336 25.4063 18.0739 25.7164 18.0701 26.0275C18.075 26.347 18.0327 26.6654 17.9446 26.9725C17.8688 27.2331 17.7338 27.4727 17.5501 27.6725C17.3553 27.8736 17.119 28.0297 16.8577 28.13C16.5964 28.2304 16.3164 28.2725 16.0371 28.2535ZM16.0261 24.6035H15.5201V27.4355H16.0141C16.2021 27.4424 16.389 27.404 16.5591 27.3235C16.6972 27.253 16.8137 27.1464 16.8961 27.015C16.9815 26.8759 17.0399 26.7218 17.0681 26.561C17.1016 26.3804 17.1183 26.1972 17.1181 26.0135C17.1215 25.8047 17.0983 25.5964 17.0491 25.3935C17.0116 25.2355 16.9437 25.0864 16.8491 24.9545C16.7505 24.8339 16.6241 24.7391 16.4807 24.6783C16.3373 24.6175 16.1813 24.5925 16.0261 24.6055V24.6035ZM19.5221 25.5175H20.9681L20.9741 26.3335L19.5241 26.3395V28.2535H18.5681V23.7895H21.4601V24.6055H19.5221V25.5175Z" fill="white"/>
</svg>
