<svg width="74" height="72" viewBox="0 0 74 72" fill="none" xmlns="http://www.w3.org/2000/svg">
    <path
        d="M42.6569 21.8431C41.1459 20.3322 39.1368 19.5 37 19.5C34.8632 19.5 32.8541 20.3322 31.3431 21.8431C29.8322 23.3541 29 25.3632 29 27.5C29 29.6368 29.8322 31.6459 31.3431 33.1569C32.8541 34.6678 34.8632 35.5 37 35.5C39.1368 35.5 41.1459 34.6678 42.6569 33.1569C44.1678 31.6459 45 29.6368 45 27.5C45 25.3632 44.1678 23.3541 42.6569 21.8431ZM32.472 32.9155C32.7362 30.6426 34.6904 28.8877 37 28.8877C38.2175 28.8877 39.3624 29.3621 40.2236 30.2232C40.9512 30.9508 41.41 31.9009 41.5281 32.9154C40.3013 33.9429 38.7217 34.5625 37 34.5625C35.2783 34.5625 33.6988 33.943 32.472 32.9155ZM37 27.9221C35.6603 27.9221 34.5702 26.832 34.5702 25.4923C34.5702 24.1525 35.6603 23.0625 37 23.0625C38.3397 23.0625 39.4298 24.1525 39.4298 25.4923C39.4298 26.832 38.3397 27.9221 37 27.9221V27.9221ZM42.335 32.1229C42.0941 31.1529 41.5933 30.2669 40.8865 29.5603C40.3103 28.9841 39.6287 28.5519 38.8853 28.281C39.7789 27.6749 40.3673 26.651 40.3673 25.4923C40.3673 23.6356 38.8567 22.125 37 22.125C35.1433 22.125 33.6327 23.6356 33.6327 25.4923C33.6327 26.6516 34.2216 27.6759 35.116 28.2819C34.432 28.5311 33.7991 28.9165 33.2545 29.4238C32.4659 30.1582 31.9183 31.0946 31.6644 32.1222C30.5891 30.8826 29.9375 29.266 29.9375 27.5C29.9375 23.6057 33.1057 20.4375 37 20.4375C40.8943 20.4375 44.0625 23.6057 44.0625 27.5C44.0625 29.2663 43.4106 30.8833 42.335 32.1229Z"
        fill="#FF6F00" />
    <path
        d="M19.1577 53.5V44.7727H22.4304C23.1009 44.7727 23.6634 44.8977 24.1179 45.1477C24.5753 45.3977 24.9205 45.7415 25.1534 46.179C25.3892 46.6136 25.5071 47.108 25.5071 47.6619C25.5071 48.2216 25.3892 48.7187 25.1534 49.1534C24.9176 49.5881 24.5696 49.9304 24.1094 50.1804C23.6491 50.4276 23.0824 50.5511 22.4091 50.5511H20.2401V49.2514H22.196C22.5881 49.2514 22.9091 49.1832 23.1591 49.0469C23.4091 48.9105 23.5938 48.723 23.7131 48.4844C23.8352 48.2457 23.8963 47.9716 23.8963 47.6619C23.8963 47.3523 23.8352 47.0795 23.7131 46.8438C23.5938 46.608 23.4077 46.4247 23.1548 46.294C22.9048 46.1605 22.5824 46.0938 22.1875 46.0938H20.7386V53.5H19.1577ZM26.8121 53.5V46.9545H28.3079V48.0455H28.3761C28.4954 47.6676 28.6999 47.3764 28.9897 47.1719C29.2823 46.9645 29.6161 46.8608 29.9911 46.8608C30.0763 46.8608 30.1715 46.8651 30.2766 46.8736C30.3846 46.8793 30.4741 46.8892 30.5451 46.9034V48.3224C30.4798 48.2997 30.3761 48.2798 30.234 48.2628C30.0948 48.2429 29.9599 48.233 29.8292 48.233C29.5479 48.233 29.2951 48.294 29.0707 48.4162C28.8491 48.5355 28.6744 48.7017 28.5465 48.9148C28.4187 49.1278 28.3548 49.3736 28.3548 49.652V53.5H26.8121ZM34.1555 53.6278C33.5163 53.6278 32.9624 53.4872 32.4936 53.206C32.0249 52.9247 31.6612 52.5312 31.4027 52.0256C31.147 51.5199 31.0192 50.929 31.0192 50.2528C31.0192 49.5767 31.147 48.9844 31.4027 48.4759C31.6612 47.9673 32.0249 47.5724 32.4936 47.2912C32.9624 47.0099 33.5163 46.8693 34.1555 46.8693C34.7947 46.8693 35.3487 47.0099 35.8175 47.2912C36.2862 47.5724 36.6484 47.9673 36.9041 48.4759C37.1626 48.9844 37.2919 49.5767 37.2919 50.2528C37.2919 50.929 37.1626 51.5199 36.9041 52.0256C36.6484 52.5312 36.2862 52.9247 35.8175 53.206C35.3487 53.4872 34.7947 53.6278 34.1555 53.6278ZM34.1641 52.392C34.5107 52.392 34.8004 52.2969 35.0334 52.1065C35.2663 51.9134 35.4396 51.6548 35.5533 51.331C35.6697 51.0071 35.728 50.6463 35.728 50.2486C35.728 49.848 35.6697 49.4858 35.5533 49.1619C35.4396 48.8352 35.2663 48.5753 35.0334 48.3821C34.8004 48.1889 34.5107 48.0923 34.1641 48.0923C33.8089 48.0923 33.5135 48.1889 33.2777 48.3821C33.0447 48.5753 32.87 48.8352 32.7536 49.1619C32.6399 49.4858 32.5831 49.848 32.5831 50.2486C32.5831 50.6463 32.6399 51.0071 32.7536 51.331C32.87 51.6548 33.0447 51.9134 33.2777 52.1065C33.5135 52.2969 33.8089 52.392 34.1641 52.392ZM41.9165 46.9545V48.1477H38.0472V46.9545H41.9165ZM39.0146 53.5V46.3366C39.0146 45.8963 39.1055 45.5298 39.2873 45.2372C39.4719 44.9446 39.7191 44.7259 40.0288 44.581C40.3384 44.4361 40.6822 44.3636 41.06 44.3636C41.3271 44.3636 41.5643 44.3849 41.7717 44.4276C41.979 44.4702 42.1325 44.5085 42.2319 44.5426L41.9251 45.7358C41.8597 45.7159 41.7773 45.696 41.6779 45.6761C41.5785 45.6534 41.4677 45.642 41.3455 45.642C41.0586 45.642 40.8555 45.7116 40.7362 45.8509C40.6197 45.9872 40.5614 46.1832 40.5614 46.4389V53.5H39.0146ZM43.1246 53.5V46.9545H44.6673V53.5H43.1246ZM43.9002 46.0256C43.6559 46.0256 43.4457 45.9446 43.2695 45.7827C43.0934 45.6179 43.0053 45.4205 43.0053 45.1903C43.0053 44.9574 43.0934 44.7599 43.2695 44.598C43.4457 44.4332 43.6559 44.3509 43.9002 44.3509C44.1474 44.3509 44.3576 44.4332 44.5309 44.598C44.707 44.7599 44.7951 44.9574 44.7951 45.1903C44.7951 45.4205 44.707 45.6179 44.5309 45.7827C44.3576 45.9446 44.1474 46.0256 43.9002 46.0256ZM47.7962 44.7727V53.5H46.2536V44.7727H47.7962ZM52.2802 53.6278C51.6239 53.6278 51.0572 53.4915 50.5799 53.2188C50.1055 52.9432 49.7404 52.554 49.4847 52.0511C49.229 51.5455 49.1012 50.9503 49.1012 50.2656C49.1012 49.5923 49.229 49.0014 49.4847 48.4929C49.7433 47.9815 50.104 47.5838 50.5671 47.2997C51.0302 47.0128 51.5742 46.8693 52.1992 46.8693C52.6026 46.8693 52.9833 46.9347 53.3413 47.0653C53.7021 47.1932 54.0202 47.392 54.2958 47.6619C54.5742 47.9318 54.793 48.2756 54.9521 48.6932C55.1112 49.108 55.1907 49.6023 55.1907 50.1761V50.6491H49.8256V49.6094H53.712C53.7092 49.3139 53.6452 49.0511 53.5202 48.821C53.3952 48.5881 53.2205 48.4048 52.9961 48.2713C52.7745 48.1378 52.516 48.071 52.2205 48.071C51.9052 48.071 51.6282 48.1477 51.3896 48.3011C51.1509 48.4517 50.9648 48.6506 50.8313 48.8977C50.7006 49.142 50.6339 49.4105 50.631 49.7031V50.6108C50.631 50.9915 50.7006 51.3182 50.8398 51.5909C50.979 51.8608 51.1737 52.0682 51.4237 52.2131C51.6737 52.3551 51.9663 52.4261 52.3015 52.4261C52.5259 52.4261 52.729 52.3949 52.9109 52.3324C53.0927 52.267 53.2504 52.1719 53.3839 52.0469C53.5174 51.9219 53.6183 51.767 53.6864 51.5824L55.1268 51.7443C55.0359 52.125 54.8626 52.4574 54.6069 52.7415C54.354 53.0227 54.0302 53.2415 53.6353 53.3977C53.2404 53.5511 52.7887 53.6278 52.2802 53.6278Z"
        fill="#FF6F00" />
    <path d="M21 72C21 69.7909 22.7909 68 25 68H49C51.2091 68 53 69.7909 53 72H21Z"
        fill="#FF6F00" />
</svg>
