<svg width="74" height="72" viewBox="0 0 74 72" fill="none" xmlns="http://www.w3.org/2000/svg">
    <path
        d="M42.6569 21.8431C41.1459 20.3322 39.1368 19.5 37 19.5C34.8632 19.5 32.8541 20.3322 31.3431 21.8431C29.8322 23.3541 29 25.3632 29 27.5C29 29.6368 29.8322 31.6459 31.3431 33.1569C32.8541 34.6678 34.8632 35.5 37 35.5C39.1368 35.5 41.1459 34.6678 42.6569 33.1569C44.1678 31.6459 45 29.6368 45 27.5C45 25.3632 44.1678 23.3541 42.6569 21.8431ZM32.472 32.9155C32.7362 30.6426 34.6904 28.8877 37 28.8877C38.2175 28.8877 39.3624 29.3621 40.2236 30.2232C40.9512 30.9508 41.41 31.9009 41.5281 32.9154C40.3013 33.9429 38.7217 34.5625 37 34.5625C35.2783 34.5625 33.6988 33.943 32.472 32.9155ZM37 27.9221C35.6603 27.9221 34.5702 26.832 34.5702 25.4923C34.5702 24.1525 35.6603 23.0625 37 23.0625C38.3397 23.0625 39.4298 24.1525 39.4298 25.4923C39.4298 26.832 38.3397 27.9221 37 27.9221V27.9221ZM42.335 32.1229C42.0941 31.1529 41.5933 30.2669 40.8865 29.5603C40.3103 28.9841 39.6287 28.5519 38.8853 28.281C39.7789 27.6749 40.3673 26.651 40.3673 25.4923C40.3673 23.6356 38.8567 22.125 37 22.125C35.1433 22.125 33.6327 23.6356 33.6327 25.4923C33.6327 26.6516 34.2216 27.6759 35.116 28.2819C34.432 28.5311 33.7991 28.9165 33.2545 29.4238C32.4659 30.1582 31.9183 31.0946 31.6644 32.1222C30.5891 30.8826 29.9375 29.266 29.9375 27.5C29.9375 23.6057 33.1057 20.4375 37 20.4375C40.8943 20.4375 44.0625 23.6057 44.0625 27.5C44.0625 29.2663 43.4106 30.8833 42.335 32.1229Z"
        fill="#7E91A8" />
    <path
        d="M20.0334 53.5V44.7727H22.9822C23.6669 44.7727 24.2266 44.8963 24.6612 45.1435C25.0987 45.3878 25.4226 45.7188 25.6328 46.1364C25.843 46.554 25.9482 47.0199 25.9482 47.5341C25.9482 48.0483 25.843 48.5156 25.6328 48.9361C25.4254 49.3565 25.1044 49.6918 24.6697 49.9418C24.2351 50.1889 23.6783 50.3125 22.9993 50.3125H20.8857V49.375H22.9652C23.4339 49.375 23.8104 49.294 24.0945 49.1321C24.3786 48.9702 24.5845 48.7514 24.7124 48.4759C24.843 48.1974 24.9084 47.8835 24.9084 47.5341C24.9084 47.1847 24.843 46.8722 24.7124 46.5966C24.5845 46.321 24.3771 46.1051 24.0902 45.9489C23.8033 45.7898 23.4226 45.7102 22.9482 45.7102H21.0902V53.5H20.0334ZM27.5142 53.5V46.9545H28.4858V47.9432H28.554C28.6733 47.6193 28.8892 47.3565 29.2017 47.1548C29.5142 46.9531 29.8665 46.8523 30.2585 46.8523C30.3324 46.8523 30.4247 46.8537 30.5355 46.8565C30.6463 46.8594 30.7301 46.8636 30.7869 46.8693V47.892C30.7528 47.8835 30.6747 47.8707 30.5526 47.8537C30.4332 47.8338 30.3068 47.8239 30.1733 47.8239C29.8551 47.8239 29.571 47.8906 29.321 48.0241C29.0739 48.1548 28.8778 48.3366 28.733 48.5696C28.5909 48.7997 28.5199 49.0625 28.5199 49.358V53.5H27.5142ZM34.4389 53.6364C33.848 53.6364 33.3295 53.4957 32.8835 53.2145C32.4403 52.9332 32.0938 52.5398 31.8438 52.0341C31.5966 51.5284 31.473 50.9375 31.473 50.2614C31.473 49.5795 31.5966 48.9844 31.8438 48.4759C32.0938 47.9673 32.4403 47.5724 32.8835 47.2912C33.3295 47.0099 33.848 46.8693 34.4389 46.8693C35.0298 46.8693 35.5469 47.0099 35.9901 47.2912C36.4361 47.5724 36.7827 47.9673 37.0298 48.4759C37.2798 48.9844 37.4048 49.5795 37.4048 50.2614C37.4048 50.9375 37.2798 51.5284 37.0298 52.0341C36.7827 52.5398 36.4361 52.9332 35.9901 53.2145C35.5469 53.4957 35.0298 53.6364 34.4389 53.6364ZM34.4389 52.733C34.8878 52.733 35.2571 52.6179 35.5469 52.3878C35.8366 52.1577 36.0511 51.8551 36.1903 51.4801C36.3295 51.1051 36.3991 50.6989 36.3991 50.2614C36.3991 49.8239 36.3295 49.4162 36.1903 49.0384C36.0511 48.6605 35.8366 48.3551 35.5469 48.1222C35.2571 47.8892 34.8878 47.7727 34.4389 47.7727C33.9901 47.7727 33.6207 47.8892 33.331 48.1222C33.0412 48.3551 32.8267 48.6605 32.6875 49.0384C32.5483 49.4162 32.4787 49.8239 32.4787 50.2614C32.4787 50.6989 32.5483 51.1051 32.6875 51.4801C32.8267 51.8551 33.0412 52.1577 33.331 52.3878C33.6207 52.6179 33.9901 52.733 34.4389 52.733ZM41.8548 46.9545V47.8068H38.3263V46.9545H41.8548ZM39.3832 53.5V46.0511C39.3832 45.6761 39.4712 45.3636 39.6474 45.1136C39.8235 44.8636 40.0522 44.6761 40.3335 44.5511C40.6147 44.4261 40.9116 44.3636 41.2241 44.3636C41.4712 44.3636 41.6729 44.3835 41.8292 44.4233C41.9854 44.4631 42.1019 44.5 42.1786 44.5341L41.8888 45.4034C41.8377 45.3864 41.7667 45.3651 41.6758 45.3395C41.5877 45.3139 41.4712 45.3011 41.3263 45.3011C40.994 45.3011 40.7539 45.3849 40.6062 45.5526C40.4613 45.7202 40.3888 45.9659 40.3888 46.2898V53.5H39.3832ZM43.2642 53.5V46.9545H44.2699V53.5H43.2642ZM43.7756 45.8636C43.5795 45.8636 43.4105 45.7969 43.2685 45.6634C43.1293 45.5298 43.0597 45.3693 43.0597 45.1818C43.0597 44.9943 43.1293 44.8338 43.2685 44.7003C43.4105 44.5668 43.5795 44.5 43.7756 44.5C43.9716 44.5 44.1392 44.5668 44.2784 44.7003C44.4205 44.8338 44.4915 44.9943 44.4915 45.1818C44.4915 45.3693 44.4205 45.5298 44.2784 45.6634C44.1392 45.7969 43.9716 45.8636 43.7756 45.8636ZM47.1175 44.7727V53.5H46.1119V44.7727H47.1175ZM51.7038 53.6364C51.0732 53.6364 50.5291 53.4972 50.0717 53.2188C49.6172 52.9375 49.2663 52.5455 49.0192 52.0426C48.7749 51.5369 48.6527 50.9489 48.6527 50.2784C48.6527 49.608 48.7749 49.017 49.0192 48.5057C49.2663 47.9915 49.6101 47.5909 50.0504 47.304C50.4936 47.0142 51.0107 46.8693 51.6016 46.8693C51.9425 46.8693 52.2791 46.9261 52.6115 47.0398C52.9439 47.1534 53.2464 47.3381 53.5192 47.5938C53.7919 47.8466 54.0092 48.1818 54.1712 48.5994C54.3331 49.017 54.4141 49.5312 54.4141 50.142V50.5682H49.3686V49.6989H53.3913C53.3913 49.3295 53.3175 49 53.1697 48.7102C53.0249 48.4205 52.8175 48.1918 52.5476 48.0241C52.2805 47.8565 51.9652 47.7727 51.6016 47.7727C51.201 47.7727 50.8544 47.8722 50.5618 48.071C50.272 48.267 50.049 48.5227 49.8928 48.8381C49.7365 49.1534 49.6584 49.4915 49.6584 49.8523V50.4318C49.6584 50.9261 49.7436 51.3452 49.9141 51.6889C50.0874 52.0298 50.3274 52.2898 50.6342 52.4688C50.9411 52.6449 51.2976 52.733 51.7038 52.733C51.968 52.733 52.2067 52.696 52.4197 52.6222C52.6357 52.5455 52.8217 52.4318 52.978 52.2812C53.1342 52.1278 53.255 51.9375 53.3402 51.7102L54.3118 51.983C54.2095 52.3125 54.0376 52.6023 53.7962 52.8523C53.5547 53.0994 53.2564 53.2926 52.9013 53.4318C52.5462 53.5682 52.147 53.6364 51.7038 53.6364Z"
        fill="#7E91A8" />
</svg>
