<svg width="42" height="42" viewBox="0 0 42 42" fill="none" xmlns="http://www.w3.org/2000/svg">
    <rect width="42" height="42" rx="20" fill="#F9F9F9" />
    <rect x="0.15" y="0.15" width="41.7" height="41.7" rx="19.85" stroke="#E53935"
        stroke-opacity="0.2" stroke-width="0.3" />
    <path
        d="M15.4218 28.8149C16.1208 28.8123 16.7992 28.5782 17.351 28.1491C17.9028 27.72 18.2969 27.1202 18.4717 26.4434H23.4393C23.5905 27.0637 23.9241 27.6244 24.3969 28.0534C24.8698 28.4824 25.4602 28.7599 26.0923 28.8502C26.7243 28.9405 27.3689 28.8395 27.9429 28.5601C28.517 28.2807 28.9942 27.8358 29.3132 27.2828C29.6321 26.7297 29.778 26.0937 29.7322 25.457C29.6864 24.8202 29.4509 24.2117 29.0561 23.7099C28.6613 23.2082 28.1253 22.8362 27.5172 22.6419C26.909 22.4475 26.2566 22.4398 25.644 22.6197L23.1816 18.4086C23.6268 17.9675 23.9309 17.4042 24.0554 16.79C24.1798 16.1758 24.1189 15.5385 23.8805 14.9589C23.642 14.3794 23.2368 13.8838 22.7161 13.535C22.1955 13.1862 21.5829 13 20.9563 13C20.3296 13 19.717 13.1862 19.1964 13.535C18.6757 13.8838 18.2705 14.3794 18.032 14.9589C17.7936 15.5385 17.7327 16.1758 17.8572 16.79C17.9816 17.4042 18.2857 17.9675 18.7309 18.4086L16.274 22.622C15.9974 22.5392 15.7106 22.495 15.4218 22.4908C14.5832 22.4908 13.7789 22.8239 13.1859 23.4169C12.5929 24.01 12.2598 24.8142 12.2598 25.6529C12.2598 26.4915 12.5929 27.2958 13.1859 27.8888C13.7789 28.4818 14.5832 28.8149 15.4218 28.8149ZM26.4891 24.0718C26.8018 24.0718 27.1075 24.1646 27.3675 24.3383C27.6275 24.512 27.8301 24.7589 27.9498 25.0478C28.0695 25.3367 28.1008 25.6546 28.0398 25.9613C27.9788 26.268 27.8282 26.5497 27.6071 26.7708C27.3859 26.9919 27.1042 27.1425 26.7975 27.2035C26.4909 27.2645 26.173 27.2332 25.8841 27.1136C25.5952 26.9939 25.3482 26.7913 25.1745 26.5312C25.0008 26.2712 24.9081 25.9656 24.9081 25.6529C24.9081 25.2336 25.0746 24.8314 25.3711 24.5349C25.6676 24.2384 26.0698 24.0718 26.4891 24.0718ZM20.9555 14.5856C21.2682 14.5856 21.5738 14.6783 21.8338 14.8521C22.0938 15.0258 22.2965 15.2727 22.4162 15.5616C22.5358 15.8505 22.5671 16.1684 22.5061 16.4751C22.4451 16.7818 22.2945 17.0635 22.0734 17.2846C21.8523 17.5057 21.5706 17.6563 21.2639 17.7173C20.9572 17.7783 20.6393 17.747 20.3504 17.6273C20.0615 17.5077 19.8146 17.305 19.6409 17.045C19.4672 16.785 19.3744 16.4794 19.3744 16.1667C19.3744 15.7473 19.541 15.3452 19.8375 15.0487C20.134 14.7522 20.5362 14.5856 20.9555 14.5856ZM20.1033 19.1975C20.3799 19.2803 20.6667 19.3245 20.9555 19.3287C21.2454 19.3248 21.5333 19.2801 21.8108 19.1959L24.2709 23.4038C23.8673 23.8062 23.58 24.3101 23.4393 24.8624H18.4717C18.332 24.3127 18.047 23.8108 17.6464 23.4094L20.1033 19.1975ZM15.4218 24.0718C15.7345 24.0718 16.0402 24.1646 16.3002 24.3383C16.5602 24.512 16.7629 24.7589 16.8825 25.0478C17.0022 25.3367 17.0335 25.6546 16.9725 25.9613C16.9115 26.268 16.7609 26.5497 16.5398 26.7708C16.3187 26.9919 16.037 27.1425 15.7303 27.2035C15.4236 27.2645 15.1057 27.2332 14.8168 27.1136C14.5279 26.9939 14.281 26.7913 14.1073 26.5312C13.9335 26.2712 13.8408 25.9656 13.8408 25.6529C13.8408 25.2336 14.0074 24.8314 14.3039 24.5349C14.6004 24.2384 15.0025 24.0718 15.4218 24.0718Z"
        fill="#454545" />
</svg>
