<svg width="64" height="64" viewBox="0 0 64 64" fill="none" xmlns="http://www.w3.org/2000/svg">
    <rect width="64" height="64" rx="32" fill="#FE0000" fill-opacity="0.05" />
    <path
        d="M32.0002 44.0001C37.8815 44.0001 42.6668 39.2148 42.6668 33.3335C42.6668 28.8668 39.9042 25.0388 36.0002 23.4521V26.4161C37.2147 27.1174 38.2236 28.1256 38.9256 29.3396C39.6277 30.5537 39.9983 31.931 40.0002 33.3335C40.0002 37.7455 36.4122 41.3335 32.0002 41.3335C27.5882 41.3335 24.0002 37.7455 24.0002 33.3335C24.0019 31.931 24.3724 30.5536 25.0745 29.3395C25.7766 28.1254 26.7855 27.1173 28.0002 26.4161V23.4521C24.0962 25.0388 21.3335 28.8668 21.3335 33.3335C21.3335 39.2148 26.1188 44.0001 32.0002 44.0001Z"
        fill="#FE0000" />
    <path d="M30.6665 18.667H33.3332V32.0003H30.6665V18.667Z" fill="#FE0000" />
</svg>
