<svg width="21" height="20" viewBox="0 0 21 20" fill="none" xmlns="http://www.w3.org/2000/svg">
    <path
        d="M9.33703 0.690969C9.63638 -0.230342 10.9398 -0.230344 11.2391 0.690967L12.9823 6.05571C13.1161 6.46773 13.5001 6.74669 13.9333 6.74669H19.5741C20.5429 6.74669 20.9456 7.98631 20.1619 8.55571L15.5984 11.8713C15.2479 12.126 15.1013 12.5773 15.2351 12.9893L16.9782 18.3541C17.2776 19.2754 16.2231 20.0415 15.4394 19.4721L10.8759 16.1565C10.5254 15.9019 10.0508 15.9019 9.7003 16.1565L5.13678 19.4721C4.35306 20.0415 3.29858 19.2754 3.59793 18.3541L5.34105 12.9893C5.47492 12.5773 5.32826 12.126 4.97777 11.8713L0.414251 8.55571C-0.369463 7.98631 0.0333114 6.74669 1.00203 6.74669H6.64286C7.07609 6.74669 7.46004 6.46773 7.59392 6.05571L9.33703 0.690969Z"
        fill="#FACC15" />
</svg>
