<svg width="42" height="42" viewBox="0 0 42 42" fill="none" xmlns="http://www.w3.org/2000/svg">
    <rect width="42" height="42" rx="20" fill="#F9F9F9" />
    <rect x="0.15" y="0.15" width="41.7" height="41.7" rx="19.85" stroke="#E53935"
        stroke-opacity="0.2" stroke-width="0.3" />
    <path
        d="M31 18.1858C31 17.5712 30.7498 16.9818 30.3044 16.5472C29.859 16.1126 29.2549 15.8685 28.625 15.8685C27.9951 15.8685 27.391 16.1126 26.9456 16.5472C26.5002 16.9818 26.25 17.5712 26.25 18.1858C26.2499 18.3415 26.2661 18.4968 26.2983 18.6493L24.992 19.4125L23.2052 15.9303C23.53 15.6034 23.7489 15.1904 23.8346 14.7429C23.9203 14.2954 23.869 13.8332 23.6871 13.4139C23.5052 12.9947 23.2008 12.637 22.8118 12.3856C22.4228 12.1341 21.9666 12 21.5 12C21.0334 12 20.5772 12.1341 20.1882 12.3856C19.7992 12.637 19.4948 12.9947 19.3129 13.4139C19.131 13.8332 19.0797 14.2954 19.1654 14.7429C19.2511 15.1904 19.47 15.6034 19.7947 15.9303L18.008 19.4125L16.7017 18.6493C16.7339 18.4968 16.7501 18.3415 16.75 18.1858C16.751 17.7499 16.6261 17.3226 16.3894 16.9529C16.1528 16.5832 15.8141 16.2861 15.4122 16.0958C15.0103 15.9054 14.5616 15.8295 14.1175 15.8768C13.6734 15.924 13.252 16.0925 12.9016 16.3629C12.5512 16.6333 12.2861 16.9947 12.1367 17.4055C11.9873 17.8162 11.9597 18.2598 12.057 18.6852C12.1543 19.1106 12.3727 19.5006 12.6869 19.8105C13.0011 20.1203 13.3985 20.3373 13.8335 20.4367L14.3085 24.6148C14.0864 24.7546 13.9038 24.9463 13.7771 25.1726C13.6504 25.3988 13.5838 25.6524 13.5833 25.9102V27.4551C13.5833 27.8648 13.7501 28.2578 14.0471 28.5475C14.344 28.8372 14.7467 29 15.1667 29H27.8333C28.2533 29 28.656 28.8372 28.9529 28.5475C29.2499 28.2578 29.4167 27.8648 29.4167 27.4551V25.9102C29.416 25.6523 29.3491 25.3986 29.2222 25.1723C29.0953 24.9461 28.9123 24.7544 28.6899 24.6148L29.1649 20.4367C29.6859 20.318 30.1506 20.0312 30.4837 19.6227C30.8167 19.2141 30.9987 18.7078 31 18.1858ZM28.625 17.4134C28.7816 17.4134 28.9346 17.4587 29.0648 17.5436C29.195 17.6284 29.2965 17.7491 29.3564 17.8902C29.4163 18.0314 29.432 18.1867 29.4015 18.3365C29.3709 18.4863 29.2955 18.624 29.1848 18.732C29.0741 18.84 28.933 18.9136 28.7794 18.9434C28.6259 18.9732 28.4667 18.9579 28.322 18.8995C28.1774 18.841 28.0537 18.742 27.9668 18.615C27.8798 18.4879 27.8333 18.3386 27.8333 18.1858C27.8333 17.9809 27.9167 17.7845 28.0652 17.6396C28.2137 17.4948 28.415 17.4134 28.625 17.4134ZM21.5 13.5512C21.6566 13.5512 21.8096 13.5965 21.9398 13.6813C22.07 13.7662 22.1715 13.8869 22.2314 14.028C22.2913 14.1691 22.307 14.3245 22.2765 14.4743C22.2459 14.6241 22.1705 14.7618 22.0598 14.8698C21.9491 14.9778 21.808 15.0514 21.6544 15.0812C21.5009 15.111 21.3417 15.0957 21.197 15.0372C21.0524 14.9788 20.9287 14.8798 20.8418 14.7528C20.7548 14.6257 20.7083 14.4764 20.7083 14.3236C20.7083 14.1187 20.7917 13.9223 20.9402 13.7774C21.0887 13.6325 21.29 13.5512 21.5 13.5512ZM18.3333 21.2756C18.4081 21.2753 18.4824 21.2649 18.5542 21.2447C18.659 21.2151 18.7565 21.1647 18.8404 21.0967C18.9243 21.0286 18.9929 20.9444 19.0419 20.8492L21.2166 16.6131C21.3104 16.6279 21.405 16.6372 21.5 16.6409C21.595 16.6372 21.6896 16.6279 21.7834 16.6131L23.9581 20.8492C24.0071 20.9444 24.0757 21.0286 24.1596 21.0967C24.2435 21.1647 24.341 21.2151 24.4458 21.2447C24.5176 21.2649 24.5919 21.2753 24.6667 21.2756C24.81 21.2756 24.9506 21.2377 25.0736 21.1659L27.1248 19.9678C27.2685 20.0836 27.4255 20.1826 27.5927 20.2629L27.1248 24.3653H15.8752L15.4042 20.2629C15.5713 20.1826 15.7283 20.0836 15.872 19.9678L17.9232 21.1659C18.0471 21.2383 18.1889 21.2762 18.3333 21.2756ZM14.375 17.4134C14.5316 17.4134 14.6846 17.4587 14.8148 17.5436C14.945 17.6284 15.0465 17.7491 15.1064 17.8902C15.1663 18.0314 15.182 18.1867 15.1515 18.3365C15.1209 18.4863 15.0455 18.624 14.9348 18.732C14.8241 18.84 14.683 18.9136 14.5294 18.9434C14.3759 18.9732 14.2167 18.9579 14.072 18.8995C13.9274 18.841 13.8037 18.742 13.7167 18.615C13.6298 18.4879 13.5833 18.3386 13.5833 18.1858C13.5833 17.9809 13.6667 17.7845 13.8152 17.6396C13.9637 17.4948 14.165 17.4134 14.375 17.4134ZM15.1667 27.4551V25.9102H27.8333V27.4551H15.1667Z"
        fill="#454545" />
</svg>
