<svg width="42" height="42" viewBox="0 0 42 42" fill="none" xmlns="http://www.w3.org/2000/svg">
    <rect width="42" height="42" rx="20" fill="#F9F9F9" />
    <rect x="0.15" y="0.15" width="41.7" height="41.7" rx="19.85" stroke="#E53935"
        stroke-opacity="0.2" stroke-width="0.3" />
    <path fill-rule="evenodd" clip-rule="evenodd"
        d="M28.8 19.18C28.49 16 26.61 11 20.8 11C14.99 11 13.11 16 12.8 19.18C11.7125 19.5927 10.9952 20.6368 11 21.8V23.2C11 24.7464 12.2536 26 13.8 26C15.3464 26 16.6 24.7464 16.6 23.2V21.8C16.595 20.6619 15.904 19.6393 14.85 19.21C15.05 17.37 16.03 13 20.8 13C25.57 13 26.54 17.37 26.74 19.21C25.6882 19.6402 25.0007 20.6636 25 21.8V23.2C25.0022 23.7269 25.1524 24.2425 25.4335 24.6881C25.7147 25.1337 26.1154 25.4913 26.59 25.72C26.17 26.51 25.1 27.58 22.47 27.9C21.9443 27.1017 20.9272 26.787 20.0424 27.1489C19.1578 27.5108 18.6528 28.4481 18.8373 29.386C19.0218 30.3239 19.8442 31 20.8 31C21.1704 30.9979 21.5329 30.8931 21.8472 30.6971C22.1615 30.5011 22.4152 30.2217 22.58 29.89C26.87 29.4 28.24 27.19 28.67 25.89C29.8333 25.5132 30.6157 24.4227 30.6 23.2V21.8C30.6048 20.6368 29.8875 19.5927 28.8 19.18ZM14.6 23.2C14.6 23.6418 14.2419 24 13.8 24C13.3582 24 13 23.6419 13 23.2V21.8C12.9992 21.6944 13.0193 21.5897 13.0592 21.492C13.099 21.3942 13.1578 21.3053 13.2322 21.2304C13.3065 21.1554 13.395 21.0959 13.4925 21.0553C13.5899 21.0148 13.6945 20.9939 13.8 20.9939C13.9056 20.9939 14.0101 21.0148 14.1076 21.0553C14.2051 21.0959 14.2935 21.1554 14.3679 21.2304C14.4423 21.3053 14.5011 21.3942 14.5409 21.492C14.5807 21.5897 14.6008 21.6944 14.6 21.8V23.2ZM27 21.8C27 21.3582 27.3582 21 27.8 21C28.2419 21 28.6 21.3582 28.6 21.8V23.2C28.6 23.6418 28.2419 24 27.8 24C27.3582 24 27 23.6419 27 23.2V21.8Z"
        fill="#454545" />
</svg>
