<svg width="42" height="42" viewBox="0 0 42 42" fill="none" xmlns="http://www.w3.org/2000/svg">
    <rect width="42" height="42" rx="20" fill="#F9F9F9"/>
    <rect x="0.15" y="0.15" width="41.7" height="41.7" rx="19.85" stroke="#E53935" stroke-opacity="0.2" stroke-width="0.3"/>
    <path d="M26.1772 16.4388V14.4875H26.1937C26.5236 14.4875 26.84 14.3565 27.0732 14.1232C27.3065 13.89 27.4375 13.5736 27.4375 13.2437C27.4375 12.9139 27.3065 12.5975 27.0732 12.3643C26.84 12.131 26.5236 12 26.1937 12H16.2437C15.9139 12 15.5975 12.131 15.3643 12.3643C15.131 12.5975 15 12.9139 15 13.2437C15 13.5736 15.131 13.89 15.3643 14.1232C15.5975 14.3565 15.9139 14.4875 16.2437 14.4875H16.2603V16.4388C16.2566 17.3474 16.5037 18.2395 16.9742 19.0168C17.4448 19.7941 18.1207 20.4265 18.9275 20.8444C18.1207 21.2624 17.4448 21.8948 16.9742 22.6721C16.5037 23.4494 16.2566 24.3415 16.2603 25.2501V27.2014H16.2437C15.9139 27.2014 15.5975 27.3324 15.3643 27.5657C15.131 27.7989 15 28.1153 15 28.4451C15 28.775 15.131 29.0914 15.3643 29.3246C15.5975 29.5579 15.9139 29.6889 16.2437 29.6889H26.1937C26.5236 29.6889 26.84 29.5579 27.0732 29.3246C27.3065 29.0914 27.4375 28.775 27.4375 28.4451C27.4375 28.1153 27.3065 27.7989 27.0732 27.5657C26.84 27.3324 26.5236 27.2014 26.1937 27.2014H26.1772V25.2501C26.1763 24.3417 25.9268 23.4509 25.4557 22.6743C24.9845 21.8976 24.3097 21.2648 23.5045 20.8444C24.3127 20.4277 24.9901 19.7958 25.4617 19.0183C25.9334 18.2408 26.181 17.3481 26.1772 16.4388ZM16.1056 13.2437C16.1056 13.2071 16.1201 13.1719 16.146 13.146C16.1719 13.1201 16.2071 13.1056 16.2437 13.1056H26.1937C26.2304 13.1056 26.2656 13.1201 26.2915 13.146C26.3174 13.1719 26.3319 13.2071 26.3319 13.2437C26.3319 13.2804 26.3174 13.3156 26.2915 13.3415C26.2656 13.3674 26.2304 13.3819 26.1937 13.3819H16.2437C16.2071 13.3819 16.1719 13.3674 16.146 13.3415C16.1201 13.3156 16.1056 13.2804 16.1056 13.2437ZM26.3319 28.4451C26.3319 28.4818 26.3174 28.5169 26.2915 28.5429C26.2656 28.5688 26.2304 28.5833 26.1937 28.5833H16.2437C16.2071 28.5833 16.1719 28.5688 16.146 28.5429C16.1201 28.5169 16.1056 28.4818 16.1056 28.4451C16.1056 28.4085 16.1201 28.3733 16.146 28.3474C16.1719 28.3215 16.2071 28.3069 16.2437 28.3069H26.1937C26.2304 28.3069 26.2656 28.3215 26.2915 28.3474C26.3174 28.3733 26.3319 28.4085 26.3319 28.4451ZM17.3659 27.2014V26.8752C19.9557 25.3717 22.4791 25.3717 25.0716 26.8752V27.2014H17.3659ZM21.824 20.2447C21.6927 20.2653 21.5732 20.3325 21.4875 20.434C21.4017 20.5355 21.3553 20.6646 21.3569 20.7975V20.9025C21.3553 21.0354 21.4017 21.1644 21.4875 21.2659C21.5732 21.3675 21.6927 21.4347 21.824 21.4553C22.7281 21.5985 23.5515 22.0592 24.1467 22.7546C24.7418 23.45 25.0697 24.3348 25.0716 25.2501V25.6177C23.8872 24.981 22.5635 24.6477 21.2188 24.6477C19.874 24.6477 18.5503 24.981 17.3659 25.6177V25.2501C17.369 24.3339 17.6971 23.4486 18.2918 22.7517C18.8865 22.0548 19.7092 21.5914 20.6135 21.4442C20.7448 21.4236 20.8643 21.3564 20.95 21.2549C21.0358 21.1534 21.0822 21.0243 21.0806 20.8914V20.7864C21.0822 20.6535 21.0358 20.5245 20.95 20.4229C20.8643 20.3214 20.7448 20.2542 20.6135 20.2336C19.7111 20.0867 18.8898 19.625 18.2954 18.9304C17.7009 18.2357 17.3716 17.3531 17.3659 16.4388V14.4875H25.0716V16.4388C25.0685 17.355 24.7404 18.2403 24.1457 18.9372C23.551 19.6341 22.7283 20.0974 21.824 20.2447Z" fill="#454545"/>
    <path d="M21.8767 16.7792L20.5445 16.7599L20.5639 16.0441H22.8772V14.9385H21.7717V14.6621H20.6661V14.9385H20.5639C20.266 14.9385 19.9803 15.0566 19.7694 15.267C19.5585 15.4774 19.4397 15.7628 19.439 16.0606V16.7599C19.439 17.0582 19.5575 17.3444 19.7684 17.5553C19.9794 17.7663 20.2655 17.8848 20.5639 17.8848L21.8933 17.9014L21.8767 18.6338H19.5606V19.7394H20.6661V20.0158H21.7717V19.7394H21.8767C22.1746 19.7386 22.46 19.6198 22.6704 19.4089C22.8807 19.198 22.9989 18.9123 22.9989 18.6145V17.9014C22.9989 17.754 22.9698 17.6081 22.9134 17.472C22.857 17.3358 22.7744 17.2121 22.6702 17.1079C22.566 17.0037 22.4423 16.9211 22.3061 16.8647C22.17 16.8083 22.0241 16.7792 21.8767 16.7792ZM20.6661 23.3324H21.7717V24.438H20.6661V23.3324ZM20.6661 21.6741H21.7717V22.7797H20.6661V21.6741Z" fill="#454545"/>
</svg>
