<svg width="38" height="38" viewBox="0 0 38 38" fill="none" xmlns="http://www.w3.org/2000/svg">
    <rect width="38" height="38" rx="19" fill="#F6F7F9" />
    <rect width="38" height="38" rx="19" fill="#F0F0FA" />
    <path
        d="M11 28C10.45 28 9.97933 27.8043 9.588 27.413C9.19667 27.0217 9.00067 26.5507 9 26V21C9 20.45 9.196 19.9793 9.588 19.588C9.98 19.1967 10.4507 19.0007 11 19H15.15C15.4 19 15.6167 19.0833 15.8 19.25C15.9833 19.4167 16.0917 19.6167 16.125 19.85C16.2083 20.4167 16.5417 20.9167 17.125 21.35C17.7083 21.7833 18.3333 22 19 22C19.6667 22 20.2917 21.7833 20.875 21.35C21.4583 20.9167 21.7917 20.4167 21.875 19.85C21.9083 19.6167 22.0167 19.4167 22.2 19.25C22.3833 19.0833 22.6 19 22.85 19H27C27.55 19 28.021 19.196 28.413 19.588C28.805 19.98 29.0007 20.4507 29 21V26C29 26.55 28.8043 27.021 28.413 27.413C28.0217 27.805 27.5507 28.0007 27 28H11ZM23.9 17.1C23.7167 16.9167 23.625 16.6833 23.625 16.4C23.625 16.1167 23.7167 15.8833 23.9 15.7L26.05 13.55C26.2333 13.3667 26.4667 13.275 26.75 13.275C27.0333 13.275 27.2667 13.3667 27.45 13.55C27.6333 13.7333 27.725 13.9667 27.725 14.25C27.725 14.5333 27.6333 14.7667 27.45 14.95L25.3 17.1C25.1167 17.2833 24.8833 17.375 24.6 17.375C24.3167 17.375 24.0833 17.2833 23.9 17.1ZM14.1 17.1C13.9167 17.2833 13.6833 17.375 13.4 17.375C13.1167 17.375 12.8833 17.2833 12.7 17.1L10.55 14.95C10.3667 14.7667 10.275 14.5333 10.275 14.25C10.275 13.9667 10.3667 13.7333 10.55 13.55C10.7333 13.3667 10.9667 13.275 11.25 13.275C11.5333 13.275 11.7667 13.3667 11.95 13.55L14.1 15.7C14.2833 15.8833 14.375 16.1167 14.375 16.4C14.375 16.6833 14.2833 16.9167 14.1 17.1ZM19 15C18.7167 15 18.479 14.904 18.287 14.712C18.095 14.52 17.9993 14.2827 18 14V11C18 10.7167 18.096 10.4793 18.288 10.288C18.48 10.0967 18.7173 10.0007 19 10C19.2827 9.99934 19.5203 10.0953 19.713 10.288C19.9057 10.4807 20.0013 10.718 20 11V14C20 14.2833 19.904 14.521 19.712 14.713C19.52 14.905 19.2827 15.0007 19 15Z"
        fill="#002147" />
</svg>
